<svg width="107" height="25" viewBox="0 0 107 25" fill="none" xmlns="http://www.w3.org/2000/svg">
<path d="M38.7031 18.9703V5.95508H39.8897V18.9703H38.7031Z" fill="white"/>
<path d="M55.9237 5.90723V16.9927L46.6996 5.90723H45.6875V13.9325C45.889 13.8919 46.0971 13.87 46.3106 13.87C46.5035 13.87 46.6919 13.8877 46.875 13.921V7.8287L56.1383 18.9703H57.1112V5.90723H55.9237Z" fill="white"/>
<path d="M48.0406 18.2883C48.0809 18.2467 48.1191 18.204 48.1561 18.1603C48.1605 18.1551 48.1648 18.1499 48.1692 18.1436C48.2062 18.0989 48.2422 18.052 48.276 18.0052C48.276 18.0052 48.277 18.0031 48.2781 18.0021C48.3108 17.9552 48.3424 17.9063 48.3718 17.8563C48.3751 17.8511 48.3784 17.8459 48.3805 17.8407C48.4089 17.7928 48.435 17.7429 48.459 17.6929C48.4633 17.6846 48.4677 17.6752 48.471 17.6669C48.4949 17.6169 48.5167 17.5649 48.5363 17.5128C48.5385 17.5066 48.5407 17.4993 48.5429 17.4931C48.5614 17.4421 48.5788 17.389 48.5941 17.3359C48.5952 17.3317 48.5973 17.3265 48.5984 17.3224C48.6137 17.2682 48.6257 17.2131 48.6366 17.1569C48.6387 17.1464 48.6409 17.136 48.642 17.1256C48.6518 17.0705 48.6594 17.0153 48.6649 16.9591C48.6649 16.9487 48.666 16.9393 48.6671 16.9289C48.6714 16.8706 48.6747 16.8113 48.6747 16.7509C48.6747 16.6916 48.6714 16.6322 48.6671 16.5729C48.6671 16.5625 48.666 16.5531 48.6649 16.5427C48.6594 16.4865 48.6518 16.4314 48.642 16.3762C48.6398 16.3658 48.6376 16.3554 48.6366 16.345C48.6257 16.2888 48.6137 16.2336 48.5984 16.1795C48.5973 16.1753 48.5952 16.1701 48.5941 16.1659C48.5788 16.1128 48.5625 16.0608 48.5429 16.0088C48.5407 16.0025 48.5385 15.9952 48.5352 15.989C48.5156 15.9369 48.4938 15.8849 48.4699 15.8349C48.4655 15.8266 48.4622 15.8172 48.4579 15.8089C48.4339 15.7589 48.4078 15.709 48.3794 15.6601C48.3762 15.6549 48.3729 15.6497 48.3707 15.6444C48.3413 15.5945 48.3108 15.5456 48.277 15.4987C48.277 15.4987 48.276 15.4966 48.2749 15.4956C48.2411 15.4477 48.2051 15.4019 48.1681 15.3572C48.1637 15.352 48.1594 15.3468 48.155 15.3405C48.118 15.2968 48.0799 15.2541 48.0395 15.2125C48.0363 15.2083 48.0319 15.2052 48.0287 15.201C47.9437 15.1157 47.8522 15.0355 47.7541 14.9637C47.7519 14.9616 47.7498 14.9606 47.7465 14.9585C47.6975 14.9231 47.6474 14.8888 47.5962 14.8565C47.5929 14.8544 47.5896 14.8523 47.5863 14.8503C47.4262 14.7524 47.2541 14.6723 47.0711 14.6129C47.0678 14.6119 47.0645 14.6108 47.0612 14.6098C47.0002 14.59 46.9392 14.5734 46.876 14.5578C46.8336 14.5474 46.7911 14.539 46.7475 14.5317C46.741 14.5307 46.7344 14.5297 46.7279 14.5286C46.6919 14.5224 46.6549 14.5172 46.6179 14.512C46.608 14.5109 46.5972 14.5099 46.5873 14.5078C46.5525 14.5036 46.5176 14.5005 46.4828 14.4984C46.4719 14.4984 46.461 14.4964 46.449 14.4964C46.4043 14.4943 46.3586 14.4922 46.3128 14.4922C46.2638 14.4922 46.2148 14.4943 46.1657 14.4974C46.1538 14.4974 46.1418 14.4995 46.1298 14.5005C46.0895 14.5036 46.0503 14.5078 46.01 14.512C46.0012 14.512 45.9936 14.514 45.9849 14.5151C45.8836 14.5286 45.7855 14.5484 45.6886 14.5734C45.5644 14.6056 45.4435 14.6483 45.3291 14.6983C45.3291 14.6983 45.3269 14.6983 45.3258 14.6993C45.2681 14.7243 45.2125 14.7524 45.158 14.7816C45.158 14.7816 45.158 14.7816 45.1569 14.7816C45.048 14.8398 44.9445 14.9065 44.8475 14.9804C44.8454 14.9824 44.8432 14.9835 44.841 14.9856C44.7931 15.022 44.7473 15.0595 44.7037 15.099C44.7016 15.1011 44.6994 15.1032 44.6961 15.1053C44.6079 15.1844 44.5273 15.2697 44.4521 15.3603C44.4488 15.3645 44.4445 15.3697 44.4412 15.3738C44.4052 15.4175 44.3715 15.4633 44.3399 15.5091C44.3366 15.5143 44.3322 15.5195 44.329 15.5258C44.2658 15.6195 44.2091 15.7184 44.1601 15.8214C44.1568 15.8287 44.1525 15.837 44.1492 15.8443C44.1263 15.8943 44.1056 15.9442 44.0871 15.9952C44.0839 16.0036 44.0806 16.0129 44.0784 16.0212C44.0403 16.1264 44.0109 16.2357 43.9902 16.3481C43.988 16.3585 43.9858 16.3679 43.9847 16.3783C43.9749 16.4324 43.9684 16.4865 43.9629 16.5417C43.9629 16.5521 43.9608 16.5625 43.9608 16.5729C43.9564 16.6302 43.9531 16.6885 43.9531 16.7467C43.9531 16.805 43.9564 16.8633 43.9608 16.9206C43.9608 16.931 43.9618 16.9414 43.9629 16.9518C43.9684 17.007 43.9749 17.0611 43.9847 17.1152C43.9869 17.1256 43.988 17.135 43.9902 17.1454C44.0109 17.2578 44.0403 17.3661 44.0784 17.4722C44.0817 17.4806 44.0839 17.4899 44.0871 17.4983C44.1056 17.5493 44.1274 17.6003 44.1492 17.6492C44.1525 17.6575 44.1568 17.6648 44.1601 17.6721C44.2091 17.7751 44.2658 17.874 44.329 17.9677C44.3322 17.9729 44.3366 17.9781 44.3399 17.9844C44.3715 18.0312 44.4052 18.076 44.4412 18.1197C44.4445 18.1238 44.4488 18.129 44.4521 18.1332C44.5262 18.2238 44.6079 18.3091 44.6961 18.3882C44.6983 18.3903 44.7005 18.3924 44.7026 18.3945C44.7473 18.434 44.7931 18.4715 44.8399 18.5079C44.8421 18.51 44.8443 18.511 44.8465 18.5131C44.9434 18.587 45.0469 18.6536 45.1558 18.713C45.1558 18.713 45.1558 18.713 45.1569 18.713C45.2114 18.7421 45.2681 18.7702 45.3258 18.7952C45.3258 18.7952 45.328 18.7952 45.328 18.7963C45.5034 18.8733 45.6908 18.9305 45.8868 18.9649C45.9544 18.9763 46.0241 18.9857 46.0938 18.9919C46.0971 18.9919 46.0993 18.9919 46.1026 18.9919C46.1712 18.9982 46.2409 19.0013 46.3117 19.0013C46.3825 19.0013 46.4523 18.9982 46.5209 18.9919C46.5242 18.9919 46.5263 18.9919 46.5296 18.9919C46.5993 18.9857 46.668 18.9763 46.7366 18.9649C46.8477 18.9451 46.9567 18.9191 47.0612 18.8847C47.0645 18.8847 47.0678 18.8826 47.07 18.8816C47.253 18.8223 47.4262 18.7421 47.5853 18.6432C47.5885 18.6412 47.5918 18.6391 47.5951 18.637C47.6463 18.6047 47.6975 18.5714 47.7454 18.535C47.7476 18.5329 47.7498 18.5319 47.753 18.5298C47.8511 18.458 47.9426 18.3778 48.0276 18.2925C48.0308 18.2883 48.0352 18.2852 48.0385 18.281L48.0406 18.2883ZM48.0297 16.905C48.0287 16.9206 48.0254 16.9372 48.0232 16.9528C48.0189 16.9872 48.0134 17.0215 48.0069 17.0559C48.0036 17.0736 47.9992 17.0913 47.996 17.109C47.9883 17.1412 47.9796 17.1735 47.9698 17.2058C47.9655 17.2224 47.96 17.238 47.9557 17.2547C47.9404 17.2995 47.9241 17.3432 47.9055 17.3869C47.899 17.4015 47.8914 17.416 47.8838 17.4316C47.8707 17.4598 47.8565 17.4879 47.8413 17.516C47.8293 17.5368 47.8173 17.5576 47.8053 17.5774C47.7933 17.5972 47.7803 17.6169 47.7672 17.6367C47.7519 17.6586 47.7378 17.6804 47.7214 17.7012C47.7105 17.7169 47.6975 17.7314 47.6855 17.746C47.6179 17.8314 47.5417 17.9105 47.4578 17.9812C47.4524 17.9854 47.448 17.9906 47.4425 17.9948C47.4142 18.0187 47.3837 18.0416 47.3532 18.0635C47.3467 18.0687 47.3401 18.0728 47.3336 18.077C47.302 18.0999 47.2693 18.1218 47.2356 18.1415C47.1244 18.2092 47.0046 18.2644 46.8782 18.306C46.8379 18.3195 46.7976 18.331 46.7562 18.3414C46.7464 18.3435 46.7366 18.3466 46.7279 18.3487C46.693 18.357 46.6571 18.3643 46.6211 18.3705C46.5993 18.3747 46.5775 18.3768 46.5558 18.3799C46.5285 18.3841 46.5013 18.3872 46.4741 18.3903C46.4218 18.3945 46.3695 18.3976 46.3161 18.3976C46.3161 18.3976 46.3139 18.3976 46.3128 18.3976C46.2573 18.3976 46.2028 18.3945 46.1494 18.3893C46.108 18.3851 46.0688 18.3789 46.0285 18.3726C46.0165 18.3705 46.0034 18.3695 45.9914 18.3674C45.9413 18.358 45.8912 18.3466 45.8422 18.3331C45.8422 18.3331 45.8411 18.3331 45.84 18.3331C45.7899 18.3195 45.7409 18.3029 45.6918 18.2852C45.6537 18.2706 45.6167 18.255 45.5796 18.2394C45.5753 18.2373 45.5698 18.2352 45.5655 18.2331C45.4195 18.1655 45.2855 18.0791 45.1667 17.9771C45.158 17.9687 45.1482 17.9615 45.1395 17.9531C45.1155 17.9313 45.0916 17.9094 45.0687 17.8865C45.0589 17.8761 45.0491 17.8657 45.0393 17.8553C45.0022 17.8157 44.9663 17.7741 44.9325 17.7314C44.9216 17.7169 44.9096 17.7023 44.8987 17.6877C44.8846 17.6679 44.8715 17.6471 44.8573 17.6273C44.8443 17.6065 44.8301 17.5867 44.8181 17.5649C44.8061 17.5451 44.7952 17.5253 44.7844 17.5056C44.7702 17.4806 44.7582 17.4545 44.7451 17.4285C44.7375 17.4119 44.7288 17.3942 44.7212 17.3775C44.7026 17.3348 44.6863 17.2911 44.6711 17.2474C44.6667 17.236 44.6645 17.2235 44.6602 17.212C44.6493 17.1766 44.6395 17.1402 44.6307 17.1038C44.6275 17.0871 44.6242 17.0715 44.6209 17.0548C44.6144 17.0205 44.609 16.9851 44.6046 16.9508C44.6024 16.9351 44.6002 16.9195 44.5992 16.9039C44.5948 16.854 44.5915 16.803 44.5915 16.752C44.5915 16.7009 44.5948 16.6499 44.5992 16.6C44.6002 16.5844 44.6024 16.5688 44.6046 16.5531C44.609 16.5178 44.6144 16.4834 44.6209 16.4491C44.6242 16.4324 44.6275 16.4157 44.6307 16.4001C44.6395 16.3637 44.6493 16.3273 44.6602 16.2919C44.6634 16.2804 44.6667 16.2679 44.6711 16.2565C44.6863 16.2117 44.7026 16.1691 44.7212 16.1264C44.7288 16.1087 44.7375 16.092 44.7451 16.0754C44.7571 16.0494 44.7702 16.0244 44.7833 15.9983C44.7942 15.9786 44.8051 15.9588 44.817 15.939C44.8301 15.9182 44.8432 15.8974 44.8563 15.8766C44.8693 15.8557 44.8824 15.836 44.8977 15.8162C44.9085 15.8016 44.9205 15.787 44.9314 15.7725C44.9652 15.7298 45.0001 15.6882 45.0382 15.6486C45.048 15.6382 45.0578 15.6278 45.0676 15.6174C45.0905 15.5945 45.1144 15.5726 45.1384 15.5508C45.1471 15.5424 45.1569 15.5352 45.1657 15.5268C45.2844 15.4248 45.4184 15.3384 45.5644 15.2708C45.5698 15.2687 45.5742 15.2666 45.5796 15.2635C45.6156 15.2468 45.6526 15.2312 45.6908 15.2177C45.7387 15.2 45.7877 15.1833 45.8378 15.1698H45.84C45.889 15.1563 45.9381 15.1448 45.9882 15.1355C46.0012 15.1334 46.0143 15.1313 46.0274 15.1292C46.0666 15.123 46.1058 15.1167 46.1461 15.1126C46.2006 15.1074 46.2562 15.1042 46.3128 15.1042C46.3695 15.1042 46.4196 15.1074 46.4719 15.1115C46.4991 15.1136 46.5263 15.1178 46.5525 15.1219C46.5743 15.125 46.5972 15.1282 46.6189 15.1313C46.6549 15.1375 46.6908 15.1448 46.7257 15.1532C46.7355 15.1552 46.7453 15.1584 46.7551 15.1604C46.7965 15.1708 46.8368 15.1823 46.876 15.1958C47.0024 15.2375 47.1212 15.2926 47.2323 15.3603C47.2323 15.3603 47.2323 15.3603 47.2334 15.3603C47.2671 15.3811 47.2998 15.4019 47.3314 15.4248C47.338 15.43 47.3445 15.4342 47.351 15.4394C47.3815 15.4613 47.411 15.4842 47.4393 15.5081C47.4447 15.5123 47.4491 15.5175 47.4545 15.5216C47.5384 15.5924 47.6147 15.6715 47.6822 15.7569C47.6942 15.7714 47.7062 15.7871 47.7182 15.8027C47.7334 15.8235 47.7487 15.8453 47.7639 15.8672C47.777 15.887 47.7901 15.9068 47.8021 15.9265C47.814 15.9463 47.8271 15.9671 47.838 15.9879C47.8533 16.015 47.8674 16.0441 47.8805 16.0723C47.887 16.0868 47.8957 16.1014 47.9023 16.116C47.9208 16.1586 47.9382 16.2034 47.9524 16.2482C47.9578 16.2638 47.9622 16.2804 47.9666 16.2971C47.9764 16.3294 47.9851 16.3616 47.9927 16.3939C47.9971 16.4116 48.0003 16.4293 48.0036 16.447C48.0101 16.4813 48.0156 16.5157 48.0199 16.55C48.0221 16.5656 48.0243 16.5823 48.0265 16.5979C48.0319 16.6489 48.0341 16.6999 48.0341 16.7509C48.0341 16.803 48.0308 16.854 48.0265 16.9039L48.0297 16.905Z" fill="white"/>
<path d="M62.5234 5.85547H63.7109V13.329C63.7109 14.7478 64.1064 15.8449 64.8984 16.6214C65.6893 17.3979 66.7733 17.7871 68.1481 17.7871C69.523 17.7871 70.5906 17.3989 71.3881 16.6214C72.1855 15.8449 72.5853 14.7467 72.5853 13.329V5.85547H73.7532V13.5133C73.7532 14.3637 73.6236 15.1256 73.3643 15.798C73.105 16.4704 72.7313 17.0408 72.2454 17.5092C71.7585 17.9776 71.1713 18.3388 70.4838 18.5918C69.7964 18.8447 69.0175 18.9706 68.1481 18.9706C67.2788 18.9706 66.5162 18.8436 65.8222 18.5918C65.1282 18.3388 64.5378 17.9787 64.0508 17.5092C63.5638 17.0408 63.188 16.4704 62.9222 15.798C62.6563 15.1256 62.5234 14.3647 62.5234 13.5133V5.85547Z" fill="white"/>
<path d="M88.3659 18.9703L83.7336 14.1177H80.3281V18.9703H79.1406V5.95508H84.298C86.0748 5.95508 87.4377 6.30586 88.3844 7.00533C89.3311 7.70585 89.805 8.71343 89.805 10.027C89.805 11.2292 89.4095 12.1744 88.6175 12.8624C87.8255 13.5504 86.6914 13.9564 85.212 14.0802L89.8627 18.9703H88.3648H88.3659ZM80.3281 6.95953V13.0956H84.2783C85.6924 13.0956 86.772 12.8478 87.5183 12.3513C88.2645 11.8559 88.6371 11.0804 88.6371 10.027C88.6371 8.97365 88.2645 8.24503 87.5183 7.73083C86.772 7.21663 85.699 6.95953 84.298 6.95953H80.3281Z" fill="white"/>
<path d="M93.2109 18.9703L99.5361 5.95508H100.684L107.01 18.9703H105.764L104.208 15.754H96.014L94.4572 18.9703H93.212H93.2109ZM103.72 14.7495L100.099 7.23745L96.4792 14.7495H103.718H103.72Z" fill="white"/>
<path d="M68.1517 8.6501C67.9806 8.6501 67.8412 8.51687 67.8412 8.35345C67.8412 7.13978 66.8073 6.15198 65.537 6.15198C65.366 6.15198 65.2266 6.01874 65.2266 5.85533C65.2266 5.69191 65.366 5.55867 65.537 5.55867C66.8073 5.55867 67.8412 4.57087 67.8412 3.3572C67.8412 3.19378 67.9806 3.06055 68.1517 3.06055C68.3227 3.06055 68.4621 3.19378 68.4621 3.3572C68.4621 4.57087 69.496 5.55867 70.7663 5.55867C70.9373 5.55867 71.0768 5.69191 71.0768 5.85533C71.0768 6.01874 70.9373 6.15198 70.7663 6.15198C69.496 6.15198 68.4621 7.13978 68.4621 8.35345C68.4621 8.51687 68.3227 8.6501 68.1517 8.6501ZM66.8476 5.85533C67.4098 6.12596 67.8684 6.56417 68.1517 7.10127C68.4349 6.56417 68.8936 6.12596 69.4557 5.85533C68.8936 5.5847 68.4349 5.14648 68.1517 4.60939C67.8684 5.14648 67.4098 5.5847 66.8476 5.85533Z" fill="white"/>
<path d="M22.3789 3.70347C19.9397 1.35107 16.69 0.036431 13.2256 0.00104089C13.1951 0 13.1646 0 13.1341 0H13.0829C13.023 0 12.9619 0 12.8977 0.00208177C9.44311 0.0478808 6.20208 1.36668 3.77267 3.717C1.33999 6.07253 0 9.19102 0 12.5C0 15.809 1.35524 18.966 3.81734 21.3246C5.01461 22.4717 6.40798 23.3741 7.9615 24.006C9.56949 24.6596 11.2777 24.9948 13.0404 25H13.1363C16.6202 24.9865 19.8929 23.6812 22.3528 21.3226C24.8127 18.9629 26.1679 15.8298 26.1679 12.5C26.1679 9.17021 24.8225 6.059 22.38 3.70347H22.3789ZM25.2713 12.0847C23.4357 12.016 21.649 11.5559 20.0377 10.7388C19.8373 10.6368 19.639 10.5296 19.444 10.4172C19.4157 10.1872 19.3819 9.95816 19.3449 9.73124C19.0366 7.88055 18.4167 6.1381 17.4994 4.5393C17.4035 4.37276 17.3044 4.2083 17.2031 4.04592C17.1355 3.93767 17.0658 3.83046 16.995 3.72429C16.7477 3.35269 16.484 2.99359 16.2062 2.64801C16.1267 2.54913 16.0461 2.45233 15.9644 2.35553C15.8413 2.21084 15.716 2.07032 15.5885 1.93084C15.5036 1.8382 15.4175 1.74765 15.3293 1.65709C15.1985 1.52282 15.0645 1.39062 14.9294 1.26155C14.8118 1.15018 14.6919 1.04089 14.571 0.934716C20.4474 1.62378 25.0589 6.34836 25.2724 12.0847H25.2713ZM11.8126 1.90794C11.8867 1.83716 11.9619 1.76742 12.0381 1.69873C12.0948 1.64668 12.1525 1.59568 12.2102 1.54467C12.3497 1.42289 12.4924 1.30319 12.6373 1.18765C12.6384 1.18765 12.6395 1.18557 12.6406 1.18453C12.6406 1.18661 12.6406 1.18765 12.6406 1.18973C12.6242 1.44579 12.5981 1.70081 12.5643 1.9527C12.1765 4.83908 10.6861 7.45066 8.36458 9.3253C8.15215 9.49704 7.93317 9.66255 7.70657 9.82076C7.75124 9.55637 7.80244 9.29511 7.86127 9.03593C7.92991 8.72887 8.00834 8.42597 8.09441 8.1262C8.12927 8.00545 8.16631 7.88471 8.20444 7.76605C8.22296 7.70672 8.24257 7.64635 8.26218 7.58702C8.3014 7.46836 8.3428 7.3497 8.38419 7.23312C8.46917 6.99788 8.5585 6.7668 8.65437 6.53781C8.70231 6.42331 8.75133 6.30985 8.80144 6.19744C8.8265 6.14123 8.85265 6.08502 8.87879 6.02881C8.95614 5.86123 9.03785 5.69573 9.12173 5.53127C9.20562 5.36785 9.29277 5.20547 9.38211 5.04622C9.44202 4.94005 9.50303 4.83387 9.56622 4.72979C9.722 4.46852 9.88651 4.21247 10.0586 3.96369C10.1621 3.81381 10.2678 3.66704 10.3767 3.52236C10.4497 3.42556 10.5227 3.33084 10.5979 3.23611C10.6731 3.14139 10.7493 3.04876 10.8267 2.95612C10.904 2.86452 10.9825 2.77292 11.062 2.6834C11.1818 2.54913 11.3038 2.41694 11.4291 2.28683C11.5119 2.20043 11.5969 2.11508 11.683 2.03181C11.7255 1.99017 11.769 1.94854 11.8126 1.9069V1.90794ZM11.5969 0.935757C10.4432 1.95374 9.43658 3.19344 8.64783 4.57574C8.58138 4.69127 8.5171 4.80889 8.45392 4.92651C8.39073 5.04413 8.32972 5.16175 8.2698 5.28146C8.06064 5.69781 7.86999 6.12353 7.69895 6.55654C7.6009 6.80427 7.51048 7.05513 7.4255 7.30806C7.4048 7.37155 7.38301 7.43505 7.36341 7.49854C7.3024 7.68903 7.24466 7.88159 7.19128 8.07519C7.17276 8.13973 7.15533 8.20426 7.13898 8.2688C7.10412 8.39891 7.07144 8.52902 7.04094 8.66017C6.95487 9.02344 6.88079 9.39191 6.81978 9.76455C6.78274 9.99042 6.75006 10.2184 6.72174 10.4474C6.52673 10.5587 6.32954 10.6649 6.12909 10.7659C6.00381 10.8283 5.87852 10.8887 5.75106 10.947C5.62469 11.0053 5.49831 11.0605 5.36976 11.1146C5.2423 11.1687 5.11266 11.2197 4.98302 11.2697C4.78801 11.3436 4.59192 11.4133 4.39364 11.4768C4.06355 11.584 3.728 11.6777 3.38919 11.7568C3.11793 11.8203 2.84448 11.8755 2.56886 11.9213C2.4305 11.9442 2.29214 11.965 2.15379 11.9837C2.01543 12.0025 1.87599 12.0181 1.73654 12.0316C1.59709 12.0451 1.45656 12.0566 1.31602 12.066C1.17658 12.0753 1.03713 12.0816 0.897684 12.0868C1.10903 6.35773 5.72274 1.62586 11.5969 0.935757ZM0.896595 12.9486C1.10685 12.9559 1.31711 12.9674 1.52628 12.984C1.66682 12.9955 1.80626 13.009 1.94571 13.0256C2.01543 13.034 2.08515 13.0423 2.15488 13.0517C2.29432 13.0704 2.43268 13.0912 2.57104 13.1141C2.70939 13.137 2.84666 13.162 2.98393 13.1901C3.18983 13.2317 3.39355 13.2775 3.59618 13.3285C4.47753 13.5513 5.33054 13.8688 6.14107 14.2758C6.34262 14.3767 6.54089 14.4839 6.73699 14.5963C6.76749 14.8274 6.80235 15.0564 6.84157 15.2833C6.84593 15.3083 6.85029 15.3333 6.85465 15.3572C6.87861 15.4915 6.90476 15.6258 6.93199 15.759C6.95923 15.8922 6.98864 16.0244 7.01915 16.1566C7.08016 16.421 7.1477 16.6823 7.22178 16.9415C7.25882 17.0705 7.29804 17.1996 7.33835 17.3276C7.37866 17.4557 7.42006 17.5837 7.46363 17.7107C7.48542 17.7742 7.50721 17.8377 7.53009 17.9001C7.57475 18.0261 7.6216 18.152 7.67062 18.2769C7.74361 18.4643 7.81987 18.6496 7.8994 18.8338C8.13907 19.3865 8.41034 19.9236 8.71429 20.4461C8.77965 20.5585 8.84611 20.6699 8.91474 20.7802C9.05092 21.0009 9.19363 21.2174 9.34071 21.4298C9.41479 21.5359 9.48887 21.6411 9.56513 21.7452C9.60326 21.7972 9.64139 21.8482 9.68061 21.9002C9.79718 22.0543 9.91592 22.2052 10.0379 22.3541C10.5532 22.9817 11.1165 23.5605 11.7189 24.0799C5.79028 23.4439 1.12864 18.7224 0.897684 12.9486H0.896595ZM13.5796 1.2272C13.7877 1.39479 13.9893 1.56966 14.1865 1.75077C14.6331 2.16192 15.0515 2.6043 15.4382 3.07582C15.5145 3.16846 15.5885 3.26214 15.6626 3.35686C15.7727 3.49842 15.8805 3.6431 15.9851 3.78987C16.0548 3.88771 16.1234 3.98659 16.191 4.08652C16.2248 4.13648 16.2585 4.18644 16.2912 4.23745C16.3577 4.33841 16.422 4.44042 16.4862 4.54243C16.6769 4.85053 16.8566 5.168 17.0244 5.49276C17.1366 5.70926 17.2423 5.92889 17.3436 6.15268C17.3687 6.20889 17.3937 6.26405 17.4188 6.32026C17.7903 7.16754 18.0844 8.06062 18.2958 8.98805C18.3557 9.24931 18.408 9.5137 18.4537 9.78121C18.5038 10.0737 18.5474 10.3693 18.5812 10.668C18.591 10.7503 18.5997 10.8335 18.6073 10.9168C18.6139 10.9824 18.6204 11.0469 18.6259 11.1125C18.6389 11.2613 18.6498 11.4102 18.6574 11.5601C18.6574 11.5642 18.6574 11.5694 18.6574 11.5736C18.6651 11.7183 18.6716 11.864 18.676 12.0087C18.6803 12.1586 18.6825 12.3074 18.6825 12.4573C18.6825 12.7946 18.6716 13.1339 18.6498 13.4711C18.9472 13.2973 19.2512 13.1349 19.5617 12.984C19.5671 12.8081 19.5704 12.6332 19.5704 12.4584C19.5704 12.3251 19.5682 12.1919 19.5649 12.0597C19.5595 11.8557 19.5508 11.6517 19.5388 11.4487C19.7262 11.5455 19.9168 11.6381 20.1086 11.7256C20.3112 11.8182 20.5149 11.9057 20.7219 11.9879C20.9507 12.0795 21.1827 12.1638 21.4159 12.2419C21.7274 12.3459 22.0434 12.4396 22.3626 12.5208C21.9617 12.6228 21.5673 12.7436 21.1784 12.882C20.8134 13.0121 20.4539 13.1589 20.102 13.3192C19.9092 13.4077 19.7185 13.5003 19.5301 13.5981C19.2566 13.7397 18.9886 13.8896 18.7261 14.0499C18.6814 14.0769 18.6378 14.104 18.5943 14.1321C18.3873 14.2612 18.1846 14.3965 17.9864 14.536C16.4971 15.5862 15.2465 16.9352 14.339 18.4778C13.9708 19.1034 13.6603 19.7581 13.4119 20.4336C13.2986 20.7407 13.1984 21.0519 13.1101 21.3663C12.9837 20.9135 12.8301 20.4669 12.6515 20.0308C12.4216 19.4698 12.1481 18.9243 11.8344 18.3997C11.5631 17.947 11.2624 17.5108 10.9345 17.0955C10.8528 16.9914 10.7689 16.8884 10.684 16.7874C10.599 16.6864 10.5118 16.5855 10.4236 16.4866C10.3354 16.3877 10.2449 16.2899 10.1534 16.1941C10.0619 16.0983 9.96821 16.0026 9.87452 15.9099C9.63812 15.6768 9.39191 15.4509 9.13699 15.2354C9.03458 15.1491 8.93217 15.0647 8.8265 14.9815C8.61515 14.8139 8.39836 14.6526 8.17612 14.4975C8.23277 14.918 8.30685 15.3323 8.39727 15.7403C8.4659 15.7965 8.53453 15.8527 8.60099 15.9089C8.69795 15.9911 8.79273 16.0744 8.88642 16.1598C9.12064 16.3721 9.34507 16.5928 9.55968 16.8207C9.64575 16.9123 9.72963 17.0039 9.81243 17.0976C9.97802 17.285 10.136 17.4765 10.2885 17.6722C10.3648 17.77 10.4388 17.8689 10.5118 17.9699C11.0925 18.7713 11.5653 19.6394 11.9183 20.5565C11.9847 20.7282 12.0468 20.902 12.1035 21.0769C12.1612 21.2518 12.2146 21.4287 12.2636 21.6067C12.2963 21.7254 12.3268 21.8451 12.3562 21.9648C12.4336 22.2864 12.4957 22.6132 12.5447 22.9432C12.5828 23.2003 12.6122 23.4605 12.6319 23.7218C12.621 23.7135 12.6101 23.7041 12.5992 23.6958C12.4009 23.5365 12.2092 23.371 12.0207 23.1993C11.8529 23.0463 11.6884 22.8891 11.5283 22.7267C11.4433 22.6414 11.3605 22.5539 11.2777 22.4654C11.1546 22.3333 11.0337 22.1979 10.9149 22.0605C10.7973 21.9231 10.6818 21.7826 10.5685 21.64C10.4181 21.4495 10.2733 21.2549 10.1327 21.0561C10.0979 21.0061 10.063 20.9562 10.0281 20.9062C9.9595 20.8052 9.89196 20.7043 9.8255 20.6012C9.79282 20.5502 9.75905 20.4982 9.72745 20.4472C9.66209 20.3441 9.5989 20.239 9.53571 20.1339C9.31674 19.7643 9.11411 19.3834 8.92891 18.992C8.87552 18.8796 8.82432 18.7672 8.77421 18.6537C8.62278 18.3134 8.48442 17.9647 8.35914 17.6097C8.29595 17.4317 8.23712 17.2527 8.18047 17.0716C8.14234 16.9508 8.10639 16.8301 8.07262 16.7073C8.05519 16.6458 8.03885 16.5855 8.02142 16.5241C7.98873 16.4012 7.95605 16.2784 7.92664 16.1546C7.91683 16.1129 7.90703 16.0702 7.89722 16.0286C7.83621 15.7663 7.78065 15.5019 7.73272 15.2344C7.67498 14.9107 7.62596 14.5828 7.58783 14.2518C7.58238 14.2008 7.57693 14.1498 7.57149 14.0988C7.54861 13.8813 7.53009 13.6616 7.51701 13.442C7.49632 13.1141 7.48542 12.7862 7.48542 12.4584C7.48542 12.1732 7.49305 11.888 7.5083 11.6048C7.43422 11.6475 7.35905 11.6902 7.28279 11.7318V11.7308C7.26318 11.7433 7.24357 11.7537 7.22287 11.7641L7.19999 11.7766C7.00281 11.8838 6.80344 11.9868 6.60081 12.0836C6.59754 12.2086 6.59645 12.3335 6.59645 12.4584C6.59645 12.6249 6.59972 12.7925 6.60408 12.9601C6.60844 13.1079 6.61497 13.2567 6.62369 13.4045C6.62696 13.4607 6.63022 13.5159 6.63458 13.5721C6.44611 13.4753 6.25546 13.3837 6.06372 13.2963C5.87417 13.2109 5.68243 13.1297 5.4896 13.0527C5.39482 13.0152 5.30004 12.9778 5.20417 12.9424C5.08324 12.8976 4.96123 12.8549 4.83921 12.8133C4.7379 12.779 4.63658 12.7456 4.53418 12.7134C4.30867 12.6426 4.08098 12.5781 3.8522 12.5198C4.00472 12.4813 4.15615 12.4396 4.30649 12.3949C4.45683 12.3512 4.60717 12.3043 4.75642 12.2544C4.90567 12.2054 5.05383 12.1534 5.19981 12.0982C5.4896 11.991 5.77721 11.8776 6.05719 11.7464C6.41452 11.5788 7.09323 11.2249 7.32092 11.0906C7.37975 11.0563 7.43749 11.0219 7.49523 10.9866C7.51592 10.9741 7.53553 10.9616 7.55623 10.9491C7.59327 10.9262 7.63031 10.9033 7.66735 10.8804C7.83295 10.7753 7.99636 10.667 8.15759 10.5556C8.16304 10.5515 8.16849 10.5483 8.17394 10.5442C8.28397 10.4672 8.394 10.388 8.50185 10.3079C9.04112 9.90611 9.54661 9.46478 10.014 8.98909C10.1077 8.89437 10.1992 8.79757 10.2896 8.69973C10.38 8.60188 10.4683 8.503 10.5554 8.40203C10.6426 8.30107 10.7275 8.2001 10.8114 8.09601C10.8953 7.99296 10.977 7.88888 11.0576 7.7827C11.0979 7.72962 11.1372 7.67653 11.1775 7.62345C11.2951 7.46315 11.4095 7.29973 11.5196 7.13423C11.6296 6.96873 11.7353 6.80011 11.8377 6.63044C12.0109 6.34004 12.1721 6.04234 12.3203 5.74049C12.3791 5.61974 12.4368 5.49796 12.4913 5.37514C12.5741 5.1909 12.6515 5.00458 12.7255 4.81722C12.8715 4.4425 12.999 4.0605 13.1079 3.67329C13.231 4.11254 13.3781 4.54451 13.5502 4.96815C13.7714 5.51253 14.0318 6.04234 14.3324 6.55342C15.2443 8.10642 16.5037 9.4627 18.0038 10.5171C17.9504 10.0976 17.8796 9.68336 17.7914 9.27638C15.521 7.41527 14.0568 4.84012 13.6603 2.00683C13.6243 1.74973 13.5971 1.49055 13.5786 1.22929M14.205 23.141C14.0056 23.3252 13.8008 23.5032 13.5895 23.675C13.6112 23.4095 13.6417 23.1462 13.6821 22.886C14.1058 20.1255 15.5461 17.617 17.7565 15.7913C17.9733 15.6123 18.1966 15.4405 18.4276 15.275C18.3775 15.5456 18.3208 15.8142 18.2576 16.0796C17.5942 18.8463 16.1779 21.3163 14.205 23.142V23.141ZM14.4501 24.0799C16.9699 21.9138 18.7021 18.8005 19.3187 15.3218C19.359 15.0928 19.395 14.8618 19.4266 14.6297C19.6227 14.5162 19.822 14.4079 20.0236 14.3049C21.6381 13.4826 23.4291 13.0204 25.2702 12.9517C25.0393 18.7235 20.3776 23.4449 14.4501 24.0809V24.0799Z" fill="white"/>
<path d="M16.3683 12.4997C16.3683 10.7687 14.8943 9.36035 13.0826 9.36035C11.2709 9.36035 9.79688 10.7687 9.79688 12.4997C9.79688 14.2307 11.2709 15.639 13.0826 15.639C14.8943 15.639 16.3683 14.2307 16.3683 12.4997ZM13.0815 14.7917C11.7589 14.7917 10.6826 13.7633 10.6826 12.4997C10.6826 11.236 11.7589 10.2076 13.0815 10.2076C14.404 10.2076 15.4804 11.236 15.4804 12.4997C15.4804 13.7633 14.404 14.7917 13.0815 14.7917Z" fill="white"/>
</svg>
