<svg xmlns="http://www.w3.org/2000/svg" version="1.1" xmlns:xlink="http://www.w3.org/1999/xlink" width="512" height="512" x="0" y="0" viewBox="0 0 405.333 405.333" style="enable-background:new 0 0 512 512" xml:space="preserve" class=""><g><path d="M0 202.668c0 111.93 90.738 202.664 202.668 202.664s202.664-90.734 202.664-202.664C405.332 90.738 314.598 0 202.668 0 90.738 0 0 90.738 0 202.668zm179.094-84.27 85.332 74.668a12.731 12.731 0 0 1 4.375 9.602c0 3.68-1.598 7.184-4.375 9.598l-85.332 74.668c-5.301 4.652-13.375 4.128-18.028-1.172-4.652-5.305-4.128-13.375 1.172-18.028l74.348-65.066-74.348-65.066c-5.3-4.657-5.824-12.727-1.172-18.028 4.653-5.304 12.727-5.828 18.028-1.176zm0 0" fill="#ffffff" opacity="1" data-original="#000000" class=""></path></g></svg>