<svg width="20" height="21" viewBox="0 0 20 21" fill="none" xmlns="http://www.w3.org/2000/svg">
<path d="M3.32812 13.8367V14.6667C3.32812 15.3297 3.59152 15.9656 4.06036 16.4344C4.5292 16.9033 5.16508 17.1667 5.82812 17.1667H14.1615C14.8245 17.1667 15.4604 16.9033 15.9292 16.4344C16.3981 15.9656 16.6615 15.3297 16.6615 14.6667V13.8333M9.99479 4.25V13.4167M9.99479 13.4167L12.9115 10.5M9.99479 13.4167L7.07812 10.5" stroke="#121112" stroke-width="1.5" stroke-linecap="round" stroke-linejoin="round"/>
<path d="M3.32812 13.8367V14.6667C3.32812 15.3297 3.59152 15.9656 4.06036 16.4344C4.5292 16.9033 5.16508 17.1667 5.82812 17.1667H14.1615C14.8245 17.1667 15.4604 16.9033 15.9292 16.4344C16.3981 15.9656 16.6615 15.3297 16.6615 14.6667V13.8333M9.99479 4.25V13.4167M9.99479 13.4167L12.9115 10.5M9.99479 13.4167L7.07812 10.5" stroke="black" stroke-opacity="0.2" stroke-width="1.5" stroke-linecap="round" stroke-linejoin="round"/>
</svg>
