<svg width="48" height="48" viewBox="0 0 48 48" fill="none" xmlns="http://www.w3.org/2000/svg">
<circle cx="24" cy="24" r="24" transform="matrix(-1 0 0 1 48 0)" fill="white" fill-opacity="0.4"/>
<g clip-path="url(#clip0_8043_53631)">
<path d="M15.9725 24.6784C15.7925 24.4984 15.6914 24.2542 15.6914 23.9997C15.6914 23.7451 15.7925 23.501 15.9725 23.321L21.4032 17.8902C21.4918 17.7986 21.5977 17.7254 21.7148 17.6751C21.8319 17.6248 21.9579 17.5983 22.0854 17.5972C22.2128 17.5961 22.3393 17.6204 22.4572 17.6687C22.5752 17.7169 22.6824 17.7882 22.7725 17.8783C22.8627 17.9685 22.934 18.0757 22.9822 18.1936C23.0305 18.3116 23.0548 18.438 23.0537 18.5655C23.0526 18.693 23.0261 18.8189 22.9758 18.9361C22.9255 19.0532 22.8523 19.1591 22.7606 19.2477L18.9686 23.0397L31.6819 23.0397C31.9365 23.0397 32.1807 23.1408 32.3607 23.3209C32.5408 23.5009 32.6419 23.7451 32.6419 23.9997C32.6419 24.2543 32.5408 24.4985 32.3607 24.6785C32.1807 24.8585 31.9365 24.9597 31.6819 24.9597L18.9686 24.9597L22.7606 28.7517C22.9355 28.9327 23.0323 29.1752 23.0301 29.4269C23.0279 29.6787 22.9269 29.9194 22.7489 30.0974C22.571 30.2754 22.3302 30.3764 22.0785 30.3786C21.8268 30.3808 21.5843 30.284 21.4032 30.1091L15.9725 24.6784Z" fill="#864E5E"/>
</g>
<defs>
<clipPath id="clip0_8043_53631">
<rect width="23.04" height="23.04" fill="white" transform="matrix(0 1 1 0 12.4805 12.48)"/>
</clipPath>
</defs>
</svg>
