<svg width="82" height="84" viewBox="0 0 82 84" fill="none" xmlns="http://www.w3.org/2000/svg">
<g filter="url(#filter0_d_7221_17368)">
<path fill-rule="evenodd" clip-rule="evenodd" d="M57.3529 43.84C57.3445 44.055 57.2565 44.2593 57.1059 44.4131C56.7397 44.7737 56.6847 45.3129 56.6708 45.6121C56.63 45.9673 56.5853 46.3205 56.5405 46.6735C56.4996 46.9967 56.4587 47.3197 56.4209 47.644C56.428 47.6605 56.4351 47.677 56.4421 47.6935C56.473 47.7655 56.5039 47.8374 56.5365 47.9084C56.6279 47.98 56.7119 48.0663 56.7933 48.1501C56.8403 48.1983 56.8863 48.2457 56.9325 48.2889C56.959 48.3137 56.9864 48.3386 57.0142 48.3638C57.1625 48.4982 57.3202 48.6413 57.3952 48.8257C57.5427 49.1795 57.2928 49.4647 56.9586 49.5727C56.9481 49.5981 56.9327 49.6212 56.9132 49.6405C56.8937 49.6598 56.8705 49.6751 56.8451 49.6854C55.579 50.221 54.3238 50.7738 53.095 51.3918C48.7699 53.5278 44.8421 56.3529 41.1927 59.49C41.1449 59.5313 41.0836 59.5538 41.0204 59.5532C40.9573 59.5526 40.8964 59.5291 40.8493 59.4869C35.0371 53.4075 29.4192 46.9734 24.876 39.8759C24.321 38.5722 24.5973 35.6739 25.2467 34.4343C29.5675 30.4202 34.9044 26.8994 40.3661 24.5589C40.6461 24.4384 40.957 24.4097 41.2543 24.4769C41.5517 24.5442 41.82 24.704 42.0208 24.9333C44.2064 27.4361 54.4213 39.9119 57.1514 43.2493C57.2895 43.4144 57.3613 43.6249 57.3529 43.84ZM55.136 43.8267C55.4537 43.6065 55.1341 43.1284 54.8091 43.3377H54.8091C54.4913 43.5579 54.8107 44.036 55.136 43.8267ZM40.7821 26.1075C41.1072 25.8982 41.4266 26.3763 41.1089 26.5966C40.7839 26.8059 40.4644 26.3278 40.7821 26.1075ZM27.3891 34.5578C27.8472 34.2721 28.2977 34.925 27.8499 35.2254C27.3916 35.5111 26.9412 34.8585 27.3891 34.5578ZM28.5186 43.5669C28.3543 42.5103 28.4515 41.4295 28.8017 40.4192C28.8351 40.3237 28.8442 40.2215 28.8282 40.1216C28.8122 40.0218 28.7717 39.9275 28.7103 39.8472L27.4623 38.2329C27.436 38.1989 27.4008 38.1727 27.3607 38.1571C27.3205 38.1416 27.2769 38.1373 27.2345 38.1447C27.1921 38.1521 27.1526 38.171 27.1201 38.1992C27.0876 38.2274 27.0634 38.2639 27.0501 38.3049C26.882 38.8184 26.6358 39.8097 26.6309 41.2222C26.6308 41.433 26.6967 41.6386 26.8193 41.8101L28.1692 43.7088C28.1945 43.7445 28.231 43.7706 28.2729 43.7828C28.3149 43.7951 28.3597 43.7928 28.4002 43.7764C28.4406 43.7599 28.4744 43.7303 28.4959 43.6923C28.5174 43.6543 28.5254 43.6101 28.5186 43.5669ZM37.1386 53.9747C37.1197 53.3127 37.2148 52.2629 37.7225 50.8397H37.7222C37.7605 50.734 37.769 50.6198 37.7467 50.5097C37.7244 50.3995 37.6723 50.2975 37.596 50.215L36.5172 49.0547C36.4795 49.0141 36.4324 48.9834 36.3801 48.9652C36.3277 48.947 36.2718 48.942 36.217 48.9505C36.1623 48.959 36.1105 48.9809 36.0661 49.0141C36.0218 49.0473 35.9863 49.091 35.9628 49.1411C35.5235 50.0941 35.2807 51.126 35.2491 52.1749C35.2419 52.3926 35.3173 52.605 35.4602 52.7693L36.6743 54.1547C36.7101 54.1957 36.7576 54.2246 36.8104 54.2376C36.8633 54.2506 36.9188 54.2471 36.9695 54.2274C37.0203 54.2077 37.0637 54.1729 37.0939 54.1277C37.1242 54.0825 37.1398 54.0291 37.1386 53.9747ZM40.5455 49.7495C40.6564 49.7627 40.7686 49.74 40.8658 49.6849H40.8655C41.5308 49.3021 42.4829 49.1642 43.276 49.5879C43.3672 49.6362 43.4705 49.6568 43.5733 49.647C43.6761 49.6373 43.7737 49.5976 43.8542 49.5329C45.5108 48.2124 47.2899 47.0499 49.1147 45.9723C50.0944 45.3742 51.2583 44.7799 52.3343 44.2304C52.5277 44.1317 52.7182 44.0344 52.9043 43.9388C52.9668 43.9069 53.0206 43.8601 53.0607 43.8026C53.1009 43.745 53.1263 43.6785 53.1347 43.6088C53.1804 43.1912 53.3434 42.7951 53.6049 42.4664C53.6653 42.3915 53.6985 42.2983 53.6992 42.2021C53.6998 42.1059 53.6679 42.0122 53.6085 41.9365C52.3337 40.2829 45.9817 32.0961 42.0703 28.0342C42.0181 27.9802 41.9532 27.9402 41.8815 27.9179C41.8097 27.8955 41.7336 27.8915 41.6599 27.9063C41.0935 28.0178 40.4307 27.9022 39.9689 27.5595C39.9024 27.5105 39.8236 27.4809 39.7413 27.4741C39.659 27.4672 39.5764 27.4834 39.5028 27.5208C36.2017 29.1901 33.0606 31.1584 30.1188 33.401C30.0499 33.4589 29.971 33.5154 29.8901 33.5732C29.5864 33.7904 29.2559 34.0268 29.3311 34.4295C29.4089 34.8678 29.3709 35.3187 29.2208 35.7378C29.1945 35.8307 29.145 35.9307 29.0936 36.0346C28.9561 36.3126 28.8043 36.6193 29.0424 36.897L29.0879 36.9539C32.5993 41.3515 36.1248 45.7667 40.2492 49.6116C40.3307 49.6879 40.4345 49.7363 40.5455 49.7495ZM42.0631 51.868C42.4789 51.5798 42.0608 50.9545 41.6356 51.2281H41.6353C41.2196 51.5163 41.6376 52.1421 42.0631 51.868ZM49.7908 50.6341C49.5233 50.623 49.2511 50.6117 49.0232 50.7732H49.0229C48.5573 51.0789 43.1629 54.9639 41.7753 56.0744C41.759 56.2319 41.7463 56.383 41.7367 56.525C43.7188 55.0869 48.9884 51.2652 50.0152 50.6396C49.9415 50.6404 49.8663 50.6372 49.7908 50.6341ZM41.7106 57.0497C41.7002 57.4025 41.7074 57.6252 41.7074 57.6252C41.7074 57.6252 49.0993 52.1902 51.6143 50.7133C51.3583 50.6791 51.1005 50.6592 50.8423 50.6538C49.2752 51.5828 44.0418 55.316 41.7106 57.0497ZM53.1315 49.6996C53.1321 49.6458 53.1326 49.604 53.1343 49.5839C53.17 49.1625 53.2047 48.7409 53.2385 48.3193C52.171 48.8628 51.1282 49.4497 50.1101 50.0801C50.7067 50.0633 51.2936 50.1255 51.8763 50.1872C52.2707 50.229 52.6633 50.2706 53.0556 50.2873C53.1252 50.2401 53.1293 49.8928 53.1315 49.6996ZM53.66 49.5464C54.2425 49.222 54.8275 48.9026 55.4147 48.5883C55.5881 48.4365 55.734 48.256 55.846 48.0546C55.1211 48.3581 54.4062 48.6821 53.7015 49.0266L53.66 49.5464ZM53.7334 48.6092C54.4545 48.2608 55.1854 47.9314 55.9289 47.6277C55.9527 47.438 55.9752 47.2481 55.9976 47.0583L55.9981 47.0547C55.3241 47.3326 54.6593 47.6292 54.0037 47.9445C53.7635 48.0492 53.7496 48.3101 53.7373 48.5405C53.7361 48.5638 53.7348 48.5867 53.7334 48.6092ZM41.8525 55.4764C47.6827 51.0516 50.9669 48.5637 56.0635 46.5103C56.0807 46.3539 56.0955 46.1963 56.1101 46.038C52.1831 47.5417 48.3055 50.0024 41.9299 55.0434C41.9003 55.1884 41.8748 55.3335 41.8525 55.4764ZM43.3242 53.4765C46.1592 51.1874 51.1085 47.1911 56.1581 45.5227H56.1578C56.1787 45.3149 56.2032 45.1077 56.2369 44.9033C48.3183 48.319 42.2343 53.9638 42.2343 53.9638C42.1703 54.1311 42.1144 54.3049 42.0648 54.4814C42.416 54.2099 42.8391 53.8682 43.3242 53.4765ZM41.6675 32.6397C40.7214 31.3822 40.2148 31.2943 38.7478 31.767C38.4461 31.8421 38.2708 31.4281 38.5372 31.2679C38.7219 31.1559 38.8993 31.0326 39.0687 30.8986C39.7428 30.369 39.2107 29.4603 38.7708 28.9726C38.6033 28.7836 38.8218 28.4588 39.0516 28.6087C39.2914 28.7968 39.4747 28.9897 39.6377 29.1611C40.1192 29.6674 40.4225 29.9864 41.4741 29.4431C41.7264 29.3169 42.0115 29.6409 41.787 29.8487C41.4317 30.1775 41.0221 30.5713 41.2866 31.0853C41.4277 31.3594 41.5972 31.6166 41.7666 31.8736C41.8672 32.0263 41.9678 32.1789 42.0624 32.335C42.2075 32.5749 41.8456 32.8662 41.6675 32.6397ZM41.686 43.642C41.7132 42.9419 41.4221 42.6633 41.4221 42.6633L39.7629 43.0148C39.8504 43.4511 39.8176 44.0222 39.4841 44.3079C39.4589 44.3326 39.4264 44.3486 39.3915 44.3534C39.3565 44.3582 39.3209 44.3517 39.29 44.3348C39.259 44.3178 39.2343 44.2914 39.2196 44.2593C39.2048 44.2272 39.2007 44.1913 39.208 44.1568C39.219 44.1072 39.2308 44.0574 39.2426 44.0075L39.2427 44.0074C39.3167 43.6953 39.3922 43.377 39.2844 43.0598C38.9669 43.0799 38.6674 43.0948 38.3608 43.1099L38.3607 43.1099C38.1321 43.1212 37.8996 43.1328 37.6529 43.1468C37.6599 43.6199 37.434 44.1564 37.014 44.3738C36.9786 44.3943 36.937 44.4014 36.8968 44.3941C36.8566 44.3867 36.8203 44.3653 36.7944 44.3336C36.7685 44.3019 36.7548 44.2621 36.7556 44.2212C36.7563 44.1803 36.7716 44.141 36.7987 44.1104C37.0234 43.8371 37.2185 43.5138 37.1969 43.1488C36.4952 43.1242 35.6176 42.9203 35.384 42.1738C35.042 41.4034 35.2523 39.6242 35.4638 38.8106C35.7187 37.8542 36.3783 36.2245 37.1468 35.602C37.3249 35.4676 37.5135 35.7066 37.4357 35.8756C37.3598 36.0408 37.2501 36.1898 37.1407 36.3384L37.1407 36.3384L37.1407 36.3384C37.0775 36.4243 37.0143 36.5101 36.9579 36.5988C36.5337 37.2628 36.2193 37.9909 36.0269 38.7551C36.0372 38.7634 36.0488 38.7699 36.0612 38.7745C37.9923 35.5098 40.1811 34.1642 43.8819 34.1274C43.8932 34.1267 43.9039 34.1222 43.9122 34.1144C43.9204 34.1067 43.9256 34.0963 43.927 34.0851C43.9283 34.0739 43.9257 34.0625 43.9195 34.0531C43.9134 34.0436 43.9041 34.0366 43.8932 34.0333C43.2636 33.8409 42.6092 33.7412 41.9508 33.7373C41.6708 33.7361 41.3938 33.7733 41.1175 33.8103C40.8468 33.8466 40.5768 33.8828 40.3055 33.8828C40.115 33.8828 40.007 33.6067 40.1924 33.5072C41.7174 32.8592 43.8871 33.3061 45.3073 34.0693C45.3462 34.0903 45.3863 34.1116 45.4274 34.1335C45.8777 34.3733 46.4429 34.6743 46.6907 35.0999C46.9908 35.6156 46.8252 36.5088 46.7475 36.8814C46.966 36.845 47.1783 36.7777 47.3778 36.6814C47.5413 36.5963 47.7222 36.7943 47.5871 36.9375C47.3313 37.1981 46.9904 37.3582 46.6265 37.3887C46.5346 37.8616 46.3799 38.3201 46.1666 38.752C46.4386 38.8593 46.7327 38.8985 47.0234 38.8662C47.061 38.8656 47.0978 38.8772 47.1282 38.8994C47.1586 38.9216 47.1809 38.9531 47.1917 38.9892C47.2026 39.0252 47.2014 39.0638 47.1883 39.0991C47.1752 39.1344 47.1509 39.1644 47.1192 39.1846C46.9326 39.2896 46.724 39.3493 46.5102 39.3589C46.2963 39.3685 46.0832 39.3277 45.888 39.2398C45.5881 39.774 45.2173 40.2651 44.7855 40.6997C44.9798 40.8968 45.243 40.9681 45.5021 41.0383C45.5604 41.0541 45.6185 41.0699 45.6756 41.087C45.7134 41.0976 45.7469 41.1201 45.7711 41.1511C45.7952 41.1821 45.8089 41.22 45.81 41.2593C45.8111 41.2986 45.7996 41.3373 45.7771 41.3696C45.7547 41.4019 45.7226 41.4262 45.6854 41.4389C45.2537 41.6177 44.74 41.4033 44.3841 41.0742C43.7143 41.6454 42.9546 42.1019 42.1359 42.4252C42.2593 42.8628 42.2627 43.3491 41.9956 43.7168C41.9127 43.8313 41.6788 43.8266 41.686 43.642ZM43.3041 35.5013C43.2684 35.4999 43.2324 35.4997 43.1961 35.5007C42.9709 35.5069 42.7495 35.5601 42.546 35.6568C42.3425 35.7535 42.1614 35.8917 42.0144 36.0624C41.8673 36.2332 41.7576 36.4327 41.6921 36.6483C41.6266 36.8639 41.6069 37.0908 41.6342 37.3144C41.8784 39.1284 44.5257 39.2651 44.8071 37.3216C44.8112 37.2966 44.8237 37.2736 44.8425 37.2565C44.8613 37.2394 44.8854 37.2291 44.9107 37.2274C44.9361 37.2256 44.9613 37.2325 44.9823 37.2469C45.0033 37.2613 45.0188 37.2823 45.0263 37.3066C45.1568 37.7697 45.188 38.2552 45.1179 38.7312C45.1153 38.7481 45.1186 38.7653 45.1272 38.7801C45.1357 38.7949 45.1491 38.8064 45.165 38.8126C45.1809 38.8188 45.1985 38.8194 45.2148 38.8142C45.2311 38.8091 45.2451 38.7986 45.2547 38.7845C45.7193 38.0832 46.0636 36.9384 46.2028 36.024C46.2282 35.8572 46.1964 35.6867 46.1126 35.5402C46.0287 35.3938 45.8977 35.2801 45.741 35.2176C44.6881 34.7751 43.5622 34.585 42.4434 34.7296C42.4261 34.7314 42.4101 34.7391 42.3979 34.7514C42.3857 34.7637 42.3781 34.7799 42.3764 34.7971C42.3747 34.8144 42.379 34.8317 42.3886 34.8461C42.3982 34.8605 42.4124 34.8712 42.429 34.8764C42.7576 34.9762 43.0728 35.1156 43.3676 35.2916C43.3892 35.3046 43.4058 35.3243 43.4149 35.3478C43.4239 35.3713 43.4248 35.3971 43.4176 35.4212C43.4103 35.4452 43.3952 35.4662 43.3746 35.4807C43.3541 35.4952 43.3293 35.5025 43.3041 35.5013ZM37.0841 38.1381C36.5395 38.9488 36.0847 39.8508 35.9579 40.8271C35.7452 43.0146 38.0611 42.7021 39.3293 42.5309C39.5875 42.4961 39.8022 42.4671 39.9433 42.4663C39.9606 42.464 39.9766 42.4558 39.9885 42.4431C40.0004 42.4303 40.0075 42.4138 40.0085 42.3964C40.0096 42.379 40.0046 42.3618 39.9944 42.3477C39.9841 42.3336 39.9693 42.3235 39.9524 42.3191C38.9358 42.0623 38.0233 41.4176 37.5297 40.4586C37.2275 39.8716 37.2119 38.6968 37.2218 38.1816C37.222 38.1654 37.217 38.1496 37.2076 38.1364C37.1981 38.1233 37.1846 38.1135 37.1692 38.1086C37.1537 38.1038 37.1371 38.104 37.1218 38.1093C37.1065 38.1146 37.0933 38.1247 37.0841 38.1381ZM43.3238 48.5401C43.5019 48.7665 43.8638 48.4753 43.7187 48.2354C43.6241 48.0792 43.5234 47.9265 43.4227 47.7738L43.4227 47.7737C43.2534 47.5168 43.0839 47.2597 42.9429 46.9857C42.6784 46.4717 43.088 46.0779 43.4433 45.7491C43.6678 45.5413 43.3827 45.2173 43.1303 45.3435C42.0789 45.8868 41.7754 45.5677 41.2938 45.0613C41.1309 44.89 40.9475 44.6972 40.7079 44.5091C40.4781 44.3592 40.2596 44.684 40.4271 44.8729C40.8669 45.3606 41.3991 46.2697 40.725 46.799C40.5556 46.933 40.3781 47.0563 40.1935 47.1682C39.9271 47.3284 40.1023 47.7424 40.4039 47.6674C41.8707 47.1945 42.3777 47.2824 43.3238 48.5401Z" fill="url(#paint0_linear_7221_17368)"/>
</g>
<defs>
<filter id="filter0_d_7221_17368" x="0.470982" y="0.334263" width="81.0756" height="83.3261" filterUnits="userSpaceOnUse" color-interpolation-filters="sRGB">
<feFlood flood-opacity="0" result="BackgroundImageFix"/>
<feColorMatrix in="SourceAlpha" type="matrix" values="0 0 0 0 0 0 0 0 0 0 0 0 0 0 0 0 0 0 127 0" result="hardAlpha"/>
<feOffset/>
<feGaussianBlur stdDeviation="12.0536"/>
<feComposite in2="hardAlpha" operator="out"/>
<feColorMatrix type="matrix" values="0 0 0 0 0.79589 0 0 0 0 0.670508 0 0 0 0 1 0 0 0 0.6 0"/>
<feBlend mode="normal" in2="BackgroundImageFix" result="effect1_dropShadow_7221_17368"/>
<feBlend mode="normal" in="SourceGraphic" in2="effect1_dropShadow_7221_17368" result="shape"/>
</filter>
<linearGradient id="paint0_linear_7221_17368" x1="26.8421" y1="48.0482" x2="57.8899" y2="36.4313" gradientUnits="userSpaceOnUse">
<stop stop-color="#8363C8"/>
<stop offset="0.515" stop-color="#CFB1FF"/>
<stop offset="1" stop-color="#8E57C5"/>
</linearGradient>
</defs>
</svg>
