<svg width="74" height="78" viewBox="0 0 74 78" fill="none" xmlns="http://www.w3.org/2000/svg">
<g filter="url(#filter0_d_7221_17409)">
<path fill-rule="evenodd" clip-rule="evenodd" d="M31.448 41.0504C31.187 41.1619 30.9603 41.3408 30.7914 41.5689C25.6762 49.1272 16.8391 38.6917 24.066 33.798C24.3046 33.6172 24.623 33.9452 24.4396 34.1784C24.4221 34.2023 22.6806 36.6068 23.3925 38.3004C23.4062 38.3364 23.4317 38.3668 23.4647 38.3868C23.4978 38.4067 23.5365 38.415 23.5748 38.4103C23.8633 38.3803 23.7602 37.7514 23.6905 37.5451C23.5721 36.766 25.188 37.2765 25.3622 39.2194C25.3908 40.3272 26.5545 40.4084 26.8363 40.3796C26.4039 40.1073 26.1811 39.6122 26.1148 39.3068C26.1049 39.2583 26.1084 39.208 26.125 39.1614C26.1416 39.1148 26.1706 39.0736 26.2089 39.0422C26.2472 39.0108 26.2933 38.9905 26.3423 38.9835C26.3912 38.9764 26.4412 38.9828 26.4868 39.0021C26.6631 39.0823 26.8546 39.1235 27.0483 39.1229C27.2419 39.1223 27.4332 39.08 27.609 38.9988C27.9389 38.8665 28.2769 38.7552 28.6209 38.6655C28.4054 38.4473 28.2555 38.173 28.188 37.8738C28.1206 37.5746 28.1383 37.2626 28.2393 36.973C26.4865 35.9138 24.7673 33.9842 25.9099 31.0591C25.6518 30.3995 25.0339 27.7053 26.614 27.1251C26.4948 26.3287 26.2244 23.7628 27.5536 23.0613C27.8613 22.899 28.1525 22.8846 28.4022 23.0136C28.5466 22.5087 28.9306 22.0737 29.4922 22.2504C29.6664 22.3014 29.8164 22.4136 29.9144 22.5664C30.0125 22.7192 30.0519 22.9024 30.0256 23.082C29.2361 29.303 32.4974 32.4059 37.2825 33.188C37.2949 32.875 37.4389 32.3727 38.1445 32.0155C37.8303 30.3364 37.8743 29.0384 39.0831 28.7992C39.1903 27.6739 39.7438 26.7876 40.699 26.6923C41.0937 25.1033 41.9289 24.8366 42.3465 24.8075C43.2637 22.0948 44.7031 21.9581 45.3691 22.061C45.7001 21.6886 46.1148 21.4001 46.5791 21.2194C47.4079 20.8992 48.1207 21.9519 47.5103 22.599C46.4801 23.724 44.7729 26.0155 44.9134 28.7262C44.9614 29.5583 44.9441 30.3929 44.8615 31.2222C44.8486 31.3346 44.8033 31.4409 44.7312 31.5281C44.6591 31.6153 44.5633 31.6797 44.4553 31.7135C43.6403 31.9752 42.9277 32.4857 42.4177 33.1733C42.3791 33.2328 42.3655 33.3052 42.3797 33.3747C42.394 33.4442 42.4351 33.5053 42.4941 33.5447C42.5531 33.5842 42.6252 33.5988 42.6949 33.5855C42.7646 33.5722 42.8263 33.532 42.8665 33.4735C42.899 33.4255 44.5811 31.7555 46.0115 32.2073C46.7527 31.727 47.3599 31.6795 47.7755 31.7465C47.9483 31.5287 48.6737 30.6773 49.0097 30.7302C49.212 30.7647 49.3786 31.1704 49.5288 31.8207C49.8214 31.8381 50.1052 31.9271 50.3553 32.0799C50.6054 32.2326 50.8141 32.4445 50.9632 32.6968C51.4273 33.4667 52.3373 33.3033 52.3464 33.3016C52.3925 33.2934 52.44 33.2972 52.4843 33.3127C52.5285 33.3282 52.568 33.3549 52.5988 33.3902C52.6297 33.4255 52.6509 33.4682 52.6604 33.5141C52.6699 33.56 52.6674 33.6075 52.6531 33.6522C52.4389 34.2951 51.9736 34.5417 51.6103 34.6084C51.6169 35.2007 51.4761 35.6806 51.194 36.0419C51.2157 37.5991 51.3236 38.1329 51.3862 38.3124C51.7057 39.1484 51.705 40.1255 50.947 40.7324L49.9952 41.5147C49.9469 41.5545 49.8862 41.5763 49.8237 41.5762C49.4179 41.4671 49.0705 41.1532 48.7929 40.8868C48.3729 40.4398 48.2934 39.9768 48.2125 39.5053C48.1144 38.9337 48.0141 38.3494 47.3021 37.7657C45.7793 38.7214 45.9467 41.4657 45.9753 41.9347C45.9775 41.9706 45.9788 41.9932 45.9786 42.0006C45.9108 42.989 45.6101 43.7865 45.0828 44.3755C45.3076 44.6524 45.6027 44.8638 45.9372 44.9875C46.3846 45.1388 46.8157 45.3347 47.2238 45.5724C47.3711 45.6566 47.4994 45.7703 47.6008 45.9064C47.7021 46.0424 47.7743 46.1979 47.8128 46.3631C47.9145 46.8265 47.7684 47.1093 47.589 47.4568C47.3763 47.8688 47.1166 48.3717 47.1678 49.3742C47.1772 49.6247 47.1075 49.8718 46.9686 50.0805C46.8297 50.2892 46.6287 50.4489 46.3939 50.537L45.838 50.7458C44.8085 51.273 44.1502 51.6355 44.1194 51.6524L44.1183 51.653C44.08 51.6737 44.0372 51.6849 43.9937 51.6856C43.9501 51.6863 43.907 51.6765 43.868 51.6571C43.8291 51.6377 43.7953 51.6092 43.7696 51.574C43.7439 51.5388 43.7271 51.498 43.7205 51.4549C43.6083 50.3398 43.6683 49.1412 44.7615 48.9546L45.3091 48.8767C45.4267 48.8131 45.9319 48.4794 45.7411 47.5218C45.6529 47.0786 45.3253 46.8496 44.6792 46.7793C44.2888 46.7377 43.9307 46.5432 43.6834 46.2383C43.4547 45.9527 43.2046 45.685 42.9352 45.4374C42.7989 45.453 42.6867 45.4587 42.6088 45.4602C41.2797 46.7614 41.4951 48.3536 41.7465 49.196C41.895 49.6982 41.9077 50.2308 41.7835 50.7396C41.7604 50.8483 41.738 50.9497 41.7167 51.0458C41.5947 51.5982 41.5112 51.9758 41.5549 52.5545C41.6593 53.759 41.2812 54.447 41.1036 54.6978C41.2041 55.6155 40.7587 56.6359 40.7394 56.6794C40.7182 56.7273 40.6836 56.7679 40.6398 56.7965C40.5959 56.8251 40.5447 56.8403 40.4924 56.8403C39.4274 56.513 38.078 55.1326 39.0668 54.0656C39.2487 53.8735 39.399 53.6537 39.5119 53.4145C40.2751 51.367 39.5411 49.501 39.0352 48.5705C38.7555 48.0558 38.6592 47.4612 38.7622 46.8845C38.8392 46.459 38.882 46.028 38.8902 45.5957C38.3472 45.5853 37.8053 45.5444 37.2669 45.4733L37.2685 45.4978C37.3166 46.2401 37.3632 46.9585 36.9396 47.5583C36.064 48.7988 35.9116 50.0179 36.6218 50.8243C37.5112 51.7616 37.5301 54.3246 37.2205 54.5923C36.8838 54.7834 35.9007 54.2372 35.6173 53.9894C35.066 53.5626 35.0784 52.9366 35.0906 52.3173C35.0932 52.1859 35.0958 52.0548 35.093 51.9259C34.3761 51.2222 33.6953 49.9726 34.1277 49.1164C34.7339 47.8014 34.3958 46.6977 34.3255 46.4987C34.1204 46.2431 33.9032 45.9524 33.6892 45.6322C31.6298 46.5847 32.3025 49.1586 32.3707 49.3994C32.9148 50.6085 32.5749 51.8065 32.56 51.8569C32.5464 51.9014 32.5216 51.9417 32.488 51.9739C32.4544 52.0061 32.413 52.0291 32.3679 52.0407C32.3228 52.0524 32.2755 52.0522 32.2305 52.0403C32.1855 52.0284 32.1443 52.0051 32.1109 51.9727L30.8753 50.748C30.2607 50.2013 30.4532 49.1723 30.5644 48.5781C30.5776 48.5078 30.5896 48.4436 30.599 48.387L30.501 46.3053C30.4904 46.0716 30.5361 45.8387 30.6343 45.6263C30.7325 45.4139 30.8803 45.2282 31.0652 45.0849C32.3352 44.0999 32.3172 42.6466 32.2748 42.1833C32.2127 41.7694 32.2133 41.3486 32.2767 40.9349C31.9951 40.8991 31.7091 40.939 31.448 41.0504ZM28.189 41.5419C27.1241 42.419 25.9963 43.3479 24.7533 43.3215C26.9244 44.325 28.7218 43.4062 30.3606 41.2436C30.3629 40.8042 30.2695 40.4668 30.1201 40.2057C29.4924 40.4683 28.8529 40.995 28.189 41.5419ZM32.1494 37.1116C31.6317 36.9098 30.8203 36.5426 30.5271 36.4011C30.5894 37.7695 31.7386 38.6585 33.2567 39.0007C33.0579 38.8171 32.9043 38.5899 32.8079 38.337C32.7115 38.0841 32.675 37.8124 32.7011 37.543C32.4819 37.4511 32.2914 37.3022 32.1494 37.1116ZM36.9732 39.4923C37.7656 39.4982 38.3353 39.2794 38.6771 38.6742C37.5786 38.7622 36.8383 37.4204 37.5084 36.5425C37.2823 35.5785 36.4111 34.8576 35.4319 34.6213C33.8944 34.2369 32.5849 33.6258 31.5135 32.7963C30.9484 34.1187 32.8601 35.1352 33.1978 35.2391C33.7657 35.4371 34.3467 35.5952 34.9367 35.7122C35.5146 35.8323 36.0637 36.0635 36.5536 36.3929C36.8457 36.5976 36.5469 37.0337 36.2517 36.8407C35.8217 36.5512 35.3396 36.3479 34.8322 36.242C34.3085 36.1378 33.7913 36.0032 33.2833 35.8388C33.0639 36.6893 33.7584 36.9661 34.1928 36.9908C34.2565 36.9961 35.7614 37.1331 36.5405 38.0234C36.7694 38.2908 36.3717 38.6442 36.1341 38.379C35.6124 37.7827 34.6222 37.5938 34.2732 37.5443C33.8306 38.2485 34.692 39.4378 36.9732 39.4923ZM47.0446 34.1948C46.9615 34.4793 46.8451 34.753 46.6979 35.0102H46.6981C46.6098 35.2906 46.5557 35.5807 46.5369 35.874L46.6305 36.4953C46.6457 36.594 46.6857 36.6872 46.747 36.7661C46.8082 36.845 46.8886 36.907 46.9805 36.9461C47.5872 37.2104 48.6286 37.9121 48.7877 39.6423C48.8355 40.2519 49.2769 40.6911 49.7919 40.9833L50.6043 40.3156C51.1851 39.8575 51.1061 39.107 50.8762 38.4906C50.76 38.1577 50.6898 37.4997 50.6625 36.4861C50.2 36.7143 49.7849 36.7605 49.835 36.3116C50.1518 35.2512 49.6388 34.6929 49.079 34.4016C49.0735 34.4114 49.068 34.4216 49.0624 34.4319C48.9928 34.5603 48.9079 34.7167 48.7443 34.7086C48.6965 34.708 48.6497 34.6949 48.6086 34.6704C48.5675 34.6459 48.5336 34.6111 48.5103 34.5693C48.487 34.5275 48.4752 34.4804 48.476 34.4326C48.4767 34.3848 48.4901 34.338 48.5147 34.297C49.3093 33.0058 49.0446 31.8993 48.8502 31.4064C48.0364 32.0695 47.6191 32.988 47.4698 33.3774C47.3647 33.6171 47.4476 33.9366 47.6444 34.0614C47.9329 34.2653 47.6249 34.7049 47.3348 34.5039C47.2217 34.4176 47.1236 34.3132 47.0446 34.1948ZM42.7569 38.9396C42.4095 39.1495 41.7762 38.4135 41.6761 38.2303C41.0287 39.43 39.6892 40.1865 39.5282 39.8969C39.4905 39.8614 39.4638 39.8159 39.4512 39.7657C39.4386 39.7155 39.4408 39.6627 39.4573 39.6136C39.6188 39.1687 39.6718 38.6917 39.6118 38.2222C39.5317 38.3132 39.4397 38.3929 39.3382 38.4592C39.2388 38.8389 39.0351 39.1832 38.7501 39.4532C38.2048 40.1257 38.1543 41.068 38.1538 41.0783C38.1312 41.4326 37.6051 41.4085 37.6143 41.0547C37.6417 40.6688 37.7268 40.2891 37.8668 39.9283C37.0568 40.1667 35.7099 39.9609 35.1146 39.685C34.5507 39.6687 33.9863 39.6819 33.4238 39.7244C32.9201 40.3014 32.7052 41.0322 32.7852 41.8998C32.818 41.9597 32.8269 42.0299 32.8098 42.0961C33.0334 43.7927 34.0357 45.2545 34.8122 46.2589C34.8361 46.3158 35.3888 47.6713 34.6184 49.3428C34.51 49.5764 34.4966 49.8428 34.5811 50.086C34.8763 50.8413 35.3543 51.9996 36.6035 51.8593C36.5254 51.6105 36.3951 51.3812 36.2214 51.1867C35.924 50.8674 35.7316 50.4648 35.6698 50.033C35.586 49.3892 35.6632 48.3818 36.505 47.2385C36.856 46.7586 36.7662 45.8028 36.7053 45.3829C34.2775 44.8385 33.9727 42.1341 33.9699 42.1063C33.9634 42.0355 33.9851 41.965 34.0303 41.9101C34.0754 41.8552 34.1404 41.8203 34.2111 41.813C34.2818 41.8057 34.3525 41.8266 34.4079 41.8712C34.4634 41.9157 34.499 41.9803 34.507 42.0509C34.5177 42.1511 34.7908 44.5065 36.9724 44.8861C37.5029 44.9674 38.0373 45.0212 38.5734 45.047C38.2197 44.5071 38.0815 43.8541 38.186 43.2171C38.2666 42.871 38.7821 42.9831 38.7142 43.3293C38.6648 43.6581 38.6963 43.9939 38.8061 44.3077C38.9159 44.6215 39.1005 44.9038 39.3441 45.1301C39.3931 45.1782 39.4228 45.2426 39.4274 45.3111C39.442 45.871 39.3972 46.431 39.2937 46.9815C39.2124 47.4371 39.2885 47.9069 39.5097 48.3135C40.0531 49.3133 40.8379 51.3099 40.0459 53.5275C40.0973 53.691 40.2688 54.109 40.7198 54.303C40.8601 54.0708 41.0975 53.5289 41.0171 52.602C40.9532 51.9687 41.0976 51.3291 41.2305 50.7402C41.2401 50.6976 41.2496 50.6553 41.2591 50.6133C41.3608 50.1974 41.3505 49.7619 41.2292 49.3512C40.9374 48.3729 40.6905 46.5057 42.3177 44.9928C42.3349 44.9768 42.8931 44.4528 43.2115 43.2072C43.2199 43.1724 43.235 43.1395 43.2561 43.1106C43.2772 43.0817 43.3038 43.0573 43.3344 43.0388C43.365 43.0203 43.399 43.008 43.4344 43.0028C43.4698 42.9975 43.5059 42.9993 43.5406 43.0081C43.5752 43.0169 43.6078 43.0325 43.6364 43.054C43.665 43.0755 43.6891 43.1025 43.7071 43.1334C43.7252 43.1642 43.737 43.1984 43.7418 43.2339C43.7465 43.2693 43.7442 43.3054 43.7349 43.3399C43.605 43.8798 43.3897 44.3956 43.0971 44.8675C43.6402 44.7518 43.7872 44.6794 44.5402 44.1603C45.0682 43.6583 45.3703 42.9268 45.4382 41.9859C45.4126 41.6994 45.2386 39.3274 46.3192 37.9368C45.6361 37.3695 45.9049 36.3237 46.0211 36.0775C45.6614 35.9062 45.3803 35.6045 45.235 35.2335C44.6991 36.1324 44.5527 37.1604 44.551 37.1726C44.5444 37.2202 44.5253 37.2653 44.4956 37.303C44.4658 37.3408 44.4265 37.3699 44.3818 37.3874C44.337 37.4049 44.2884 37.4102 44.2409 37.4026C44.1934 37.395 44.1489 37.3749 44.1118 37.3443C43.752 37.0564 43.4626 36.6904 43.2654 36.274C42.8401 37.4293 42.8778 38.6894 42.8784 38.7044C42.88 38.7507 42.8697 38.7967 42.8484 38.8379C42.8271 38.8791 42.7956 38.9141 42.7569 38.9396ZM28.2504 23.5666C28.1474 23.4611 28.0241 23.4236 27.8055 23.5388C26.237 24.6862 27.469 30.1132 30.1829 32.7929C30.1966 32.6777 30.239 32.5552 30.2821 32.4304C30.3817 32.1422 30.4856 31.8416 30.2517 31.5905C30.0137 31.3097 29.7948 31.0134 29.5965 30.7034C29.5573 30.6442 29.5421 30.5723 29.5539 30.5022C29.5658 30.4322 29.6038 30.3693 29.6604 30.3263C29.6902 30.3051 29.724 30.2902 29.7597 30.2824C29.7955 30.2747 29.8325 30.2744 29.8684 30.2814C29.9043 30.2884 29.9384 30.3026 29.9686 30.3232C29.9988 30.3438 30.0245 30.3704 30.0442 30.4012C31.2107 32.23 33.0674 33.4735 35.5626 34.0974C36.5423 34.3358 37.4231 34.9842 37.8416 35.8704C37.9508 36.1173 38.1627 36.139 38.3888 36.1622C38.4941 36.173 38.6024 36.1842 38.705 36.2185C39.0426 36.3271 38.8902 36.8325 38.5483 36.7353C38.1636 36.6185 38.0103 36.7769 38.0103 36.7769C37.2155 37.748 38.8756 38.6984 39.4468 37.584C40.2395 35.9561 39.3688 34.0327 36.159 33.48C32.5355 32.8628 28.5743 29.4868 29.4899 23.015C29.499 22.961 29.4878 22.9055 29.4582 22.8593C29.4287 22.8131 29.383 22.7796 29.3301 22.7653C28.5361 22.5793 28.4696 26.336 29.0113 28.0357C29.1015 28.3759 28.5865 28.5193 28.4903 28.1774C27.9198 25.8832 28.1107 24.423 28.2504 23.5666ZM26.2753 28.2775L26.2696 28.2885C25.7757 30.8071 27.7028 34.6834 31.8758 36.4259C31.85 36.2189 31.8551 36.0093 31.8909 35.8038C31.8909 35.8038 30.2427 35.0272 30.1413 33.436C28.017 31.7864 26.8858 28.4801 26.7101 27.6793C26.5358 27.7763 26.375 28.0857 26.2753 28.2775ZM26.2156 31.8479C25.8893 33.0867 26.1468 34.2233 26.9856 35.2346C27.9984 36.3782 28.9016 36.75 29.768 37.1067C29.8948 37.1589 30.0208 37.2108 30.1463 37.2647C30.0164 36.8982 29.9655 36.5084 29.9971 36.1208C28.0502 34.9608 26.9848 33.481 26.2156 31.8479ZM27.6734 40.5307C27.0343 40.9262 26.3416 41.2277 25.6166 41.4259C24.5131 41.7201 23.5355 41.6697 22.7339 41.2852C24.2531 43.9704 26.0584 42.5402 27.8604 41.1127C28.4978 40.6078 29.1347 40.1032 29.7585 39.7811C29.2515 39.3732 28.5583 39.3373 28.2237 39.3476C28.0672 39.3908 27.9543 39.4404 27.8483 39.4871C27.6141 39.5901 27.413 39.6785 26.8469 39.6511C27.0524 39.9665 27.2778 39.999 27.4599 40.0253C27.6085 40.0468 27.7281 40.0641 27.7845 40.2276C27.8012 40.2833 27.7993 40.343 27.7793 40.3976C27.7593 40.4522 27.7222 40.4989 27.6734 40.5307ZM29.1967 29.0664C28.8094 29.073 28.8095 29.6492 29.1967 29.6557C29.584 29.6492 29.584 29.0732 29.1967 29.0664ZM48.9668 35.7756C49.2314 36.0099 48.8765 36.4131 48.6106 36.1814L48.3824 35.9811C48.118 35.7469 48.4723 35.3436 48.7387 35.5753L48.9668 35.7756ZM50.3295 39.6538C50.7169 39.6472 50.7168 39.071 50.3295 39.0645C49.9422 39.0706 49.9423 39.6469 50.3295 39.6538Z" fill="url(#paint0_linear_7221_17409)"/>
</g>
<defs>
<filter id="filter0_d_7221_17409" x="0.672672" y="0.496891" width="72.6566" height="77.0066" filterUnits="userSpaceOnUse" color-interpolation-filters="sRGB">
<feFlood flood-opacity="0" result="BackgroundImageFix"/>
<feColorMatrix in="SourceAlpha" type="matrix" values="0 0 0 0 0 0 0 0 0 0 0 0 0 0 0 0 0 0 127 0" result="hardAlpha"/>
<feOffset/>
<feGaussianBlur stdDeviation="10.3316"/>
<feComposite in2="hardAlpha" operator="out"/>
<feColorMatrix type="matrix" values="0 0 0 0 0.79589 0 0 0 0 0.670508 0 0 0 0 1 0 0 0 0.6 0"/>
<feBlend mode="normal" in2="BackgroundImageFix" result="effect1_dropShadow_7221_17409"/>
<feBlend mode="normal" in="SourceGraphic" in2="effect1_dropShadow_7221_17409" result="shape"/>
</filter>
<linearGradient id="paint0_linear_7221_17409" x1="23.4945" y1="45.149" x2="53.5381" y2="34.6021" gradientUnits="userSpaceOnUse">
<stop stop-color="#8363C8"/>
<stop offset="0.515" stop-color="#CFB1FF"/>
<stop offset="1" stop-color="#8E57C5"/>
</linearGradient>
</defs>
</svg>
