<svg width="76" height="72" viewBox="0 0 76 72" fill="none" xmlns="http://www.w3.org/2000/svg">
<g filter="url(#filter0_d_7221_17418)">
<path fill-rule="evenodd" clip-rule="evenodd" d="M38.2966 21.6406V27.1531C38.2868 27.5344 37.7296 27.5313 37.7206 27.1531V21.6406C37.7206 21.5642 37.751 21.4909 37.805 21.4369C37.859 21.3829 37.9322 21.3526 38.0086 21.3526C38.085 21.3526 38.1583 21.3829 38.2123 21.4369C38.2663 21.4909 38.2966 21.5642 38.2966 21.6406ZM33.334 46.9888C32.9319 46.4885 33.0206 45.6404 33.5318 45.2516H33.5315C32.0716 44.2892 30.9608 42.8818 30.3641 41.2381C29.7675 39.5944 29.7166 37.8022 30.2192 36.1273C30.7218 34.4525 31.751 32.9843 33.1541 31.9408C34.5572 30.8972 36.2593 30.3338 38.008 30.3343C46.0124 30.3225 49.1192 40.8535 42.5433 45.2138C43.094 45.5903 43.2065 46.4703 42.7896 46.9894C42.9924 47.0673 43.1734 47.1932 43.3171 47.3563C43.4607 47.5194 43.5628 47.7148 43.6145 47.9259C43.6736 48.1274 43.7738 48.3145 43.9089 48.4752C44.4 49.0468 44.0262 50.016 43.2768 50.1019C41.5782 50.3525 39.8635 50.4776 38.1466 50.4763C36.3774 50.4751 34.6105 50.3471 32.8596 50.0933C32.1063 50.0099 31.7334 49.0416 32.2211 48.4667C32.3531 48.3079 32.4511 48.1237 32.5091 47.9255C32.5608 47.7144 32.6629 47.5189 32.8065 47.3558C32.9502 47.1927 33.1311 47.0668 33.334 46.9888ZM39.9544 49.8531C40.0879 49.8125 40.2175 49.7695 40.3111 49.6429C40.4596 49.4415 40.5126 49.1386 40.4897 48.8952C40.4353 48.3115 40.0018 48.1572 39.5105 48.0712C37.7278 48.3528 34.9938 47.9264 34.1196 47.4849C33.7858 47.3541 33.2265 47.4645 33.0658 48.0727C32.9878 48.3475 32.854 48.6033 32.6726 48.8241C32.624 48.8845 32.5923 48.9567 32.5808 49.0334C32.5693 49.1101 32.5785 49.1884 32.6074 49.2604C32.6342 49.3302 32.6795 49.3915 32.7383 49.4378C32.7972 49.484 32.8674 49.5135 32.9416 49.5231C35.2629 49.8608 37.6117 49.9713 39.9544 49.8531ZM33.7687 45.8368C33.6914 45.9508 33.6517 46.0861 33.6549 46.2238C33.6566 46.3695 33.7036 46.5111 33.7893 46.629C33.875 46.7469 33.9952 46.8352 34.1333 46.8817C34.3809 47.0489 39.0293 48.4063 39.3684 46.8799C39.3568 46.7126 39.3099 46.5211 39.0783 46.5278C37.3565 46.7546 35.6073 46.4252 34.086 45.5877C33.9569 45.6357 33.846 45.7227 33.7687 45.8368ZM40.1125 31.4026C48.0042 33.7649 44.7789 45.2835 37.1446 44.9518C25.9438 43.668 30.3226 28.6988 40.1125 31.4026ZM49.3165 38.1756C48.938 38.1848 48.9356 38.7418 49.3165 38.7516H54.8292C55.206 38.7456 55.2092 38.1822 54.8292 38.1756H49.3165ZM26.6919 38.7516H21.1793C20.7981 38.7417 20.8012 38.1846 21.1793 38.1756H26.6919C26.7683 38.1756 26.8415 38.206 26.8956 38.26C26.9496 38.314 26.9799 38.3872 26.9799 38.4636C26.9799 38.54 26.9496 38.6133 26.8956 38.6673C26.8415 38.7213 26.7683 38.7516 26.6919 38.7516ZM25.9068 50.5664C25.9336 50.5931 25.9653 50.6143 26.0003 50.6288C26.0352 50.6433 26.0727 50.6507 26.1105 50.6507C26.1483 50.6507 26.1858 50.6433 26.2207 50.6288C26.2557 50.6143 26.2874 50.5931 26.3141 50.5664L30.2121 46.6683C30.4761 46.4026 30.0734 45.9949 29.8048 46.2611L25.9068 50.1591C25.8529 50.2131 25.8225 50.2864 25.8225 50.3627C25.8225 50.4391 25.8529 50.5123 25.9068 50.5664ZM49.7026 50.5657L45.8046 46.6678C45.5383 46.3991 45.9462 45.9966 46.2119 46.2605L50.1099 50.1585C50.1371 50.1851 50.1588 50.2169 50.1737 50.252C50.1886 50.287 50.1963 50.3247 50.1965 50.3628C50.1967 50.4009 50.1894 50.4387 50.1749 50.4739C50.1604 50.5091 50.1391 50.5411 50.1122 50.5681C50.0852 50.595 50.0532 50.6163 50.018 50.6308C49.9827 50.6453 49.945 50.6526 49.9069 50.6524C49.8688 50.6522 49.8311 50.6444 49.7961 50.6295C49.761 50.6146 49.7292 50.593 49.7026 50.5657ZM30.2098 30.2625L26.3119 26.3642C26.2577 26.3112 26.1848 26.2817 26.1089 26.2821C26.0331 26.2825 25.9605 26.3128 25.9069 26.3664C25.8533 26.42 25.823 26.4926 25.8225 26.5685C25.8221 26.6443 25.8516 26.7172 25.9046 26.7714L29.8025 30.6694C30.0687 30.9338 30.4757 30.5305 30.2098 30.2625ZM33.137 26.2673C33.3602 25.9207 32.8503 25.5802 32.6156 25.919C32.3922 26.2655 32.9023 26.6061 33.137 26.2673ZM33.8951 28.0878C34.1183 27.7413 33.6084 27.4007 33.3737 27.7395C33.1505 28.0861 33.6603 28.4265 33.8951 28.0878ZM50.2048 33.6011C50.5514 33.8243 50.892 33.3144 50.5532 33.0797C50.2066 32.8565 49.866 33.3664 50.2048 33.6011ZM48.7311 33.8348C48.3846 33.6116 48.044 34.1214 48.3828 34.3562C48.7294 34.5789 49.0699 34.0692 48.7311 33.8348ZM43.1908 26.4005C43.5936 26.3131 43.474 25.7119 43.0684 25.7854C42.6656 25.8727 42.7853 26.474 43.1908 26.4005ZM42.4327 28.2209C42.8355 28.1337 42.7159 27.5324 42.3103 27.6059C41.9075 27.6932 42.0271 28.2945 42.4327 28.2209ZM50.6863 43.528C50.599 43.1252 49.9977 43.2449 50.0713 43.6504C50.1585 44.0532 50.7598 43.9335 50.6863 43.528ZM48.8643 42.7745C48.777 42.3716 48.1757 42.4913 48.2493 42.8969C48.3366 43.2996 48.9379 43.18 48.8643 42.7745ZM25.3274 33.4016C25.4147 33.8044 26.0159 33.6848 25.9424 33.2792C25.8551 32.8764 25.2538 32.9961 25.3274 33.4016ZM27.1494 34.1567C27.2367 34.5595 27.838 34.4398 27.7644 34.0343C27.6771 33.6315 27.0759 33.7512 27.1494 34.1567ZM23.274 44.4953L21.7659 44.2361C21.4609 44.1883 21.4492 43.7388 21.7479 43.6721L23.254 43.3135C23.4967 43.2549 23.7181 43.1294 23.8932 42.9514C24.0682 42.7734 24.1899 42.5499 24.2445 42.3063L24.6333 40.5423C24.6957 40.2411 25.1425 40.2491 25.1971 40.5486L25.5521 42.3486C25.6057 42.6198 25.7425 42.8676 25.9435 43.0575C26.1445 43.2474 26.3996 43.3699 26.6735 43.4081L28.1743 43.6172C28.4851 43.6561 28.5046 44.1136 28.2022 44.1824L26.6216 44.5649C26.3588 44.6293 26.1217 44.7721 25.9419 44.9743C25.762 45.1765 25.6478 45.4286 25.6144 45.6971L25.3408 47.9539C25.3045 48.2791 24.8231 48.2885 24.7711 47.9683L24.3591 45.5794C24.312 45.3088 24.1825 45.0595 23.9882 44.8654C23.794 44.6714 23.5445 44.5421 23.274 44.4953ZM26.5947 43.9789C25.5356 43.8107 25.0207 43.0247 24.8992 42.0133C24.769 42.9693 24.2392 43.7207 23.2502 43.9067C24.3751 44.0754 24.8964 44.8571 25.0051 45.9358C25.0372 44.9784 25.6324 44.1641 26.5947 43.9789ZM51.0095 28.5541L49.5674 28.0887C49.3044 28.0036 49.0744 27.8388 48.9093 27.6171C48.7443 27.3953 48.6524 27.1277 48.6465 26.8513L48.6079 25.0171C48.6059 24.7126 48.1672 24.6275 48.0535 24.9135L47.3658 26.5839C47.2699 26.8144 47.1114 27.0134 46.9083 27.1585C46.7051 27.3035 46.4654 27.3888 46.2162 27.4047L44.6708 27.4975C44.365 27.5119 44.2989 27.9564 44.5911 28.0561L46.0316 28.5716C46.29 28.6645 46.5134 28.835 46.6712 29.0598C46.829 29.2846 46.9134 29.5526 46.913 29.8272L46.9058 32.2515C46.9017 32.5755 47.3775 32.6497 47.4694 32.3358L48.1286 30.1602C48.2079 29.9014 48.364 29.6729 48.5762 29.5048C48.7883 29.3367 49.0466 29.237 49.3166 29.219L50.9396 29.1154C51.2494 29.1 51.3092 28.646 51.0095 28.5541ZM47.4876 30.2898C47.5668 29.2086 47.1885 28.3486 46.1097 27.988C47.116 27.9758 47.7677 27.3274 48.0609 26.4083C48.0059 27.4255 48.3772 28.2885 49.3913 28.6371C48.4117 28.6532 47.6847 29.3525 47.4876 30.2898ZM34.0933 40.0805C33.9019 39.9031 33.4668 39.5288 33.446 39.5124C32.9894 39.3466 32.5491 39.4842 32.1354 39.7057C32.0079 39.7615 31.8136 39.6325 31.9176 39.4879C32.0819 39.2595 32.362 39.1 32.6688 39.0238C32.4328 38.9123 32.1859 38.8254 31.932 38.7646C31.6108 38.8066 31.5256 38.2817 31.8407 38.2214C31.9326 38.204 32.0215 38.1821 32.1083 38.157C32.8245 37.7344 33.2719 37.1567 33.7222 36.5754C34.3291 35.7918 34.9412 35.0015 36.2234 34.5754C36.275 34.5582 36.3313 34.5613 36.3807 34.5841C36.4301 34.6069 36.469 34.6476 36.4894 34.6981C36.5099 34.7485 36.5103 34.8049 36.4907 34.8556C36.4711 34.9064 36.4328 34.9478 36.3838 34.9714C35.926 35.1887 35.4803 35.4231 35.0891 35.749C34.8557 35.959 34.6382 36.186 34.4384 36.4282C34.4277 36.4409 34.422 36.457 34.4226 36.4736C34.4231 36.4902 34.4298 36.506 34.4413 36.5179C34.4528 36.5299 34.4683 36.5371 34.4848 36.5382C34.5014 36.5394 34.5178 36.5343 34.5308 36.5241C34.6076 36.4641 34.6823 36.4068 34.7455 36.3603C36.955 34.7199 39.5868 34.9737 41.466 36.9753C41.4879 36.9955 41.5164 37.0071 41.5462 37.008C41.576 37.0089 41.6051 36.9989 41.6282 36.9801C41.6512 36.9612 41.6667 36.9346 41.6717 36.9052C41.6767 36.8758 41.671 36.8456 41.6555 36.8201C41.3897 36.3725 41.0584 35.9672 40.6726 35.6177C40.4003 35.3804 40.1044 35.2412 39.8014 35.0987C39.6494 35.0272 39.4956 34.9549 39.3422 34.8689C39.1725 34.7739 39.3324 34.4366 39.5015 34.4697C40.8995 34.7294 41.4458 35.6127 41.9833 36.4816C42.4142 37.1785 42.8395 37.8661 43.6938 38.2154C43.9431 38.3133 43.914 38.7267 43.6584 38.7793C43.3918 38.8305 43.1333 38.9173 42.8898 39.0374C43.1675 39.1053 43.4147 39.2639 43.5923 39.488C43.6965 39.6329 43.502 39.7619 43.3745 39.7059C43.0052 39.5159 42.5823 39.3493 42.17 39.4866C41.9376 39.6606 41.7145 39.851 41.4898 40.0427C41.4735 40.0567 41.4571 40.0706 41.4408 40.0846C41.7789 40.1356 42.0851 40.3132 42.2972 40.5814C42.4137 40.726 42.2692 40.9457 42.092 40.8474C41.7044 40.5892 41.3399 40.3529 40.8647 40.5573C40.8281 40.5853 40.234 40.993 39.9547 41.137C40.2342 41.2721 40.4519 41.5084 40.5639 41.7979C40.6096 41.9238 40.439 42.0606 40.3288 41.9786C40.2474 41.9146 40.1714 41.8407 40.0952 41.7667C39.9109 41.5877 39.7255 41.4076 39.4601 41.3621C39.0143 41.5414 38.5454 41.6568 38.0674 41.7049C38.0691 42.017 38.0455 42.3288 37.9967 42.6371C37.9908 42.6714 37.9729 42.7024 37.9463 42.7247C37.9197 42.7471 37.8861 42.7593 37.8514 42.7593C37.8167 42.7593 37.783 42.7471 37.7565 42.7247C37.7299 42.7024 37.712 42.6714 37.7061 42.6371C37.6582 42.3355 37.6345 42.0305 37.6353 41.7251C37.0611 41.7221 36.4931 41.607 35.963 41.3863C35.7411 41.4452 35.5826 41.6018 35.4246 41.7579C35.346 41.8356 35.2675 41.9131 35.1814 41.9785C35.0705 42.061 34.9008 41.9228 34.9463 41.7978C35.0499 41.5271 35.2477 41.303 35.5034 41.1665C35.1952 40.9757 34.8974 40.7687 34.6111 40.5464C34.1557 40.3611 33.7863 40.5985 33.4182 40.8472C33.2397 40.9463 33.0978 40.7247 33.213 40.5812C33.4303 40.3064 33.746 40.1268 34.0933 40.0805ZM40.1083 37.3872C39.3724 36.9534 38.3471 37.4717 38.27 38.3342H38.2697C38.1347 39.3326 39.2705 40.0598 40.1133 39.563C40.137 39.5506 40.164 39.5461 40.1905 39.5501C40.2169 39.554 40.2414 39.5662 40.2605 39.585C40.2796 39.6038 40.2922 39.6281 40.2965 39.6545C40.3008 39.6809 40.2967 39.708 40.2847 39.7319C40.0812 40.1416 39.7818 40.4961 39.4119 40.7653C40.0769 40.495 40.6145 40.0333 41.1528 39.571C41.6158 39.1733 42.0794 38.7751 42.6251 38.4979C42.0263 38.2294 41.5377 37.7903 41.0509 37.3528C40.5408 36.8945 40.0327 36.4378 39.4019 36.181C39.7766 36.4509 40.0799 36.8081 40.2855 37.2216C40.2975 37.246 40.3014 37.2736 40.2965 37.3004C40.2916 37.3272 40.2783 37.3516 40.2584 37.3702C40.2385 37.3888 40.2132 37.4005 40.1861 37.4035C40.1591 37.4066 40.1318 37.4009 40.1083 37.3872ZM36.2869 40.8979C34.6571 39.9667 34.4402 37.4934 35.9459 36.3014C35.3376 36.5727 34.8377 37.0041 34.3372 37.436C33.8779 37.8322 33.4183 38.2289 32.8741 38.5026C33.4732 38.7745 33.9663 39.2153 34.4576 39.6544C35.0181 40.1554 35.5763 40.6543 36.2869 40.8979Z" fill="url(#paint0_linear_7221_17418)"/>
</g>
<defs>
<filter id="filter0_d_7221_17418" x="0.231266" y="0.68932" width="75.5453" height="70.6263" filterUnits="userSpaceOnUse" color-interpolation-filters="sRGB">
<feFlood flood-opacity="0" result="BackgroundImageFix"/>
<feColorMatrix in="SourceAlpha" type="matrix" values="0 0 0 0 0 0 0 0 0 0 0 0 0 0 0 0 0 0 127 0" result="hardAlpha"/>
<feOffset/>
<feGaussianBlur stdDeviation="10.3316"/>
<feComposite in2="hardAlpha" operator="out"/>
<feColorMatrix type="matrix" values="0 0 0 0 0.79589 0 0 0 0 0.670508 0 0 0 0 1 0 0 0 0.6 0"/>
<feBlend mode="normal" in2="BackgroundImageFix" result="effect1_dropShadow_7221_17418"/>
<feBlend mode="normal" in="SourceGraphic" in2="effect1_dropShadow_7221_17418" result="shape"/>
</filter>
<linearGradient id="paint0_linear_7221_17418" x1="23.2521" y1="41.0518" x2="53.5123" y2="26.9229" gradientUnits="userSpaceOnUse">
<stop stop-color="#8363C8"/>
<stop offset="0.515" stop-color="#CFB1FF"/>
<stop offset="1" stop-color="#8E57C5"/>
</linearGradient>
</defs>
</svg>
