<svg width="84" height="84" viewBox="0 0 84 84" fill="none" xmlns="http://www.w3.org/2000/svg">
<g filter="url(#filter0_d_7221_17378)">
<path fill-rule="evenodd" clip-rule="evenodd" d="M41.7188 27.4801V24.5956C41.7284 24.2174 42.282 24.2189 42.2912 24.5956V27.4801C42.2816 27.8583 41.728 27.8568 41.7188 27.4801ZM36.2448 41.8335C36.1489 49.6376 45.9249 53.7725 51.4473 48.2672C51.6865 48.0361 52.0609 48.3546 51.8679 48.6288C50.7883 50.1397 49.3642 51.3715 47.7136 52.2222C46.063 53.0729 44.2334 53.5179 42.3765 53.5204C26.9786 53.0324 26.9788 30.7039 42.3765 30.2151C46.0117 30.1885 49.5336 31.9719 51.7012 34.879C51.9042 35.1427 51.5296 35.4799 51.2895 35.2507C50.0097 34.0681 48.413 33.2842 46.6946 32.995C44.9763 32.7058 43.2109 32.9238 41.6145 33.6223C40.0181 34.3208 38.66 35.4695 37.7063 36.9279C36.7526 38.3862 36.2447 40.091 36.2448 41.8335ZM51.3567 43.3584C51.5295 43.4662 51.4164 43.7769 51.2127 43.6994C50.6478 43.4844 50.1732 43.0596 49.8081 42.5812C49.608 42.7018 49.4188 42.826 49.2296 42.9502L49.2295 42.9502C48.9547 43.1306 48.6799 43.311 48.3719 43.4805C48.4904 44.0102 48.7886 44.4566 49.1472 44.8576C49.2751 45.0272 49.0307 45.2415 48.8651 45.1396C48.4294 44.8714 48.0305 44.2553 47.9262 43.7045C47.2578 44.0049 46.5376 44.1729 45.8054 44.1993C45.8076 44.3121 45.8134 44.4253 45.8191 44.5386L45.8191 44.5388L45.8191 44.5389L45.8191 44.5391L45.8191 44.5393L45.8191 44.5394L45.8191 44.5396L45.8192 44.5397L45.8192 44.5399L45.8192 44.54L45.8192 44.5402L45.8192 44.5403L45.8192 44.5405L45.8192 44.5406L45.8192 44.5408L45.8192 44.541L45.8192 44.5411L45.8192 44.5413L45.8192 44.5414L45.8192 44.5416L45.8192 44.5417L45.8192 44.5419L45.8192 44.542L45.8192 44.5422L45.8193 44.5423C45.8345 44.8441 45.8498 45.1463 45.8013 45.4423C45.7501 45.6799 45.3865 45.6706 45.3298 45.4423C45.2728 45.1509 45.2794 44.8487 45.2859 44.5484V44.5484V44.5483V44.5482V44.5482V44.5481V44.548V44.548V44.5479V44.5478V44.5478V44.5477V44.5477V44.5476V44.5475V44.5475V44.5474V44.5474V44.5473V44.5473V44.5472V44.5472V44.5471V44.5471V44.547C45.2884 44.4326 45.2909 44.3185 45.2898 44.2054C44.5891 44.1834 43.899 44.0274 43.257 43.7458C43.141 44.2857 42.751 44.8782 42.3262 45.1396C42.1608 45.2415 41.9164 45.027 42.0442 44.8576C42.3853 44.4685 42.6915 44.0431 42.8029 43.5311C42.3604 43.3027 41.9938 43.0651 41.6209 42.8234C41.5271 42.7627 41.433 42.7016 41.3371 42.6404C40.9775 43.0949 40.519 43.4936 39.9776 43.6997C39.7716 43.778 39.6625 43.4653 39.8336 43.3587C40.2692 43.0873 40.6551 42.8103 40.9686 42.4208C40.4512 42.1268 39.9926 41.9209 39.8834 41.8719L39.8834 41.8718C39.8694 41.8656 39.8612 41.8619 39.8593 41.8609C39.4429 42.0077 39.0061 42.0555 38.6491 41.9313C38.5051 41.8811 38.4794 41.6506 38.6491 41.6124L38.7087 41.6019C39.2776 41.5017 39.8485 41.4012 40.3313 41.0541C40.6948 40.7675 41.0029 40.4127 41.3108 40.0583C41.5187 39.8189 41.7266 39.5796 41.9513 39.3614C42.6263 38.6953 43.4029 38.1384 44.316 37.8566C44.6369 37.7575 44.7733 38.2603 44.4542 38.3579C43.3458 38.702 42.4738 39.4894 41.7302 40.3564C44.2247 38.5014 47.2454 38.7038 49.541 40.5038C48.6199 39.2936 47.9709 38.6121 46.4508 38.2273C46.4101 38.2148 46.3751 38.1882 46.3522 38.1523C46.3292 38.1163 46.3198 38.0734 46.3255 38.0312C46.3312 37.989 46.3517 37.9501 46.3834 37.9216C46.415 37.893 46.4558 37.8767 46.4984 37.8754C47.9563 37.8356 48.8203 38.8423 49.6854 39.8503C50.1555 40.3981 50.626 40.9463 51.1924 41.3272C51.5275 41.6439 51.1547 41.8375 50.667 42.0906C50.5086 42.1728 50.3382 42.2613 50.1759 42.3624C50.497 42.7829 50.8996 43.0737 51.3567 43.3584ZM43.0161 43.0127C42.8421 42.7282 42.7287 42.4108 42.6831 42.0804C42.6015 41.4733 42.7723 40.7438 43.1423 40.1736C42.7374 40.375 42.3515 40.6205 41.9716 40.8621L41.9715 40.8622L41.9714 40.8622L41.9714 40.8622L41.9714 40.8622C41.5281 41.1441 41.0929 41.4209 40.6451 41.6167C41.0704 41.8152 41.4958 42.0859 41.9281 42.361C42.2849 42.588 42.6463 42.8179 43.0161 43.0127ZM47.6369 41.9259C48.0355 41.4145 47.9841 42.8836 47.8771 43.11L47.8772 43.1105C48.2886 42.8968 48.7111 42.6251 49.1274 42.3575L49.1274 42.3574L49.1274 42.3574L49.1275 42.3574L49.1275 42.3574L49.1275 42.3574C49.5506 42.0854 49.9672 41.8176 50.3589 41.619C49.9656 41.4333 49.5403 41.1592 49.1046 40.8783L49.1046 40.8783L49.1046 40.8783C48.6423 40.5804 48.1684 40.2749 47.7088 40.0597C47.8486 40.3361 48.0986 41.0768 47.8816 41.3279C47.8577 41.3478 47.8297 41.3621 47.7995 41.3696C47.7693 41.377 47.7378 41.3776 47.7074 41.3711C47.677 41.3647 47.6485 41.3514 47.6239 41.3323C47.5994 41.3133 47.5795 41.2889 47.5658 41.261C47.4664 41.0561 47.2993 40.8918 47.0928 40.7959C46.8863 40.7 46.6529 40.6784 46.4323 40.7347C46.2117 40.791 46.0173 40.9218 45.882 41.105C45.7467 41.2881 45.6788 41.5124 45.6898 41.7399C45.7608 42.8768 47.3667 43.0158 47.6369 41.9259ZM42.2834 59.4018V56.5174C42.284 56.4794 42.2771 56.4417 42.263 56.4064C42.2489 56.3712 42.2279 56.3391 42.2012 56.312C42.1746 56.285 42.1428 56.2635 42.1078 56.2488C42.0728 56.2341 42.0352 56.2266 41.9972 56.2266C41.9592 56.2266 41.9216 56.2341 41.8866 56.2488C41.8516 56.2635 41.8198 56.285 41.7932 56.312C41.7665 56.3391 41.7456 56.3712 41.7314 56.4064C41.7173 56.4417 41.7104 56.4794 41.711 56.5174V59.4018C41.7205 59.7785 42.2741 59.7801 42.2834 59.4018ZM27.7662 42.0011C27.7662 41.9252 27.736 41.8524 27.6824 41.7987C27.6287 41.745 27.5559 41.7149 27.48 41.7149H24.5955C24.5575 41.7143 24.5198 41.7212 24.4846 41.7353C24.4493 41.7495 24.4172 41.7705 24.3901 41.7971C24.3631 41.8237 24.3416 41.8555 24.3269 41.8905C24.3122 41.9255 24.3047 41.9631 24.3047 42.0011C24.3047 42.0391 24.3122 42.0767 24.3269 42.1117C24.3416 42.1467 24.3631 42.1785 24.3901 42.2051C24.4172 42.2318 24.4493 42.2528 24.4846 42.2669C24.5198 42.281 24.5575 42.288 24.5955 42.2874H27.48C27.5559 42.2874 27.6287 42.2572 27.6824 42.2035C27.7361 42.1498 27.7662 42.077 27.7662 42.0011ZM59.401 42.2873H56.5165C56.1396 42.2808 56.1411 41.721 56.5165 41.7148H59.401C59.778 41.7213 59.7764 42.2812 59.401 42.2873ZM52.323 32.0423C52.3606 32.0423 52.3978 32.0349 52.4325 32.0206C52.4673 32.0062 52.4988 31.985 52.5254 31.9584L57.0104 27.4734C57.2726 27.2096 56.8728 26.8038 56.6056 27.0686L52.1206 31.5536C52.0814 31.5939 52.0548 31.6449 52.0442 31.7001C52.0336 31.7554 52.0394 31.8125 52.061 31.8645C52.0825 31.9165 52.1188 31.961 52.1653 31.9926C52.2119 32.0242 52.2667 32.0415 52.323 32.0423ZM31.8893 52.6102L27.4043 57.0952C27.1328 57.3575 26.7388 56.9595 26.9995 56.6903L31.4846 52.2053C31.7517 51.9406 32.1516 52.3463 31.8893 52.6102ZM56.6025 57.0945C56.8669 57.357 57.2721 56.9564 57.0073 56.6896L52.5222 52.2046C52.2583 51.9425 51.8526 52.3423 52.1175 52.6095L56.6025 57.0945ZM31.89 31.5529C32.1548 31.8197 31.7497 32.2203 31.4852 31.9577L27.0003 27.4728C26.7354 27.2055 27.1411 26.8058 27.405 27.0679L31.89 31.5529ZM35.3904 26.8062L36.1781 28.7079C36.3244 29.0535 36.8486 28.8343 36.707 28.4887L35.9196 26.5871C35.7699 26.2424 35.2522 26.4557 35.3904 26.8062ZM35.1015 25.133C34.7093 25.218 34.8258 25.8033 35.2205 25.7318C35.6128 25.6467 35.4963 25.0614 35.1015 25.133ZM47.8334 55.3644C47.6841 55.0198 47.1662 55.2329 47.3045 55.5835L48.0922 57.4853C48.2386 57.8309 48.7627 57.6118 48.6211 57.2662L47.8334 55.3644ZM49.0845 58.868C49.4142 58.6395 49.0827 58.1432 48.7453 58.3604C48.4158 58.5889 48.747 59.0852 49.0845 58.868ZM55.5587 36.6915L57.4604 35.9038C57.8051 35.7544 57.5918 35.2363 57.2414 35.3749L55.3397 36.1625C54.9937 36.3164 55.208 36.8275 55.5587 36.6915ZM58.3264 35.2108C58.4113 35.603 58.9968 35.4865 58.9251 35.0917C58.8402 34.6995 58.2547 34.816 58.3264 35.2108ZM26.8006 48.6094L28.7024 47.8217C29.047 47.6723 28.8338 47.1544 28.4833 47.2928L26.5819 48.0805C26.2359 48.2344 26.4501 48.7455 26.8006 48.6094ZM25.1866 49.0651C25.4151 49.3949 25.9114 49.0633 25.6942 48.7259C25.4656 48.3961 24.9693 48.7276 25.1866 49.0651ZM48.4634 26.4086C48.4287 26.3942 48.3915 26.3867 48.3539 26.3867C48.3163 26.3867 48.279 26.3941 48.2443 26.4085C48.2096 26.4229 48.178 26.444 48.1514 26.4705C48.1248 26.4971 48.1038 26.5287 48.0894 26.5635L47.3016 28.4652C47.2737 28.5351 47.2745 28.6132 47.3038 28.6826C47.333 28.7519 47.3884 28.807 47.458 28.8358C47.5275 28.8646 47.6056 28.8648 47.6753 28.8365C47.7451 28.8081 47.8008 28.7535 47.8306 28.6843L48.6183 26.7826C48.6327 26.7478 48.6401 26.7106 48.6401 26.673C48.6401 26.6354 48.6327 26.5982 48.6183 26.5635C48.6039 26.5288 48.5829 26.4972 48.5563 26.4706C48.5297 26.4441 48.4982 26.423 48.4634 26.4086ZM48.7453 25.6862C49.0827 25.9035 49.4142 25.4072 49.0845 25.1786C48.747 24.9618 48.4158 25.4577 48.7453 25.6862ZM35.9194 57.4581L36.7071 55.5563C36.8451 55.207 36.3282 54.9916 36.1782 55.3372L35.3905 57.239C35.2523 57.5871 35.7675 57.8046 35.9194 57.4581ZM35.2205 58.3147C34.8257 58.2427 34.7093 58.8285 35.1014 58.9135C35.4963 58.9852 35.6128 58.3997 35.2205 58.3147ZM57.3815 48.6312C57.6855 48.6371 57.7792 48.1948 57.4911 48.0805L55.5895 47.2927C55.2401 47.1546 55.0248 47.6716 55.3705 47.8217L57.2721 48.6093C57.3068 48.6238 57.3439 48.6312 57.3815 48.6312ZM58.3741 48.7259C58.1568 49.0633 58.6531 49.3949 58.8817 49.0651C59.0989 48.7276 58.6026 48.3961 58.3741 48.7259ZM26.597 35.9035L28.4987 36.6912C28.846 36.8297 29.0646 36.3132 28.7178 36.1623L26.816 35.3749C26.4667 35.2364 26.2513 35.7535 26.597 35.9035ZM25.1467 35.0917C25.075 35.4865 25.6604 35.6029 25.7454 35.2108C25.817 34.816 25.2316 34.6995 25.1467 35.0917Z" fill="url(#paint0_linear_7221_17378)"/>
</g>
<defs>
<filter id="filter0_d_7221_17378" x="0.197544" y="0.205357" width="83.5932" height="83.5867" filterUnits="userSpaceOnUse" color-interpolation-filters="sRGB">
<feFlood flood-opacity="0" result="BackgroundImageFix"/>
<feColorMatrix in="SourceAlpha" type="matrix" values="0 0 0 0 0 0 0 0 0 0 0 0 0 0 0 0 0 0 127 0" result="hardAlpha"/>
<feOffset/>
<feGaussianBlur stdDeviation="12.0536"/>
<feComposite in2="hardAlpha" operator="out"/>
<feColorMatrix type="matrix" values="0 0 0 0 0.79589 0 0 0 0 0.670508 0 0 0 0 1 0 0 0 0.6 0"/>
<feBlend mode="normal" in2="BackgroundImageFix" result="effect1_dropShadow_7221_17378"/>
<feBlend mode="normal" in="SourceGraphic" in2="effect1_dropShadow_7221_17378" result="shape"/>
</filter>
<linearGradient id="paint0_linear_7221_17378" x1="26.7422" y1="48.0945" x2="59.5958" y2="34.9575" gradientUnits="userSpaceOnUse">
<stop stop-color="#8363C8"/>
<stop offset="0.515" stop-color="#CFB1FF"/>
<stop offset="1" stop-color="#8E57C5"/>
</linearGradient>
</defs>
</svg>
