<svg width="640" height="640" viewBox="0 0 640 640" fill="none" xmlns="http://www.w3.org/2000/svg">
<path d="M547.331 94.801C487.674 34.5845 408.193 0.932556 323.464 0.0266445C322.718 0 321.972 0 321.226 0H319.973C318.508 0 317.016 0 315.444 0.0532889C230.954 1.22564 151.687 34.9842 92.2698 95.1473C32.7727 155.444 0 235.271 0 319.973C0 404.676 33.1457 485.489 93.3622 545.865C122.644 575.227 156.723 598.328 194.718 614.501C234.045 631.234 275.823 639.813 318.934 639.946H321.279C406.488 639.6 486.528 606.188 546.691 545.812C606.854 485.409 640 405.209 640 319.973C640 234.738 607.094 155.097 547.357 94.801H547.331ZM618.072 309.342C573.176 307.584 529.479 295.807 490.072 274.891C485.169 272.28 480.32 269.535 475.55 266.658C474.858 260.769 474.032 254.907 473.126 249.099C465.585 201.725 450.425 157.122 427.99 116.196C425.645 111.933 423.221 107.724 420.743 103.567C419.091 100.796 417.386 98.0516 415.654 95.3339C409.605 85.8218 403.157 76.6294 396.363 67.7835C394.418 65.2523 392.446 62.7743 390.448 60.2964C387.437 56.5928 384.373 52.9958 381.256 49.4255C379.177 47.0541 377.072 44.736 374.914 42.418C371.717 38.9808 368.44 35.597 365.136 32.2931C362.258 29.4421 359.327 26.6445 356.37 23.9267C500.09 41.5653 612.876 162.505 618.098 309.342H618.072ZM288.906 48.8393C290.718 47.0275 292.556 45.2423 294.421 43.4837C295.807 42.1515 297.219 40.8459 298.631 39.5404C302.042 36.423 305.532 33.3589 309.076 30.4013C309.102 30.4013 309.129 30.348 309.156 30.3214C309.156 30.3747 309.156 30.4013 309.156 30.4546C308.756 37.0091 308.117 43.537 307.291 49.985C297.805 123.87 261.356 190.721 204.576 238.708C199.381 243.104 194.025 247.34 188.483 251.39C189.575 244.623 190.828 237.935 192.266 231.3C193.945 223.44 195.863 215.687 197.968 208.013C198.821 204.923 199.727 201.832 200.659 198.794C201.112 197.276 201.592 195.73 202.072 194.211C203.031 191.174 204.043 188.136 205.056 185.152C207.134 179.131 209.319 173.216 211.664 167.354C212.836 164.423 214.035 161.519 215.261 158.641C215.873 157.202 216.513 155.763 217.152 154.325C219.044 150.035 221.042 145.798 223.094 141.589C225.146 137.405 227.277 133.249 229.462 129.172C230.928 126.455 232.42 123.737 233.965 121.072C237.775 114.385 241.799 107.83 246.008 101.462C248.54 97.6253 251.124 93.8684 253.789 90.1648C255.574 87.6869 257.359 85.2623 259.197 82.8376C261.036 80.413 262.901 78.0416 264.793 75.6702C266.684 73.3255 268.603 70.9808 270.548 68.6894C273.479 65.2523 276.463 61.8684 279.527 58.5379C281.552 56.3264 283.63 54.1415 285.735 52.01C286.774 50.9442 287.84 49.8784 288.906 48.8126V48.8393ZM283.63 23.98C255.414 50.0383 230.794 81.7718 211.504 117.156C209.878 120.113 208.306 123.124 206.761 126.135C205.216 129.146 203.724 132.156 202.258 135.221C197.142 145.878 192.48 156.776 188.296 167.86C185.898 174.201 183.687 180.623 181.609 187.097C181.102 188.723 180.57 190.348 180.09 191.973C178.598 196.849 177.186 201.778 175.88 206.734C175.427 208.386 175.001 210.038 174.601 211.69C173.749 215.021 172.949 218.351 172.203 221.708C170.098 231.007 168.286 240.44 166.794 249.978C165.888 255.76 165.089 261.595 164.396 267.457C159.627 270.308 154.804 273.026 149.902 275.61C146.838 277.209 143.774 278.754 140.656 280.246C137.565 281.738 134.475 283.151 131.331 284.536C128.213 285.922 125.042 287.227 121.872 288.506C117.102 290.398 112.306 292.183 107.457 293.808C99.3839 296.553 91.1774 298.951 82.8909 300.976C76.2565 302.601 69.5687 304.013 62.8276 305.186C59.4438 305.772 56.06 306.305 52.6761 306.784C49.2923 307.264 45.8818 307.664 42.4713 308.01C39.0608 308.356 35.6236 308.649 32.1865 308.889C28.776 309.129 25.3655 309.289 21.955 309.422C27.1241 162.744 139.963 41.6186 283.63 23.9534V23.98ZM21.9284 331.457C27.0708 331.644 32.2132 331.937 37.3289 332.363C40.766 332.656 44.1765 333.002 47.587 333.429C49.2923 333.642 50.9975 333.855 52.7028 334.095C56.1132 334.574 59.4971 335.107 62.8809 335.693C66.2648 336.28 69.622 336.919 72.9792 337.639C78.015 338.704 82.9975 339.877 87.9534 341.182C109.509 346.884 130.371 355.011 150.195 365.429C155.124 368.013 159.973 370.758 164.769 373.635C165.515 379.55 166.368 385.412 167.327 391.221C167.434 391.86 167.54 392.499 167.647 393.112C168.233 396.549 168.873 399.987 169.539 403.397C170.205 406.807 170.924 410.191 171.67 413.575C173.162 420.343 174.814 427.031 176.626 433.665C177.532 436.969 178.491 440.273 179.477 443.55C180.463 446.827 181.475 450.105 182.541 453.355C183.074 454.981 183.607 456.606 184.167 458.205C185.259 461.429 186.405 464.653 187.604 467.85C189.389 472.646 191.254 477.389 193.199 482.105C199.061 496.253 205.695 510.001 213.129 523.377C214.728 526.255 216.353 529.106 218.032 531.93C221.362 537.578 224.853 543.121 228.45 548.556C230.261 551.274 232.073 553.965 233.938 556.629C234.871 557.962 235.803 559.267 236.763 560.599C239.614 564.543 242.518 568.406 245.502 572.216C258.105 588.283 271.88 603.097 286.615 616.393C141.615 600.113 27.6037 479.254 21.955 331.457H21.9284ZM332.123 31.4138C337.212 35.7036 342.142 40.1798 346.964 44.816C357.888 55.3405 368.12 66.6644 377.579 78.7344C379.444 81.1057 381.256 83.5037 383.067 85.9284C385.759 89.552 388.396 93.2556 390.954 97.0125C392.659 99.517 394.338 102.048 395.99 104.606C396.816 105.885 397.642 107.164 398.441 108.47C400.067 111.054 401.639 113.665 403.211 116.276C407.873 124.163 412.27 132.29 416.373 140.603C419.117 146.145 421.702 151.767 424.18 157.495C424.793 158.934 425.406 160.346 426.018 161.785C435.104 183.474 442.298 206.335 447.467 230.075C448.933 236.763 450.211 243.53 451.331 250.378C452.556 257.865 453.622 265.432 454.448 273.079C454.688 275.184 454.901 277.315 455.087 279.447C455.247 281.126 455.407 282.778 455.54 284.456C455.86 288.266 456.127 292.077 456.313 295.913C456.313 296.02 456.313 296.153 456.313 296.26C456.5 299.963 456.659 303.693 456.766 307.397C456.873 311.234 456.926 315.044 456.926 318.881C456.926 327.514 456.659 336.2 456.127 344.833C463.401 340.383 470.834 336.226 478.428 332.363C478.561 327.86 478.641 323.384 478.641 318.907C478.641 315.497 478.588 312.086 478.508 308.703C478.375 303.48 478.162 298.258 477.868 293.062C482.451 295.54 487.114 297.912 491.804 300.15C496.759 302.521 501.742 304.759 506.804 306.864C512.4 309.209 518.075 311.367 523.777 313.365C531.397 316.03 539.124 318.428 546.931 320.506C537.126 323.117 527.48 326.208 517.968 329.752C509.042 333.082 500.25 336.839 491.644 340.942C486.928 343.207 482.265 345.579 477.655 348.083C470.968 351.707 464.413 355.544 457.992 359.647C456.899 360.34 455.833 361.032 454.768 361.752C449.705 365.056 444.749 368.519 439.9 372.09C403.477 398.974 372.889 433.505 350.694 472.992C341.689 489.006 334.095 505.765 328.02 523.057C325.249 530.917 322.798 538.884 320.639 546.931C317.549 535.34 313.792 523.91 309.422 512.746C303.8 498.385 297.112 484.423 289.439 470.994C282.804 459.404 275.45 448.24 267.43 437.609C265.432 434.944 263.381 432.306 261.302 429.722C259.224 427.137 257.092 424.553 254.934 422.022C252.776 419.49 250.565 416.986 248.326 414.534C246.088 412.083 243.797 409.632 241.505 407.26C235.724 401.292 229.702 395.51 223.467 389.995C220.963 387.783 218.458 385.625 215.873 383.494C210.704 379.204 205.402 375.074 199.967 371.104C201.352 381.868 203.164 392.473 205.376 402.917C207.054 404.356 208.733 405.795 210.358 407.234C212.729 409.339 215.047 411.47 217.339 413.655C223.067 419.091 228.556 424.739 233.805 430.574C235.91 432.919 237.962 435.264 239.987 437.662C244.037 442.458 247.9 447.36 251.63 452.37C253.495 454.874 255.307 457.405 257.092 459.99C271.294 480.506 282.858 502.728 291.49 526.201C293.116 530.598 294.634 535.047 296.02 539.524C297.432 544 298.738 548.529 299.937 553.086C300.736 556.123 301.482 559.187 302.202 562.251C304.093 570.484 305.612 578.851 306.811 587.297C307.744 593.878 308.463 600.539 308.943 607.227C308.676 607.014 308.41 606.774 308.143 606.561C303.294 602.484 298.604 598.248 293.995 593.852C289.892 589.935 285.868 585.912 281.952 581.755C279.873 579.57 277.848 577.332 275.823 575.067C272.813 571.683 269.855 568.22 266.951 564.703C264.073 561.185 261.249 557.589 258.478 553.938C254.801 549.062 251.257 544.08 247.82 538.991C246.968 537.712 246.115 536.433 245.262 535.154C243.584 532.569 241.932 529.985 240.306 527.347C239.507 526.041 238.681 524.709 237.908 523.404C236.31 520.766 234.764 518.075 233.219 515.384C227.863 505.925 222.908 496.173 218.378 486.155C217.072 483.277 215.82 480.4 214.595 477.495C210.891 468.783 207.507 459.857 204.443 450.771C202.898 446.215 201.459 441.632 200.073 436.996C199.141 433.905 198.261 430.814 197.435 427.67C197.009 426.098 196.609 424.553 196.183 422.981C195.384 419.837 194.585 416.693 193.865 413.522C193.625 412.456 193.386 411.364 193.146 410.298C191.654 403.584 190.295 396.816 189.122 389.968C187.71 381.682 186.511 373.289 185.579 364.816C185.445 363.51 185.312 362.205 185.179 360.899C184.619 355.33 184.167 349.708 183.847 344.086C183.341 335.693 183.074 327.3 183.074 318.907C183.074 311.607 183.261 304.306 183.634 297.059C181.822 298.151 179.983 299.244 178.118 300.31V300.283C177.639 300.603 177.159 300.869 176.653 301.136L176.093 301.455C171.271 304.2 166.395 306.838 161.439 309.315C161.359 312.513 161.332 315.71 161.332 318.907C161.332 323.171 161.412 327.46 161.519 331.75C161.625 335.534 161.785 339.344 161.998 343.127C162.078 344.566 162.158 345.978 162.265 347.417C157.655 344.939 152.993 342.594 148.303 340.356C143.667 338.171 138.978 336.093 134.261 334.121C131.943 333.162 129.625 332.203 127.281 331.297C124.323 330.151 121.339 329.059 118.355 327.993C115.877 327.114 113.399 326.261 110.894 325.435C105.379 323.624 99.8102 321.972 94.2148 320.479C97.9451 319.494 101.649 318.428 105.326 317.282C109.002 316.163 112.679 314.964 116.33 313.685C119.98 312.433 123.604 311.101 127.174 309.689C134.261 306.944 141.296 304.04 148.143 300.683C156.883 296.393 173.482 287.334 179.051 283.897C180.49 283.017 181.902 282.138 183.314 281.232C183.82 280.912 184.3 280.593 184.806 280.273C185.712 279.687 186.618 279.101 187.524 278.514C191.574 275.823 195.57 273.052 199.514 270.201C199.647 270.095 199.78 270.015 199.913 269.908C202.604 267.937 205.296 265.912 207.933 263.86C221.122 253.575 233.485 242.278 244.916 230.102C247.207 227.677 249.445 225.199 251.657 222.694C253.868 220.19 256.027 217.659 258.158 215.074C260.29 212.49 262.368 209.905 264.42 207.241C266.471 204.603 268.47 201.938 270.441 199.221C271.427 197.862 272.386 196.503 273.372 195.144C276.25 191.041 279.047 186.858 281.739 182.621C284.43 178.385 287.014 174.068 289.519 169.725C293.755 162.291 297.699 154.671 301.322 146.944C302.761 143.853 304.173 140.736 305.505 137.592C307.53 132.876 309.422 128.107 311.234 123.311C314.804 113.719 317.922 103.94 320.586 94.0283C323.597 105.272 327.194 116.33 331.404 127.174C336.813 141.109 343.181 154.671 350.535 167.753C372.836 207.507 403.637 242.225 440.326 269.216C439.021 258.478 437.289 247.873 435.131 237.455C379.604 189.815 343.794 123.897 334.095 51.3705C333.216 44.7893 332.55 38.1549 332.097 31.4671M347.391 592.413C342.515 597.129 337.505 601.685 332.336 606.081C332.869 599.287 333.615 592.546 334.601 585.885C344.966 515.224 380.19 451.011 434.251 404.276C439.554 399.693 445.016 395.297 450.664 391.061C449.439 397.988 448.053 404.862 446.508 411.657C430.281 482.478 395.644 545.705 347.391 592.439V592.413ZM353.386 616.446C415.014 560.999 457.379 481.305 472.46 392.26C473.445 386.398 474.325 380.483 475.097 374.541C479.893 371.637 484.769 368.866 489.699 366.228C529.186 345.179 572.989 333.349 618.018 331.59C612.37 479.334 498.358 600.193 353.386 616.473V616.446Z" fill="url(#paint0_linear_7221_17670)"/>
<path d="M400.356 319.973C400.356 275.663 364.306 239.613 319.996 239.613C275.687 239.613 239.637 275.663 239.637 319.973C239.637 364.283 275.687 400.333 319.996 400.333C364.306 400.333 400.356 364.283 400.356 319.973ZM319.996 378.644C287.65 378.644 261.325 352.319 261.325 319.973C261.325 287.626 287.65 261.302 319.996 261.302C352.343 261.302 378.667 287.626 378.667 319.973C378.667 352.319 352.343 378.644 319.996 378.644Z" fill="url(#paint1_linear_7221_17670)"/>
<defs>
<linearGradient id="paint0_linear_7221_17670" x1="640" y1="-0.984091" x2="0.053511" y2="639.016" gradientUnits="userSpaceOnUse">
<stop stop-color="#5920D0"/>
<stop offset="0.333333" stop-color="#9771CB"/>
<stop offset="0.666667" stop-color="#CDAEFF"/>
<stop offset="1" stop-color="#2D1C95"/>
</linearGradient>
<linearGradient id="paint1_linear_7221_17670" x1="400.356" y1="239.366" x2="239.637" y2="400.085" gradientUnits="userSpaceOnUse">
<stop stop-color="#5920D0"/>
<stop offset="0.333333" stop-color="#9771CB"/>
<stop offset="0.666667" stop-color="#CDAEFF"/>
<stop offset="1" stop-color="#2D1C95"/>
</linearGradient>
</defs>
</svg>
