<svg width="24" height="24" viewBox="0 0 24 24" fill="none" xmlns="http://www.w3.org/2000/svg">
<g id="Frame">
<path id="Vector" d="M20.9455 1.5H3.05039C2.19316 1.5 1.5 2.17676 1.5 3.01348V20.9824C1.5 21.8191 2.19316 22.5 3.05039 22.5H20.9455C21.8027 22.5 22.5 21.8191 22.5 20.9865V3.01348C22.5 2.17676 21.8027 1.5 20.9455 1.5ZM7.73027 19.3951H4.61309V9.3709H7.73027V19.3951ZM6.17168 8.00508C5.1709 8.00508 4.36289 7.19707 4.36289 6.20039C4.36289 5.20371 5.1709 4.3957 6.17168 4.3957C7.16836 4.3957 7.97637 5.20371 7.97637 6.20039C7.97637 7.19297 7.16836 8.00508 6.17168 8.00508ZM19.3951 19.3951H16.282V14.5225C16.282 13.3617 16.2615 11.8646 14.6619 11.8646C13.0418 11.8646 12.7957 13.132 12.7957 14.4404V19.3951H9.68672V9.3709H12.6727V10.7408H12.7137C13.1279 9.95332 14.1451 9.1207 15.6586 9.1207C18.8127 9.1207 19.3951 11.1961 19.3951 13.8949V19.3951Z" fill="white"/>
</g>
</svg>
