<svg width="48" height="48" viewBox="0 0 48 48" fill="none" xmlns="http://www.w3.org/2000/svg">
<circle cx="24" cy="24" r="24" fill="#121112"/>
<circle cx="24" cy="24" r="24" fill="black" fill-opacity="0.2"/>
<g clip-path="url(#clip0_3809_36093)">
<path d="M32.0275 24.6784C32.2075 24.4984 32.3086 24.2542 32.3086 23.9997C32.3086 23.7451 32.2075 23.501 32.0275 23.321L26.5968 17.8902C26.5082 17.7986 26.4023 17.7254 26.2852 17.6751C26.1681 17.6248 26.0421 17.5983 25.9146 17.5972C25.7872 17.5961 25.6607 17.6204 25.5428 17.6687C25.4248 17.7169 25.3176 17.7882 25.2275 17.8783C25.1373 17.9685 25.066 18.0757 25.0178 18.1936C24.9695 18.3116 24.9452 18.438 24.9463 18.5655C24.9474 18.693 24.9739 18.8189 25.0242 18.9361C25.0745 19.0532 25.1477 19.1591 25.2394 19.2477L29.0314 23.0397L16.3181 23.0397C16.0635 23.0397 15.8193 23.1408 15.6393 23.3209C15.4592 23.5009 15.3581 23.7451 15.3581 23.9997C15.3581 24.2543 15.4592 24.4985 15.6393 24.6785C15.8193 24.8585 16.0635 24.9597 16.3181 24.9597L29.0314 24.9597L25.2394 28.7517C25.0645 28.9327 24.9677 29.1752 24.9699 29.4269C24.9721 29.6787 25.0731 29.9194 25.2511 30.0974C25.429 30.2754 25.6698 30.3764 25.9215 30.3786C26.1732 30.3808 26.4157 30.284 26.5968 30.1091L32.0275 24.6784Z" fill="white"/>
</g>
<defs>
<clipPath id="clip0_3809_36093">
<rect width="23.04" height="23.04" fill="white" transform="matrix(0 1 -1 0 35.5195 12.48)"/>
</clipPath>
</defs>
</svg>
