<svg width="149" height="43" viewBox="0 0 149 43" fill="none" xmlns="http://www.w3.org/2000/svg">
<path d="M148.173 38.0402C148.173 40.3317 146.276 42.1879 143.93 42.1879H5.07664C2.7316 42.1879 0.828125 40.3317 0.828125 38.0402V4.96366C0.828125 2.67322 2.7316 0.810547 5.07664 0.810547H143.928C146.276 0.810547 148.171 2.67322 148.171 4.96366L148.173 38.0402Z" fill="#121112"/>
<path d="M148.173 38.0402C148.173 40.3317 146.276 42.1879 143.93 42.1879H5.07664C2.7316 42.1879 0.828125 40.3317 0.828125 38.0402V4.96366C0.828125 2.67322 2.7316 0.810547 5.07664 0.810547H143.928C146.276 0.810547 148.171 2.67322 148.171 4.96366L148.173 38.0402Z" fill="black" fill-opacity="0.2"/>
<path d="M143.481 0.861347C146.037 0.861347 148.116 2.88638 148.116 5.375V37.625C148.116 40.1136 146.037 42.1387 143.481 42.1387H5.51852C2.96344 42.1387 0.884342 40.1136 0.884342 37.625V5.375C0.884342 2.88638 2.96344 0.861347 5.51852 0.861347H143.481ZM143.481 3.8147e-06H5.51852C2.48471 3.8147e-06 0 2.4201 0 5.375V37.625C0 40.5799 2.48471 43 5.51852 43H143.481C146.515 43 149 40.5799 149 37.625V5.375C149 2.4201 146.515 3.8147e-06 143.481 3.8147e-06Z" fill="#121112"/>
<path d="M143.481 0.861347C146.037 0.861347 148.116 2.88638 148.116 5.375V37.625C148.116 40.1136 146.037 42.1387 143.481 42.1387H5.51852C2.96344 42.1387 0.884342 40.1136 0.884342 37.625V5.375C0.884342 2.88638 2.96344 0.861347 5.51852 0.861347H143.481ZM143.481 3.8147e-06H5.51852C2.48471 3.8147e-06 0 2.4201 0 5.375V37.625C0 40.5799 2.48471 43 5.51852 43H143.481C146.515 43 149 40.5799 149 37.625V5.375C149 2.4201 146.515 3.8147e-06 143.481 3.8147e-06Z" fill="black" fill-opacity="0.2"/>
<path d="M33.2511 21.2662C33.2191 17.8014 36.1638 16.1158 36.2984 16.0374C34.6307 13.6691 32.0459 13.3456 31.1375 13.3198C28.9665 13.0972 26.8607 14.585 25.7547 14.585C24.6268 14.585 22.9237 13.3413 21.0883 13.3778C18.7264 13.4133 16.5167 14.7452 15.3049 16.8135C12.8039 21.0307 14.6691 27.2281 17.0653 30.6369C18.2639 32.3064 19.6645 34.1705 21.4978 34.1049C23.2913 34.0329 23.9612 32.9912 26.1256 32.9912C28.2701 32.9912 28.8992 34.1049 30.7689 34.063C32.6937 34.0329 33.9056 32.386 35.0623 30.7014C36.4474 28.7879 37.0037 26.9035 37.0258 26.8067C36.9805 26.7917 33.2875 25.4189 33.2511 21.2662Z" fill="white"/>
<path d="M29.7192 11.0773C30.6839 9.90234 31.3439 8.30382 31.1607 6.68164C29.7645 6.74184 28.0184 7.62227 27.013 8.77144C26.1234 9.78409 25.3287 11.4439 25.534 13.0048C27.1024 13.1187 28.7127 12.234 29.7192 11.0773Z" fill="white"/>
<path d="M54.1344 10.7596C54.1344 12.0249 53.7448 12.9773 52.9667 13.617C52.246 14.2071 51.2218 14.5028 49.8951 14.5028C49.2373 14.5028 48.6744 14.4748 48.2031 14.4189V7.50557C48.8179 7.40882 49.4801 7.35938 50.1953 7.35938C51.4591 7.35938 52.4116 7.62705 53.0539 8.1624C53.7735 8.76762 54.1344 9.633 54.1344 10.7596ZM52.9148 10.7908C52.9148 9.97055 52.6919 9.34167 52.246 8.90307C51.8001 8.46555 51.1489 8.24625 50.2913 8.24625C49.9271 8.24625 49.617 8.2699 49.3598 8.31935V13.575C49.5022 13.5965 49.7627 13.6062 50.1412 13.6062C51.0264 13.6062 51.7096 13.3665 52.1908 12.887C52.672 12.4076 52.9148 11.7088 52.9148 10.7908Z" fill="white"/>
<path d="M60.5997 11.8646C60.5997 12.644 60.3712 13.2825 59.9143 13.7835C59.4353 14.2984 58.8007 14.5553 58.0082 14.5553C57.2444 14.5553 56.6363 14.3091 56.1827 13.8146C55.7302 13.3212 55.5039 12.6988 55.5039 11.9484C55.5039 11.1637 55.7368 10.5198 56.2048 10.0199C56.6727 9.52001 57.3018 9.26953 58.0943 9.26953C58.8581 9.26953 59.4717 9.51571 59.9364 10.0091C60.3779 10.4886 60.5997 11.1078 60.5997 11.8646ZM59.4 11.9011C59.4 11.4335 59.2962 11.0325 59.0898 10.6982C58.847 10.294 58.5016 10.0919 58.0524 10.0919C57.5877 10.0919 57.2345 10.294 56.9917 10.6982C56.7842 11.0325 56.6816 11.44 56.6816 11.9216C56.6816 12.3892 56.7853 12.7902 56.9917 13.1245C57.2422 13.5287 57.591 13.7308 58.0413 13.7308C58.4828 13.7308 58.8294 13.5255 59.0788 13.1137C59.2929 12.773 59.4 12.3688 59.4 11.9011Z" fill="white"/>
<path d="M69.2727 9.37305L67.6447 14.4406H66.5852L65.9108 12.2401C65.7397 11.6907 65.6006 11.1446 65.4925 10.6028H65.4715C65.3711 11.1597 65.232 11.7047 65.0532 12.2401L64.3369 14.4406H63.2652L61.7344 9.37305H62.9231L63.5113 11.7821C63.6537 12.3519 63.7707 12.8947 63.8645 13.4086H63.8855C63.9716 12.985 64.114 12.4454 64.3148 11.7929L65.0532 9.37412H65.9958L66.7032 11.7413C66.8743 12.3185 67.0134 12.8743 67.1204 13.4097H67.1525C67.2308 12.8883 67.3489 12.3325 67.5056 11.7413L68.137 9.37412H69.2727V9.37305Z" fill="white"/>
<path d="M75.2675 14.4396H74.1108V11.5371C74.1108 10.6427 73.7621 10.1955 73.0623 10.1955C72.7191 10.1955 72.442 10.3181 72.2268 10.5642C72.0138 10.8104 71.9056 11.1007 71.9056 11.4328V14.4385H70.749V10.8201C70.749 10.375 70.7346 9.89235 70.707 9.3699H71.7235L71.7776 10.1622H71.8096C71.9443 9.916 72.1452 9.71283 72.4089 9.5505C72.7224 9.3613 73.0734 9.26562 73.4575 9.26562C73.9431 9.26562 74.347 9.41828 74.6682 9.72465C75.0678 10.0998 75.2675 10.6599 75.2675 11.4038V14.4396Z" fill="white"/>
<path d="M78.4563 14.4397H77.3008V7.04688H78.4563V14.4397Z" fill="white"/>
<path d="M85.2677 11.8646C85.2677 12.644 85.0392 13.2825 84.5823 13.7835C84.1033 14.2984 83.4675 14.5553 82.6762 14.5553C81.9113 14.5553 81.3032 14.3091 80.8507 13.8146C80.3981 13.3212 80.1719 12.6988 80.1719 11.9484C80.1719 11.1637 80.4048 10.5198 80.8727 10.0199C81.3407 9.52001 81.9698 9.26953 82.7612 9.26953C83.526 9.26953 84.1386 9.51571 84.6043 10.0091C85.0458 10.4886 85.2677 11.1078 85.2677 11.8646ZM84.0668 11.9011C84.0668 11.4335 83.9631 11.0325 83.7567 10.6982C83.515 10.294 83.1684 10.0919 82.7203 10.0919C82.2546 10.0919 81.9014 10.294 81.6597 10.6982C81.4522 11.0325 81.3495 11.44 81.3495 11.9216C81.3495 12.3892 81.4533 12.7902 81.6597 13.1245C81.9102 13.5287 82.259 13.7308 82.7093 13.7308C83.1508 13.7308 83.4962 13.5255 83.7457 13.1137C83.9609 12.773 84.0668 12.3688 84.0668 11.9011Z" fill="white"/>
<path d="M90.8651 14.4403H89.8265L89.7404 13.8566H89.7084C89.353 14.322 88.8464 14.5553 88.1886 14.5553C87.6975 14.5553 87.3001 14.4016 87.001 14.0963C86.7295 13.8189 86.5938 13.4739 86.5938 13.0643C86.5938 12.4451 86.8586 11.9732 87.3917 11.6464C87.9237 11.3196 88.672 11.1594 89.6356 11.1669V11.0723C89.6356 10.4047 89.2757 10.0715 88.555 10.0715C88.0418 10.0715 87.5893 10.1973 87.1986 10.4467L86.9635 9.70706C87.4469 9.41573 88.044 9.26953 88.7482 9.26953C90.1079 9.26953 90.79 9.96828 90.79 11.3658V13.232C90.79 13.7383 90.8154 14.1414 90.8651 14.4403ZM89.6642 12.6988V11.9173C88.3884 11.8958 87.7504 12.2365 87.7504 12.9385C87.7504 13.203 87.8233 13.4008 87.9723 13.533C88.1213 13.6652 88.3111 13.7308 88.5374 13.7308C88.7912 13.7308 89.0285 13.6523 89.2448 13.4964C89.4623 13.3395 89.5958 13.1406 89.6455 12.8966C89.6576 12.8418 89.6642 12.7751 89.6642 12.6988Z" fill="white"/>
<path d="M97.4393 14.4396H96.4129L96.3588 13.6259H96.3268C95.999 14.2451 95.4405 14.5547 94.6558 14.5547C94.0289 14.5547 93.5068 14.3149 93.0929 13.8355C92.679 13.356 92.4727 12.7336 92.4727 11.9693C92.4727 11.1491 92.6967 10.4847 93.147 9.97732C93.583 9.50432 94.1172 9.26782 94.7529 9.26782C95.4515 9.26782 95.9405 9.4968 96.2186 9.95582H96.2407V7.04688H97.3985V13.0744C97.3985 13.5678 97.4117 14.0225 97.4393 14.4396ZM96.2407 12.3025V11.4576C96.2407 11.3114 96.2297 11.1932 96.2087 11.1028C96.1436 10.8319 96.0034 10.604 95.7904 10.4202C95.5752 10.2364 95.3158 10.1439 95.0167 10.1439C94.5851 10.1439 94.2474 10.3106 93.9991 10.6449C93.7529 10.9792 93.6282 11.406 93.6282 11.9274C93.6282 12.4283 93.7463 12.8347 93.9836 13.1475C94.2342 13.4807 94.5719 13.6474 94.9946 13.6474C95.3743 13.6474 95.6778 13.5087 95.9085 13.2303C96.1314 12.9733 96.2407 12.6637 96.2407 12.3025Z" fill="white"/>
<path d="M107.33 11.8646C107.33 12.644 107.102 13.2825 106.645 13.7835C106.166 14.2984 105.532 14.5553 104.739 14.5553C103.976 14.5553 103.368 14.3091 102.913 13.8146C102.461 13.3212 102.234 12.6988 102.234 11.9484C102.234 11.1637 102.467 10.5198 102.935 10.0199C103.403 9.52001 104.032 9.26953 104.826 9.26953C105.589 9.26953 106.203 9.51571 106.667 10.0091C107.108 10.4886 107.33 11.1078 107.33 11.8646ZM106.132 11.9011C106.132 11.4335 106.028 11.0325 105.821 10.6982C105.577 10.294 105.233 10.0919 104.783 10.0919C104.319 10.0919 103.966 10.294 103.722 10.6982C103.515 11.0325 103.412 11.44 103.412 11.9216C103.412 12.3892 103.516 12.7902 103.722 13.1245C103.973 13.5287 104.321 13.7308 104.772 13.7308C105.213 13.7308 105.561 13.5255 105.81 13.1137C106.023 12.773 106.132 12.3688 106.132 11.9011Z" fill="white"/>
<path d="M113.552 14.4396H112.396V11.5371C112.396 10.6427 112.047 10.1955 111.346 10.1955C111.003 10.1955 110.726 10.3181 110.512 10.5642C110.298 10.8104 110.191 11.1007 110.191 11.4328V14.4385H109.033V10.8201C109.033 10.375 109.02 9.89235 108.992 9.3699H110.008L110.062 10.1622H110.094C110.229 9.916 110.43 9.71283 110.693 9.5505C111.008 9.3613 111.357 9.26562 111.743 9.26562C112.227 9.26562 112.631 9.41828 112.952 9.72465C113.353 10.0998 113.552 10.6599 113.552 11.4038V14.4396Z" fill="white"/>
<path d="M121.333 10.2153H120.059V12.6771C120.059 13.3027 120.285 13.6155 120.733 13.6155C120.941 13.6155 121.113 13.5983 121.249 13.5629L121.279 14.4175C121.05 14.5013 120.75 14.5433 120.38 14.5433C119.923 14.5433 119.568 14.4078 119.311 14.1369C119.053 13.866 118.925 13.4102 118.925 12.7706V10.2153H118.164V9.37142H118.925V8.44262L120.058 8.10938V9.37035H121.332V10.2153H121.333Z" fill="white"/>
<path d="M127.456 14.4397H126.298V11.5587C126.298 10.6503 125.95 10.1955 125.251 10.1955C124.714 10.1955 124.348 10.4589 124.147 10.9857C124.113 11.0964 124.093 11.2319 124.093 11.391V14.4386H122.938V7.04688H124.093V10.101H124.115C124.479 9.54518 125.001 9.26782 125.678 9.26782C126.157 9.26782 126.553 9.42048 126.868 9.72685C127.26 10.1085 127.456 10.6761 127.456 11.4264V14.4397Z" fill="white"/>
<path d="M133.774 11.6647C133.774 11.8668 133.759 12.0367 133.731 12.1754H130.262C130.278 12.6763 130.443 13.0579 130.764 13.3224C131.058 13.5589 131.436 13.6771 131.9 13.6771C132.413 13.6771 132.881 13.5976 133.303 13.4374L133.484 14.22C132.99 14.4286 132.41 14.5328 131.738 14.5328C130.932 14.5328 130.297 14.3017 129.838 13.8395C129.377 13.3772 129.148 12.7569 129.148 11.9786C129.148 11.2143 129.361 10.5779 129.791 10.0705C130.239 9.52871 130.845 9.25781 131.61 9.25781C132.358 9.25781 132.926 9.52871 133.311 10.0705C133.621 10.5005 133.774 11.0326 133.774 11.6647ZM132.67 11.3734C132.679 11.0391 132.603 10.751 132.446 10.508C132.245 10.1952 131.94 10.0383 131.526 10.0383C131.148 10.0383 130.84 10.1909 130.605 10.4973C130.413 10.7413 130.3 11.0326 130.262 11.3734H132.67Z" fill="white"/>
<path d="M59.2087 33.8666H56.7022L55.3292 29.6645H50.5568L49.2489 33.8666H46.8086L51.5369 19.5605H54.4573L59.2087 33.8666ZM54.9153 27.9015L53.6736 24.1658C53.5423 23.7842 53.2962 22.8855 52.933 21.4708H52.8889C52.7443 22.0793 52.5114 22.978 52.1914 24.1658L50.9718 27.9015H54.9153Z" fill="white"/>
<path d="M71.3673 28.5826C71.3673 30.337 70.8806 31.7238 69.9071 32.7418C69.0352 33.648 67.9524 34.1006 66.66 34.1006C65.2649 34.1006 64.2628 33.6125 63.6524 32.6364H63.6083V38.0706H61.2552V26.9475C61.2552 25.8446 61.2254 24.7126 61.168 23.5516H63.2374L63.3688 25.1867H63.4129C64.1976 23.9547 65.3885 23.3398 66.9867 23.3398C68.2361 23.3398 69.2791 23.8204 70.1135 24.7825C70.9501 25.7457 71.3673 27.012 71.3673 28.5826ZM68.97 28.6665C68.97 27.6624 68.7383 26.8347 68.2725 26.1832C67.7637 25.5038 67.0805 25.1641 66.224 25.1641C65.6435 25.1641 65.1159 25.3533 64.6446 25.7263C64.1722 26.1026 63.8632 26.5939 63.7186 27.2023C63.6458 27.4861 63.6094 27.7183 63.6094 27.9011V29.6211C63.6094 30.3714 63.8456 31.0046 64.3179 31.5217C64.7903 32.0387 65.404 32.2967 66.1589 32.2967C67.0452 32.2967 67.735 31.9635 68.2284 31.2991C68.7228 30.6337 68.97 29.7565 68.97 28.6665Z" fill="white"/>
<path d="M83.5498 28.5826C83.5498 30.337 83.0631 31.7238 82.0885 32.7418C81.2177 33.648 80.1349 34.1006 78.8425 34.1006C77.4474 34.1006 76.4452 33.6125 75.836 32.6364H75.7918V38.0706H73.4388V26.9475C73.4388 25.8446 73.409 24.7126 73.3516 23.5516H75.421L75.5524 25.1867H75.5965C76.3801 23.9547 77.571 23.3398 79.1703 23.3398C80.4186 23.3398 81.4616 23.8204 82.2982 24.7825C83.1315 25.7457 83.5498 27.012 83.5498 28.5826ZM81.1525 28.6665C81.1525 27.6624 80.9197 26.8347 80.4539 26.1832C79.9451 25.5038 79.2641 25.1641 78.4065 25.1641C77.8249 25.1641 77.2984 25.3533 76.826 25.7263C76.3536 26.1026 76.0457 26.5939 75.9011 27.2023C75.8294 27.4861 75.7918 27.7183 75.7918 27.9011V29.6211C75.7918 30.3714 76.028 31.0046 76.4982 31.5217C76.9706 32.0377 77.5843 32.2967 78.3414 32.2967C79.2277 32.2967 79.9175 31.9635 80.4109 31.2991C80.9053 30.6337 81.1525 29.7565 81.1525 28.6665Z" fill="white"/>
<path d="M97.1708 29.8554C97.1708 31.0723 96.737 32.0624 95.8662 32.8267C94.9093 33.662 93.5771 34.0791 91.8653 34.0791C90.2848 34.0791 89.0177 33.7824 88.0586 33.1879L88.6038 31.2776C89.6369 31.8861 90.7704 32.1914 92.0054 32.1914C92.8917 32.1914 93.5815 31.9957 94.0771 31.6066C94.5704 31.2174 94.8166 30.695 94.8166 30.0435C94.8166 29.463 94.6135 28.9739 94.2062 28.5772C93.8012 28.1805 93.1246 27.8118 92.1798 27.471C89.6082 26.5369 88.3235 25.1684 88.3235 23.3688C88.3235 22.1928 88.7738 21.2285 89.6755 20.4782C90.5739 19.7267 91.7726 19.3516 93.2714 19.3516C94.608 19.3516 95.7183 19.5784 96.6046 20.031L96.0163 21.8993C95.1885 21.4607 94.2526 21.2414 93.2052 21.2414C92.3774 21.2414 91.7306 21.4403 91.2671 21.8359C90.8753 22.1896 90.6788 22.6206 90.6788 23.1313C90.6788 23.6967 90.9028 24.1643 91.3532 24.532C91.745 24.8717 92.4569 25.2393 93.4899 25.636C94.7537 26.1316 95.6819 26.711 96.279 27.3754C96.8739 28.0376 97.1708 28.8664 97.1708 29.8554Z" fill="white"/>
<path d="M104.95 25.2708H102.356V30.2792C102.356 31.5531 102.813 32.1895 103.729 32.1895C104.15 32.1895 104.499 32.154 104.775 32.0831L104.84 33.8235C104.376 33.9923 103.766 34.0772 103.01 34.0772C102.08 34.0772 101.354 33.8009 100.83 33.2494C100.308 32.6969 100.045 31.7702 100.045 30.4684V25.2686H98.5V23.5486H100.045V21.6599L102.356 20.9805V23.5486H104.95V25.2708Z" fill="white"/>
<path d="M116.651 28.6254C116.651 30.211 116.185 31.5129 115.256 32.5309C114.281 33.579 112.988 34.1015 111.375 34.1015C109.821 34.1015 108.584 33.5994 107.661 32.5954C106.739 31.5913 106.277 30.3239 106.277 28.7963C106.277 27.1978 106.752 25.8885 107.704 24.8704C108.655 23.8513 109.937 23.3418 111.55 23.3418C113.104 23.3418 114.354 23.8438 115.298 24.8489C116.201 25.824 116.651 27.0828 116.651 28.6254ZM114.21 28.6996C114.21 27.7482 114.001 26.9323 113.578 26.2518C113.085 25.4284 112.38 25.0177 111.466 25.0177C110.52 25.0177 109.801 25.4294 109.308 26.2518C108.885 26.9334 108.677 27.7622 108.677 28.7426C108.677 29.694 108.885 30.5099 109.308 31.1893C109.817 32.0127 110.528 32.4234 111.445 32.4234C112.343 32.4234 113.049 32.0041 113.557 31.1678C113.991 30.4744 114.21 29.6499 114.21 28.6996Z" fill="white"/>
<path d="M124.299 25.5672C124.066 25.5253 123.818 25.5038 123.558 25.5038C122.73 25.5038 122.09 25.808 121.639 26.4176C121.247 26.9551 121.051 27.6345 121.051 28.4547V33.8673H118.699L118.721 26.8003C118.721 25.6113 118.691 24.5288 118.633 23.5527H120.682L120.768 25.5264H120.834C121.082 24.8481 121.474 24.302 122.01 23.8924C122.534 23.5237 123.101 23.3398 123.711 23.3398C123.928 23.3398 124.125 23.3549 124.299 23.3818V25.5672Z" fill="white"/>
<path d="M134.823 28.2212C134.823 28.6319 134.795 28.978 134.736 29.2608H127.677C127.705 30.2799 128.046 31.0592 128.701 31.5967C129.296 32.0773 130.066 32.3181 131.01 32.3181C132.056 32.3181 133.009 32.1557 133.867 31.83L134.235 33.421C133.233 33.8467 132.05 34.0585 130.685 34.0585C129.042 34.0585 127.753 33.5876 126.815 32.647C125.879 31.7064 125.41 30.4433 125.41 28.8587C125.41 27.3032 125.846 26.0078 126.719 24.9747C127.633 23.8718 128.868 23.3203 130.422 23.3203C131.948 23.3203 133.104 23.8718 133.889 24.9747C134.51 25.8509 134.823 26.9345 134.823 28.2212ZM132.579 27.6268C132.594 26.9474 132.441 26.3604 132.122 25.8648C131.715 25.2274 131.089 24.9092 130.247 24.9092C129.477 24.9092 128.852 25.2198 128.374 25.8433C127.982 26.3389 127.749 26.9334 127.677 27.6257H132.579V27.6268Z" fill="white"/>
</svg>
