<svg width="120" height="119" viewBox="0 0 120 119" fill="none" xmlns="http://www.w3.org/2000/svg">
<g clip-path="url(#clip0_3809_34997)">
<path d="M120 0H0V119H120V0Z" fill="white"/>
<path d="M38.9229 6.42969H35.6797V9.6459H38.9229V6.42969Z" fill="#0E0A1B"/>
<path d="M45.4073 6.42969H42.1641V9.6459H45.4073V6.42969Z" fill="#0E0A1B"/>
<path d="M64.8682 6.42969H61.625V9.6459H64.8682V6.42969Z" fill="#0E0A1B"/>
<path d="M68.1104 6.42969H64.8672V9.6459H68.1104V6.42969Z" fill="#0E0A1B"/>
<path d="M71.3526 6.42969H68.1094V9.6459H71.3526V6.42969Z" fill="#0E0A1B"/>
<path d="M77.8409 6.42969H74.5977V9.6459H77.8409V6.42969Z" fill="#0E0A1B"/>
<path d="M81.0831 6.42969H77.8398V9.6459H81.0831V6.42969Z" fill="#0E0A1B"/>
<path d="M87.5714 6.42969H84.3281V9.6459H87.5714V6.42969Z" fill="#0E0A1B"/>
<path d="M38.9229 9.64453H35.6797V12.8607H38.9229V9.64453Z" fill="#0E0A1B"/>
<path d="M42.1651 9.64453H38.9219V12.8607H42.1651V9.64453Z" fill="#0E0A1B"/>
<path d="M51.8917 9.64453H48.6484V12.8607H51.8917V9.64453Z" fill="#0E0A1B"/>
<path d="M55.1378 9.64453H51.8945V12.8607H55.1378V9.64453Z" fill="#0E0A1B"/>
<path d="M58.38 9.64453H55.1367V12.8607H58.38V9.64453Z" fill="#0E0A1B"/>
<path d="M74.5948 9.64453H71.3516V12.8607H74.5948V9.64453Z" fill="#0E0A1B"/>
<path d="M77.8409 9.64453H74.5977V12.8607H77.8409V9.64453Z" fill="#0E0A1B"/>
<path d="M87.5714 9.64453H84.3281V12.8607H87.5714V9.64453Z" fill="#0E0A1B"/>
<path d="M35.6768 12.8594H32.4336V16.0756H35.6768V12.8594Z" fill="#0E0A1B"/>
<path d="M38.9229 12.8594H35.6797V16.0756H38.9229V12.8594Z" fill="#0E0A1B"/>
<path d="M42.1651 12.8594H38.9219V16.0756H42.1651V12.8594Z" fill="#0E0A1B"/>
<path d="M45.4073 12.8594H42.1641V16.0756H45.4073V12.8594Z" fill="#0E0A1B"/>
<path d="M58.38 12.8594H55.1367V16.0756H58.38V12.8594Z" fill="#0E0A1B"/>
<path d="M68.1104 12.8594H64.8672V16.0756H68.1104V12.8594Z" fill="#0E0A1B"/>
<path d="M71.3526 12.8594H68.1094V16.0756H71.3526V12.8594Z" fill="#0E0A1B"/>
<path d="M77.8409 12.8594H74.5977V16.0756H77.8409V12.8594Z" fill="#0E0A1B"/>
<path d="M84.3253 12.8594H81.082V16.0756H84.3253V12.8594Z" fill="#0E0A1B"/>
<path d="M87.5714 12.8594H84.3281V16.0756H87.5714V12.8594Z" fill="#0E0A1B"/>
<path d="M35.6768 16.0742H32.4336V19.2904H35.6768V16.0742Z" fill="#0E0A1B"/>
<path d="M38.9229 16.0742H35.6797V19.2904H38.9229V16.0742Z" fill="#0E0A1B"/>
<path d="M51.8917 16.0742H48.6484V19.2904H51.8917V16.0742Z" fill="#0E0A1B"/>
<path d="M55.1378 16.0742H51.8945V19.2904H55.1378V16.0742Z" fill="#0E0A1B"/>
<path d="M61.6221 16.0742H58.3789V19.2904H61.6221V16.0742Z" fill="#0E0A1B"/>
<path d="M64.8682 16.0742H61.625V19.2904H64.8682V16.0742Z" fill="#0E0A1B"/>
<path d="M68.1104 16.0742H64.8672V19.2904H68.1104V16.0742Z" fill="#0E0A1B"/>
<path d="M71.3526 16.0742H68.1094V19.2904H71.3526V16.0742Z" fill="#0E0A1B"/>
<path d="M74.5948 16.0742H71.3516V19.2904H74.5948V16.0742Z" fill="#0E0A1B"/>
<path d="M77.8409 16.0742H74.5977V19.2904H77.8409V16.0742Z" fill="#0E0A1B"/>
<path d="M84.3253 16.0742H81.082V19.2904H84.3253V16.0742Z" fill="#0E0A1B"/>
<path d="M87.5714 16.0742H84.3281V19.2904H87.5714V16.0742Z" fill="#0E0A1B"/>
<path d="M48.6495 19.2988H45.4062V22.515H48.6495V19.2988Z" fill="#0E0A1B"/>
<path d="M51.8917 19.2988H48.6484V22.515H51.8917V19.2988Z" fill="#0E0A1B"/>
<path d="M55.1378 19.2988H51.8945V22.515H55.1378V19.2988Z" fill="#0E0A1B"/>
<path d="M61.6221 19.2988H58.3789V22.515H61.6221V19.2988Z" fill="#0E0A1B"/>
<path d="M68.1104 19.2988H64.8672V22.515H68.1104V19.2988Z" fill="#0E0A1B"/>
<path d="M74.5948 19.2988H71.3516V22.515H74.5948V19.2988Z" fill="#0E0A1B"/>
<path d="M77.8409 19.2988H74.5977V22.515H77.8409V19.2988Z" fill="#0E0A1B"/>
<path d="M84.3253 19.2988H81.082V22.515H84.3253V19.2988Z" fill="#0E0A1B"/>
<path d="M45.4073 22.5137H42.1641V25.7299H45.4073V22.5137Z" fill="#0E0A1B"/>
<path d="M51.8917 22.5137H48.6484V25.7299H51.8917V22.5137Z" fill="#0E0A1B"/>
<path d="M55.1378 22.5137H51.8945V25.7299H55.1378V22.5137Z" fill="#0E0A1B"/>
<path d="M61.6221 22.5137H58.3789V25.7299H61.6221V22.5137Z" fill="#0E0A1B"/>
<path d="M74.5948 22.5137H71.3516V25.7299H74.5948V22.5137Z" fill="#0E0A1B"/>
<path d="M87.5714 22.5137H84.3281V25.7299H87.5714V22.5137Z" fill="#0E0A1B"/>
<path d="M35.6768 25.7285H32.4336V28.9447H35.6768V25.7285Z" fill="#0E0A1B"/>
<path d="M42.1651 25.7285H38.9219V28.9447H42.1651V25.7285Z" fill="#0E0A1B"/>
<path d="M48.6495 25.7285H45.4062V28.9447H48.6495V25.7285Z" fill="#0E0A1B"/>
<path d="M55.1378 25.7285H51.8945V28.9447H55.1378V25.7285Z" fill="#0E0A1B"/>
<path d="M61.6221 25.7285H58.3789V28.9447H61.6221V25.7285Z" fill="#0E0A1B"/>
<path d="M68.1104 25.7285H64.8672V28.9447H68.1104V25.7285Z" fill="#0E0A1B"/>
<path d="M74.5948 25.7285H71.3516V28.9447H74.5948V25.7285Z" fill="#0E0A1B"/>
<path d="M81.0831 25.7285H77.8398V28.9447H81.0831V25.7285Z" fill="#0E0A1B"/>
<path d="M87.5714 25.7285H84.3281V28.9447H87.5714V25.7285Z" fill="#0E0A1B"/>
<path d="M42.1651 28.9434H38.9219V32.1596H42.1651V28.9434Z" fill="#0E0A1B"/>
<path d="M58.38 28.9434H55.1367V32.1596H58.38V28.9434Z" fill="#0E0A1B"/>
<path d="M61.6221 28.9434H58.3789V32.1596H61.6221V28.9434Z" fill="#0E0A1B"/>
<path d="M81.0831 28.9434H77.8398V32.1596H81.0831V28.9434Z" fill="#0E0A1B"/>
<path d="M84.3253 28.9434H81.082V32.1596H84.3253V28.9434Z" fill="#0E0A1B"/>
<path d="M19.462 32.1582H16.2188V35.3744H19.462V32.1582Z" fill="#0E0A1B"/>
<path d="M22.7042 32.1582H19.4609V35.3744H22.7042V32.1582Z" fill="#0E0A1B"/>
<path d="M29.1886 32.1582H25.9453V35.3744H29.1886V32.1582Z" fill="#0E0A1B"/>
<path d="M32.4346 32.1582H29.1914V35.3744H32.4346V32.1582Z" fill="#0E0A1B"/>
<path d="M45.4073 32.1582H42.1641V35.3744H45.4073V32.1582Z" fill="#0E0A1B"/>
<path d="M48.6495 32.1582H45.4062V35.3744H48.6495V32.1582Z" fill="#0E0A1B"/>
<path d="M51.8917 32.1582H48.6484V35.3744H51.8917V32.1582Z" fill="#0E0A1B"/>
<path d="M55.1378 32.1582H51.8945V35.3744H55.1378V32.1582Z" fill="#0E0A1B"/>
<path d="M58.38 32.1582H55.1367V35.3744H58.38V32.1582Z" fill="#0E0A1B"/>
<path d="M61.6221 32.1582H58.3789V35.3744H61.6221V32.1582Z" fill="#0E0A1B"/>
<path d="M68.1104 32.1582H64.8672V35.3744H68.1104V32.1582Z" fill="#0E0A1B"/>
<path d="M74.5948 32.1582H71.3516V35.3744H74.5948V32.1582Z" fill="#0E0A1B"/>
<path d="M84.3253 32.1582H81.082V35.3744H84.3253V32.1582Z" fill="#0E0A1B"/>
<path d="M87.5714 32.1582H84.3281V35.3744H87.5714V32.1582Z" fill="#0E0A1B"/>
<path d="M103.786 32.1582H100.543V35.3744H103.786V32.1582Z" fill="#0E0A1B"/>
<path d="M107.028 32.1582H103.785V35.3744H107.028V32.1582Z" fill="#0E0A1B"/>
<path d="M12.9737 35.373H9.73047V38.5893H12.9737V35.373Z" fill="#0E0A1B"/>
<path d="M22.7042 35.373H19.4609V38.5893H22.7042V35.373Z" fill="#0E0A1B"/>
<path d="M25.9464 35.373H22.7031V38.5893H25.9464V35.373Z" fill="#0E0A1B"/>
<path d="M35.6768 35.373H32.4336V38.5893H35.6768V35.373Z" fill="#0E0A1B"/>
<path d="M48.6495 35.373H45.4062V38.5893H48.6495V35.373Z" fill="#0E0A1B"/>
<path d="M51.8917 35.373H48.6484V38.5893H51.8917V35.373Z" fill="#0E0A1B"/>
<path d="M55.1378 35.373H51.8945V38.5893H55.1378V35.373Z" fill="#0E0A1B"/>
<path d="M61.6221 35.373H58.3789V38.5893H61.6221V35.373Z" fill="#0E0A1B"/>
<path d="M68.1104 35.373H64.8672V38.5893H68.1104V35.373Z" fill="#0E0A1B"/>
<path d="M84.3253 35.373H81.082V38.5893H84.3253V35.373Z" fill="#0E0A1B"/>
<path d="M90.8136 35.373H87.5703V38.5893H90.8136V35.373Z" fill="#0E0A1B"/>
<path d="M97.2979 35.373H94.0547V38.5893H97.2979V35.373Z" fill="#0E0A1B"/>
<path d="M100.54 35.373H97.2969V38.5893H100.54V35.373Z" fill="#0E0A1B"/>
<path d="M103.786 35.373H100.543V38.5893H103.786V35.373Z" fill="#0E0A1B"/>
<path d="M107.028 35.373H103.785V38.5893H107.028V35.373Z" fill="#0E0A1B"/>
<path d="M110.274 35.373H107.031V38.5893H110.274V35.373Z" fill="#0E0A1B"/>
<path d="M9.73152 38.5898H6.48828V41.8061H9.73152V38.5898Z" fill="#0E0A1B"/>
<path d="M22.7042 38.5898H19.4609V41.8061H22.7042V38.5898Z" fill="#0E0A1B"/>
<path d="M29.1886 38.5898H25.9453V41.8061H29.1886V38.5898Z" fill="#0E0A1B"/>
<path d="M45.4073 38.5898H42.1641V41.8061H45.4073V38.5898Z" fill="#0E0A1B"/>
<path d="M48.6495 38.5898H45.4062V41.8061H48.6495V38.5898Z" fill="#0E0A1B"/>
<path d="M58.38 38.5898H55.1367V41.8061H58.38V38.5898Z" fill="#0E0A1B"/>
<path d="M68.1104 38.5898H64.8672V41.8061H68.1104V38.5898Z" fill="#0E0A1B"/>
<path d="M77.8409 38.5898H74.5977V41.8061H77.8409V38.5898Z" fill="#0E0A1B"/>
<path d="M84.3253 38.5898H81.082V41.8061H84.3253V38.5898Z" fill="#0E0A1B"/>
<path d="M90.8136 38.5898H87.5703V41.8061H90.8136V38.5898Z" fill="#0E0A1B"/>
<path d="M97.2979 38.5898H94.0547V41.8061H97.2979V38.5898Z" fill="#0E0A1B"/>
<path d="M107.028 38.5898H103.785V41.8061H107.028V38.5898Z" fill="#0E0A1B"/>
<path d="M110.274 38.5898H107.031V41.8061H110.274V38.5898Z" fill="#0E0A1B"/>
<path d="M113.517 38.5898H110.273V41.8061H113.517V38.5898Z" fill="#0E0A1B"/>
<path d="M12.9737 41.8125H9.73047V45.0287H12.9737V41.8125Z" fill="#0E0A1B"/>
<path d="M16.2198 41.8125H12.9766V45.0287H16.2198V41.8125Z" fill="#0E0A1B"/>
<path d="M22.7042 41.8125H19.4609V45.0287H22.7042V41.8125Z" fill="#0E0A1B"/>
<path d="M38.9229 41.8125H35.6797V45.0287H38.9229V41.8125Z" fill="#0E0A1B"/>
<path d="M42.1651 41.8125H38.9219V45.0287H42.1651V41.8125Z" fill="#0E0A1B"/>
<path d="M87.5714 41.8125H84.3281V45.0287H87.5714V41.8125Z" fill="#0E0A1B"/>
<path d="M94.0557 41.8125H90.8125V45.0287H94.0557V41.8125Z" fill="#0E0A1B"/>
<path d="M97.2979 41.8125H94.0547V45.0287H97.2979V41.8125Z" fill="#0E0A1B"/>
<path d="M100.54 41.8125H97.2969V45.0287H100.54V41.8125Z" fill="#0E0A1B"/>
<path d="M103.786 41.8125H100.543V45.0287H103.786V41.8125Z" fill="#0E0A1B"/>
<path d="M107.028 41.8125H103.785V45.0287H107.028V41.8125Z" fill="#0E0A1B"/>
<path d="M110.274 41.8125H107.031V45.0287H110.274V41.8125Z" fill="#0E0A1B"/>
<path d="M113.517 41.8125H110.273V45.0287H113.517V41.8125Z" fill="#0E0A1B"/>
<path d="M19.462 45.0195H16.2188V48.2357H19.462V45.0195Z" fill="#0E0A1B"/>
<path d="M22.7042 45.0195H19.4609V48.2357H22.7042V45.0195Z" fill="#0E0A1B"/>
<path d="M29.1886 45.0195H25.9453V48.2357H29.1886V45.0195Z" fill="#0E0A1B"/>
<path d="M32.4346 45.0195H29.1914V48.2357H32.4346V45.0195Z" fill="#0E0A1B"/>
<path d="M35.6768 45.0195H32.4336V48.2357H35.6768V45.0195Z" fill="#0E0A1B"/>
<path d="M77.8409 45.0195H74.5977V48.2357H77.8409V45.0195Z" fill="#0E0A1B"/>
<path d="M81.0831 45.0195H77.8398V48.2357H81.0831V45.0195Z" fill="#0E0A1B"/>
<path d="M87.5714 45.0195H84.3281V48.2357H87.5714V45.0195Z" fill="#0E0A1B"/>
<path d="M94.0557 45.0195H90.8125V48.2357H94.0557V45.0195Z" fill="#0E0A1B"/>
<path d="M97.2979 45.0195H94.0547V48.2357H97.2979V45.0195Z" fill="#0E0A1B"/>
<path d="M100.54 45.0195H97.2969V48.2357H100.54V45.0195Z" fill="#0E0A1B"/>
<path d="M103.786 45.0195H100.543V48.2357H103.786V45.0195Z" fill="#0E0A1B"/>
<path d="M113.517 45.0195H110.273V48.2357H113.517V45.0195Z" fill="#0E0A1B"/>
<path d="M9.73152 48.2422H6.48828V51.4584H9.73152V48.2422Z" fill="#0E0A1B"/>
<path d="M12.9737 48.2422H9.73047V51.4584H12.9737V48.2422Z" fill="#0E0A1B"/>
<path d="M19.462 48.2422H16.2188V51.4584H19.462V48.2422Z" fill="#0E0A1B"/>
<path d="M45.4073 48.2422H42.1641V51.4584H45.4073V48.2422Z" fill="#0E0A1B"/>
<path d="M77.8409 48.2422H74.5977V51.4584H77.8409V48.2422Z" fill="#0E0A1B"/>
<path d="M81.0831 48.2422H77.8398V51.4584H81.0831V48.2422Z" fill="#0E0A1B"/>
<path d="M84.3253 48.2422H81.082V51.4584H84.3253V48.2422Z" fill="#0E0A1B"/>
<path d="M107.028 48.2422H103.785V51.4584H107.028V48.2422Z" fill="#0E0A1B"/>
<path d="M110.274 48.2422H107.031V51.4584H110.274V48.2422Z" fill="#0E0A1B"/>
<path d="M12.9737 51.457H9.73047V54.6732H12.9737V51.457Z" fill="#0E0A1B"/>
<path d="M16.2198 51.457H12.9766V54.6732H16.2198V51.457Z" fill="#0E0A1B"/>
<path d="M19.462 51.457H16.2188V54.6732H19.462V51.457Z" fill="#0E0A1B"/>
<path d="M22.7042 51.457H19.4609V54.6732H22.7042V51.457Z" fill="#0E0A1B"/>
<path d="M29.1886 51.457H25.9453V54.6732H29.1886V51.457Z" fill="#0E0A1B"/>
<path d="M32.4346 51.457H29.1914V54.6732H32.4346V51.457Z" fill="#0E0A1B"/>
<path d="M45.4073 51.457H42.1641V54.6732H45.4073V51.457Z" fill="#0E0A1B"/>
<path d="M87.5714 51.457H84.3281V54.6732H87.5714V51.457Z" fill="#0E0A1B"/>
<path d="M94.0557 51.457H90.8125V54.6732H94.0557V51.457Z" fill="#0E0A1B"/>
<path d="M100.54 51.457H97.2969V54.6732H100.54V51.457Z" fill="#0E0A1B"/>
<path d="M103.786 51.457H100.543V54.6732H103.786V51.457Z" fill="#0E0A1B"/>
<path d="M12.9737 54.6719H9.73047V57.8881H12.9737V54.6719Z" fill="#0E0A1B"/>
<path d="M16.2198 54.6719H12.9766V57.8881H16.2198V54.6719Z" fill="#0E0A1B"/>
<path d="M19.462 54.6719H16.2188V57.8881H19.462V54.6719Z" fill="#0E0A1B"/>
<path d="M25.9464 54.6719H22.7031V57.8881H25.9464V54.6719Z" fill="#0E0A1B"/>
<path d="M84.3253 54.6719H81.082V57.8881H84.3253V54.6719Z" fill="#0E0A1B"/>
<path d="M87.5714 54.6719H84.3281V57.8881H87.5714V54.6719Z" fill="#0E0A1B"/>
<path d="M90.8136 54.6719H87.5703V57.8881H90.8136V54.6719Z" fill="#0E0A1B"/>
<path d="M97.2979 54.6719H94.0547V57.8881H97.2979V54.6719Z" fill="#0E0A1B"/>
<path d="M103.786 54.6719H100.543V57.8881H103.786V54.6719Z" fill="#0E0A1B"/>
<path d="M107.028 54.6719H103.785V57.8881H107.028V54.6719Z" fill="#0E0A1B"/>
<path d="M110.274 54.6719H107.031V57.8881H110.274V54.6719Z" fill="#0E0A1B"/>
<path d="M113.517 54.6719H110.273V57.8881H113.517V54.6719Z" fill="#0E0A1B"/>
<path d="M9.73152 57.8887H6.48828V61.1049H9.73152V57.8887Z" fill="#0E0A1B"/>
<path d="M12.9737 57.8887H9.73047V61.1049H12.9737V57.8887Z" fill="#0E0A1B"/>
<path d="M22.7042 57.8887H19.4609V61.1049H22.7042V57.8887Z" fill="#0E0A1B"/>
<path d="M29.1886 57.8887H25.9453V61.1049H29.1886V57.8887Z" fill="#0E0A1B"/>
<path d="M32.4346 57.8887H29.1914V61.1049H32.4346V57.8887Z" fill="#0E0A1B"/>
<path d="M38.9229 57.8887H35.6797V61.1049H38.9229V57.8887Z" fill="#0E0A1B"/>
<path d="M42.1651 57.8887H38.9219V61.1049H42.1651V57.8887Z" fill="#0E0A1B"/>
<path d="M84.3253 57.8887H81.082V61.1049H84.3253V57.8887Z" fill="#0E0A1B"/>
<path d="M90.8136 57.8887H87.5703V61.1049H90.8136V57.8887Z" fill="#0E0A1B"/>
<path d="M94.0557 57.8887H90.8125V61.1049H94.0557V57.8887Z" fill="#0E0A1B"/>
<path d="M97.2979 57.8887H94.0547V61.1049H97.2979V57.8887Z" fill="#0E0A1B"/>
<path d="M100.54 57.8887H97.2969V61.1049H100.54V57.8887Z" fill="#0E0A1B"/>
<path d="M103.786 57.8887H100.543V61.1049H103.786V57.8887Z" fill="#0E0A1B"/>
<path d="M110.274 57.8887H107.031V61.1049H110.274V57.8887Z" fill="#0E0A1B"/>
<path d="M9.73152 61.1035H6.48828V64.3197H9.73152V61.1035Z" fill="#0E0A1B"/>
<path d="M19.462 61.1035H16.2188V64.3197H19.462V61.1035Z" fill="#0E0A1B"/>
<path d="M25.9464 61.1035H22.7031V64.3197H25.9464V61.1035Z" fill="#0E0A1B"/>
<path d="M35.6768 61.1035H32.4336V64.3197H35.6768V61.1035Z" fill="#0E0A1B"/>
<path d="M38.9229 61.1035H35.6797V64.3197H38.9229V61.1035Z" fill="#0E0A1B"/>
<path d="M45.4073 61.1035H42.1641V64.3197H45.4073V61.1035Z" fill="#0E0A1B"/>
<path d="M77.8409 61.1035H74.5977V64.3197H77.8409V61.1035Z" fill="#0E0A1B"/>
<path d="M81.0831 61.1035H77.8398V64.3197H81.0831V61.1035Z" fill="#0E0A1B"/>
<path d="M87.5714 61.1035H84.3281V64.3197H87.5714V61.1035Z" fill="#0E0A1B"/>
<path d="M94.0557 61.1035H90.8125V64.3197H94.0557V61.1035Z" fill="#0E0A1B"/>
<path d="M97.2979 61.1035H94.0547V64.3197H97.2979V61.1035Z" fill="#0E0A1B"/>
<path d="M100.54 61.1035H97.2969V64.3197H100.54V61.1035Z" fill="#0E0A1B"/>
<path d="M103.786 61.1035H100.543V64.3197H103.786V61.1035Z" fill="#0E0A1B"/>
<path d="M113.517 61.1035H110.273V64.3197H113.517V61.1035Z" fill="#0E0A1B"/>
<path d="M12.9737 64.3262H9.73047V67.5424H12.9737V64.3262Z" fill="#0E0A1B"/>
<path d="M19.462 64.3262H16.2188V67.5424H19.462V64.3262Z" fill="#0E0A1B"/>
<path d="M22.7042 64.3262H19.4609V67.5424H22.7042V64.3262Z" fill="#0E0A1B"/>
<path d="M25.9464 64.3262H22.7031V67.5424H25.9464V64.3262Z" fill="#0E0A1B"/>
<path d="M29.1886 64.3262H25.9453V67.5424H29.1886V64.3262Z" fill="#0E0A1B"/>
<path d="M32.4346 64.3262H29.1914V67.5424H32.4346V64.3262Z" fill="#0E0A1B"/>
<path d="M38.9229 64.3262H35.6797V67.5424H38.9229V64.3262Z" fill="#0E0A1B"/>
<path d="M45.4073 64.3262H42.1641V67.5424H45.4073V64.3262Z" fill="#0E0A1B"/>
<path d="M84.3253 64.3262H81.082V67.5424H84.3253V64.3262Z" fill="#0E0A1B"/>
<path d="M100.54 64.3262H97.2969V67.5424H100.54V64.3262Z" fill="#0E0A1B"/>
<path d="M103.786 64.3262H100.543V67.5424H103.786V64.3262Z" fill="#0E0A1B"/>
<path d="M107.028 64.3262H103.785V67.5424H107.028V64.3262Z" fill="#0E0A1B"/>
<path d="M113.517 64.3262H110.273V67.5424H113.517V64.3262Z" fill="#0E0A1B"/>
<path d="M9.73152 67.5332H6.48828V70.7494H9.73152V67.5332Z" fill="#0E0A1B"/>
<path d="M12.9737 67.5332H9.73047V70.7494H12.9737V67.5332Z" fill="#0E0A1B"/>
<path d="M19.462 67.5332H16.2188V70.7494H19.462V67.5332Z" fill="#0E0A1B"/>
<path d="M25.9464 67.5332H22.7031V70.7494H25.9464V67.5332Z" fill="#0E0A1B"/>
<path d="M32.4346 67.5332H29.1914V70.7494H32.4346V67.5332Z" fill="#0E0A1B"/>
<path d="M38.9229 67.5332H35.6797V70.7494H38.9229V67.5332Z" fill="#0E0A1B"/>
<path d="M45.4073 67.5332H42.1641V70.7494H45.4073V67.5332Z" fill="#0E0A1B"/>
<path d="M81.0831 67.5332H77.8398V70.7494H81.0831V67.5332Z" fill="#0E0A1B"/>
<path d="M84.3253 67.5332H81.082V70.7494H84.3253V67.5332Z" fill="#0E0A1B"/>
<path d="M87.5714 67.5332H84.3281V70.7494H87.5714V67.5332Z" fill="#0E0A1B"/>
<path d="M90.8136 67.5332H87.5703V70.7494H90.8136V67.5332Z" fill="#0E0A1B"/>
<path d="M97.2979 67.5332H94.0547V70.7494H97.2979V67.5332Z" fill="#0E0A1B"/>
<path d="M100.54 67.5332H97.2969V70.7494H100.54V67.5332Z" fill="#0E0A1B"/>
<path d="M103.786 67.5332H100.543V70.7494H103.786V67.5332Z" fill="#0E0A1B"/>
<path d="M107.028 67.5332H103.785V70.7494H107.028V67.5332Z" fill="#0E0A1B"/>
<path d="M110.274 67.5332H107.031V70.7494H110.274V67.5332Z" fill="#0E0A1B"/>
<path d="M12.9737 70.7559H9.73047V73.9721H12.9737V70.7559Z" fill="#0E0A1B"/>
<path d="M19.462 70.7559H16.2188V73.9721H19.462V70.7559Z" fill="#0E0A1B"/>
<path d="M29.1886 70.7559H25.9453V73.9721H29.1886V70.7559Z" fill="#0E0A1B"/>
<path d="M32.4346 70.7559H29.1914V73.9721H32.4346V70.7559Z" fill="#0E0A1B"/>
<path d="M38.9229 70.7559H35.6797V73.9721H38.9229V70.7559Z" fill="#0E0A1B"/>
<path d="M42.1651 70.7559H38.9219V73.9721H42.1651V70.7559Z" fill="#0E0A1B"/>
<path d="M94.0557 70.7559H90.8125V73.9721H94.0557V70.7559Z" fill="#0E0A1B"/>
<path d="M97.2979 70.7559H94.0547V73.9721H97.2979V70.7559Z" fill="#0E0A1B"/>
<path d="M103.786 70.7559H100.543V73.9721H103.786V70.7559Z" fill="#0E0A1B"/>
<path d="M113.517 70.7559H110.273V73.9721H113.517V70.7559Z" fill="#0E0A1B"/>
<path d="M9.73152 73.9707H6.48828V77.1869H9.73152V73.9707Z" fill="#0E0A1B"/>
<path d="M12.9737 73.9707H9.73047V77.1869H12.9737V73.9707Z" fill="#0E0A1B"/>
<path d="M22.7042 73.9707H19.4609V77.1869H22.7042V73.9707Z" fill="#0E0A1B"/>
<path d="M32.4346 73.9707H29.1914V77.1869H32.4346V73.9707Z" fill="#0E0A1B"/>
<path d="M77.8409 73.9707H74.5977V77.1869H77.8409V73.9707Z" fill="#0E0A1B"/>
<path d="M81.0831 73.9707H77.8398V77.1869H81.0831V73.9707Z" fill="#0E0A1B"/>
<path d="M87.5714 73.9707H84.3281V77.1869H87.5714V73.9707Z" fill="#0E0A1B"/>
<path d="M94.0557 73.9707H90.8125V77.1869H94.0557V73.9707Z" fill="#0E0A1B"/>
<path d="M100.54 73.9707H97.2969V77.1869H100.54V73.9707Z" fill="#0E0A1B"/>
<path d="M103.786 73.9707H100.543V77.1869H103.786V73.9707Z" fill="#0E0A1B"/>
<path d="M107.028 73.9707H103.785V77.1869H107.028V73.9707Z" fill="#0E0A1B"/>
<path d="M9.73152 77.1875H6.48828V80.4037H9.73152V77.1875Z" fill="#0E0A1B"/>
<path d="M19.462 77.1875H16.2188V80.4037H19.462V77.1875Z" fill="#0E0A1B"/>
<path d="M22.7042 77.1875H19.4609V80.4037H22.7042V77.1875Z" fill="#0E0A1B"/>
<path d="M25.9464 77.1875H22.7031V80.4037H25.9464V77.1875Z" fill="#0E0A1B"/>
<path d="M29.1886 77.1875H25.9453V80.4037H29.1886V77.1875Z" fill="#0E0A1B"/>
<path d="M32.4346 77.1875H29.1914V80.4037H32.4346V77.1875Z" fill="#0E0A1B"/>
<path d="M38.9229 77.1875H35.6797V80.4037H38.9229V77.1875Z" fill="#0E0A1B"/>
<path d="M42.1651 77.1875H38.9219V80.4037H42.1651V77.1875Z" fill="#0E0A1B"/>
<path d="M45.4073 77.1875H42.1641V80.4037H45.4073V77.1875Z" fill="#0E0A1B"/>
<path d="M48.6495 77.1875H45.4062V80.4037H48.6495V77.1875Z" fill="#0E0A1B"/>
<path d="M55.1378 77.1875H51.8945V80.4037H55.1378V77.1875Z" fill="#0E0A1B"/>
<path d="M58.38 77.1875H55.1367V80.4037H58.38V77.1875Z" fill="#0E0A1B"/>
<path d="M64.8682 77.1875H61.625V80.4037H64.8682V77.1875Z" fill="#0E0A1B"/>
<path d="M68.1104 77.1875H64.8672V80.4037H68.1104V77.1875Z" fill="#0E0A1B"/>
<path d="M71.3526 77.1875H68.1094V80.4037H71.3526V77.1875Z" fill="#0E0A1B"/>
<path d="M77.8409 77.1875H74.5977V80.4037H77.8409V77.1875Z" fill="#0E0A1B"/>
<path d="M84.3253 77.1875H81.082V80.4037H84.3253V77.1875Z" fill="#0E0A1B"/>
<path d="M94.0557 77.1875H90.8125V80.4037H94.0557V77.1875Z" fill="#0E0A1B"/>
<path d="M100.54 77.1875H97.2969V80.4037H100.54V77.1875Z" fill="#0E0A1B"/>
<path d="M110.274 77.1875H107.031V80.4037H110.274V77.1875Z" fill="#0E0A1B"/>
<path d="M113.517 77.1875H110.273V80.4037H113.517V77.1875Z" fill="#0E0A1B"/>
<path d="M9.73152 80.4023H6.48828V83.6186H9.73152V80.4023Z" fill="#0E0A1B"/>
<path d="M16.2198 80.4023H12.9766V83.6186H16.2198V80.4023Z" fill="#0E0A1B"/>
<path d="M19.462 80.4023H16.2188V83.6186H19.462V80.4023Z" fill="#0E0A1B"/>
<path d="M38.9229 80.4023H35.6797V83.6186H38.9229V80.4023Z" fill="#0E0A1B"/>
<path d="M45.4073 80.4023H42.1641V83.6186H45.4073V80.4023Z" fill="#0E0A1B"/>
<path d="M58.38 80.4023H55.1367V83.6186H58.38V80.4023Z" fill="#0E0A1B"/>
<path d="M61.6221 80.4023H58.3789V83.6186H61.6221V80.4023Z" fill="#0E0A1B"/>
<path d="M64.8682 80.4023H61.625V83.6186H64.8682V80.4023Z" fill="#0E0A1B"/>
<path d="M71.3526 80.4023H68.1094V83.6186H71.3526V80.4023Z" fill="#0E0A1B"/>
<path d="M74.5948 80.4023H71.3516V83.6186H74.5948V80.4023Z" fill="#0E0A1B"/>
<path d="M84.3253 80.4023H81.082V83.6186H84.3253V80.4023Z" fill="#0E0A1B"/>
<path d="M87.5714 80.4023H84.3281V83.6186H87.5714V80.4023Z" fill="#0E0A1B"/>
<path d="M97.2979 80.4023H94.0547V83.6186H97.2979V80.4023Z" fill="#0E0A1B"/>
<path d="M100.54 80.4023H97.2969V83.6186H100.54V80.4023Z" fill="#0E0A1B"/>
<path d="M107.028 80.4023H103.785V83.6186H107.028V80.4023Z" fill="#0E0A1B"/>
<path d="M9.73152 83.6172H6.48828V86.8334H9.73152V83.6172Z" fill="#0E0A1B"/>
<path d="M12.9737 83.6172H9.73047V86.8334H12.9737V83.6172Z" fill="#0E0A1B"/>
<path d="M16.2198 83.6172H12.9766V86.8334H16.2198V83.6172Z" fill="#0E0A1B"/>
<path d="M19.462 83.6172H16.2188V86.8334H19.462V83.6172Z" fill="#0E0A1B"/>
<path d="M22.7042 83.6172H19.4609V86.8334H22.7042V83.6172Z" fill="#0E0A1B"/>
<path d="M29.1886 83.6172H25.9453V86.8334H29.1886V83.6172Z" fill="#0E0A1B"/>
<path d="M32.4346 83.6172H29.1914V86.8334H32.4346V83.6172Z" fill="#0E0A1B"/>
<path d="M48.6495 83.6172H45.4062V86.8334H48.6495V83.6172Z" fill="#0E0A1B"/>
<path d="M55.1378 83.6172H51.8945V86.8334H55.1378V83.6172Z" fill="#0E0A1B"/>
<path d="M58.38 83.6172H55.1367V86.8334H58.38V83.6172Z" fill="#0E0A1B"/>
<path d="M81.0831 83.6172H77.8398V86.8334H81.0831V83.6172Z" fill="#0E0A1B"/>
<path d="M84.3253 83.6172H81.082V86.8334H84.3253V83.6172Z" fill="#0E0A1B"/>
<path d="M87.5714 83.6172H84.3281V86.8334H87.5714V83.6172Z" fill="#0E0A1B"/>
<path d="M90.8136 83.6172H87.5703V86.8334H90.8136V83.6172Z" fill="#0E0A1B"/>
<path d="M94.0557 83.6172H90.8125V86.8334H94.0557V83.6172Z" fill="#0E0A1B"/>
<path d="M97.2979 83.6172H94.0547V86.8334H97.2979V83.6172Z" fill="#0E0A1B"/>
<path d="M100.54 83.6172H97.2969V86.8334H100.54V83.6172Z" fill="#0E0A1B"/>
<path d="M113.517 83.6172H110.273V86.8334H113.517V83.6172Z" fill="#0E0A1B"/>
<path d="M35.6768 86.8398H32.4336V90.0561H35.6768V86.8398Z" fill="#0E0A1B"/>
<path d="M45.4073 86.8398H42.1641V90.0561H45.4073V86.8398Z" fill="#0E0A1B"/>
<path d="M51.8917 86.8398H48.6484V90.0561H51.8917V86.8398Z" fill="#0E0A1B"/>
<path d="M55.1378 86.8398H51.8945V90.0561H55.1378V86.8398Z" fill="#0E0A1B"/>
<path d="M58.38 86.8398H55.1367V90.0561H58.38V86.8398Z" fill="#0E0A1B"/>
<path d="M61.6221 86.8398H58.3789V90.0561H61.6221V86.8398Z" fill="#0E0A1B"/>
<path d="M71.3526 86.8398H68.1094V90.0561H71.3526V86.8398Z" fill="#0E0A1B"/>
<path d="M74.5948 86.8398H71.3516V90.0561H74.5948V86.8398Z" fill="#0E0A1B"/>
<path d="M77.8409 86.8398H74.5977V90.0561H77.8409V86.8398Z" fill="#0E0A1B"/>
<path d="M87.5714 86.8398H84.3281V90.0561H87.5714V86.8398Z" fill="#0E0A1B"/>
<path d="M100.54 86.8398H97.2969V90.0561H100.54V86.8398Z" fill="#0E0A1B"/>
<path d="M103.786 86.8398H100.543V90.0561H103.786V86.8398Z" fill="#0E0A1B"/>
<path d="M35.6768 90.0469H32.4336V93.2631H35.6768V90.0469Z" fill="#0E0A1B"/>
<path d="M38.9229 90.0469H35.6797V93.2631H38.9229V90.0469Z" fill="#0E0A1B"/>
<path d="M51.8917 90.0469H48.6484V93.2631H51.8917V90.0469Z" fill="#0E0A1B"/>
<path d="M58.38 90.0469H55.1367V93.2631H58.38V90.0469Z" fill="#0E0A1B"/>
<path d="M61.6221 90.0469H58.3789V93.2631H61.6221V90.0469Z" fill="#0E0A1B"/>
<path d="M64.8682 90.0469H61.625V93.2631H64.8682V90.0469Z" fill="#0E0A1B"/>
<path d="M74.5948 90.0469H71.3516V93.2631H74.5948V90.0469Z" fill="#0E0A1B"/>
<path d="M84.3253 90.0469H81.082V93.2631H84.3253V90.0469Z" fill="#0E0A1B"/>
<path d="M87.5714 90.0469H84.3281V93.2631H87.5714V90.0469Z" fill="#0E0A1B"/>
<path d="M94.0557 90.0469H90.8125V93.2631H94.0557V90.0469Z" fill="#0E0A1B"/>
<path d="M100.54 90.0469H97.2969V93.2631H100.54V90.0469Z" fill="#0E0A1B"/>
<path d="M103.786 90.0469H100.543V93.2631H103.786V90.0469Z" fill="#0E0A1B"/>
<path d="M107.028 90.0469H103.785V93.2631H107.028V90.0469Z" fill="#0E0A1B"/>
<path d="M42.1651 93.2695H38.9219V96.4857H42.1651V93.2695Z" fill="#0E0A1B"/>
<path d="M51.8917 93.2695H48.6484V96.4857H51.8917V93.2695Z" fill="#0E0A1B"/>
<path d="M58.38 93.2695H55.1367V96.4857H58.38V93.2695Z" fill="#0E0A1B"/>
<path d="M61.6221 93.2695H58.3789V96.4857H61.6221V93.2695Z" fill="#0E0A1B"/>
<path d="M77.8409 93.2695H74.5977V96.4857H77.8409V93.2695Z" fill="#0E0A1B"/>
<path d="M81.0831 93.2695H77.8398V96.4857H81.0831V93.2695Z" fill="#0E0A1B"/>
<path d="M84.3253 93.2695H81.082V96.4857H84.3253V93.2695Z" fill="#0E0A1B"/>
<path d="M87.5714 93.2695H84.3281V96.4857H87.5714V93.2695Z" fill="#0E0A1B"/>
<path d="M100.54 93.2695H97.2969V96.4857H100.54V93.2695Z" fill="#0E0A1B"/>
<path d="M103.786 93.2695H100.543V96.4857H103.786V93.2695Z" fill="#0E0A1B"/>
<path d="M107.028 93.2695H103.785V96.4857H107.028V93.2695Z" fill="#0E0A1B"/>
<path d="M110.274 93.2695H107.031V96.4857H110.274V93.2695Z" fill="#0E0A1B"/>
<path d="M35.6768 96.4863H32.4336V99.7025H35.6768V96.4863Z" fill="#0E0A1B"/>
<path d="M38.9229 96.4863H35.6797V99.7025H38.9229V96.4863Z" fill="#0E0A1B"/>
<path d="M48.6495 96.4863H45.4062V99.7025H48.6495V96.4863Z" fill="#0E0A1B"/>
<path d="M51.8917 96.4863H48.6484V99.7025H51.8917V96.4863Z" fill="#0E0A1B"/>
<path d="M55.1378 96.4863H51.8945V99.7025H55.1378V96.4863Z" fill="#0E0A1B"/>
<path d="M74.5948 96.4863H71.3516V99.7025H74.5948V96.4863Z" fill="#0E0A1B"/>
<path d="M77.8409 96.4863H74.5977V99.7025H77.8409V96.4863Z" fill="#0E0A1B"/>
<path d="M81.0831 96.4863H77.8398V99.7025H81.0831V96.4863Z" fill="#0E0A1B"/>
<path d="M84.3253 96.4863H81.082V99.7025H84.3253V96.4863Z" fill="#0E0A1B"/>
<path d="M87.5714 96.4863H84.3281V99.7025H87.5714V96.4863Z" fill="#0E0A1B"/>
<path d="M90.8136 96.4863H87.5703V99.7025H90.8136V96.4863Z" fill="#0E0A1B"/>
<path d="M94.0557 96.4863H90.8125V99.7025H94.0557V96.4863Z" fill="#0E0A1B"/>
<path d="M97.2979 96.4863H94.0547V99.7025H97.2979V96.4863Z" fill="#0E0A1B"/>
<path d="M100.54 96.4863H97.2969V99.7025H100.54V96.4863Z" fill="#0E0A1B"/>
<path d="M103.786 96.4863H100.543V99.7025H103.786V96.4863Z" fill="#0E0A1B"/>
<path d="M110.274 96.4863H107.031V99.7025H110.274V96.4863Z" fill="#0E0A1B"/>
<path d="M35.6768 99.7012H32.4336V102.917H35.6768V99.7012Z" fill="#0E0A1B"/>
<path d="M38.9229 99.7012H35.6797V102.917H38.9229V99.7012Z" fill="#0E0A1B"/>
<path d="M45.4073 99.7012H42.1641V102.917H45.4073V99.7012Z" fill="#0E0A1B"/>
<path d="M48.6495 99.7012H45.4062V102.917H48.6495V99.7012Z" fill="#0E0A1B"/>
<path d="M51.8917 99.7012H48.6484V102.917H51.8917V99.7012Z" fill="#0E0A1B"/>
<path d="M55.1378 99.7012H51.8945V102.917H55.1378V99.7012Z" fill="#0E0A1B"/>
<path d="M58.38 99.7012H55.1367V102.917H58.38V99.7012Z" fill="#0E0A1B"/>
<path d="M61.6221 99.7012H58.3789V102.917H61.6221V99.7012Z" fill="#0E0A1B"/>
<path d="M68.1104 99.7012H64.8672V102.917H68.1104V99.7012Z" fill="#0E0A1B"/>
<path d="M74.5948 99.7012H71.3516V102.917H74.5948V99.7012Z" fill="#0E0A1B"/>
<path d="M77.8409 99.7012H74.5977V102.917H77.8409V99.7012Z" fill="#0E0A1B"/>
<path d="M81.0831 99.7012H77.8398V102.917H81.0831V99.7012Z" fill="#0E0A1B"/>
<path d="M84.3253 99.7012H81.082V102.917H84.3253V99.7012Z" fill="#0E0A1B"/>
<path d="M90.8136 99.7012H87.5703V102.917H90.8136V99.7012Z" fill="#0E0A1B"/>
<path d="M97.2979 99.7012H94.0547V102.917H97.2979V99.7012Z" fill="#0E0A1B"/>
<path d="M110.274 99.7012H107.031V102.917H110.274V99.7012Z" fill="#0E0A1B"/>
<path d="M38.9229 102.916H35.6797V106.132H38.9229V102.916Z" fill="#0E0A1B"/>
<path d="M45.4073 102.916H42.1641V106.132H45.4073V102.916Z" fill="#0E0A1B"/>
<path d="M48.6495 102.916H45.4062V106.132H48.6495V102.916Z" fill="#0E0A1B"/>
<path d="M55.1378 102.916H51.8945V106.132H55.1378V102.916Z" fill="#0E0A1B"/>
<path d="M58.38 102.916H55.1367V106.132H58.38V102.916Z" fill="#0E0A1B"/>
<path d="M64.8682 102.916H61.625V106.132H64.8682V102.916Z" fill="#0E0A1B"/>
<path d="M68.1104 102.916H64.8672V106.132H68.1104V102.916Z" fill="#0E0A1B"/>
<path d="M81.0831 102.916H77.8398V106.132H81.0831V102.916Z" fill="#0E0A1B"/>
<path d="M100.54 102.916H97.2969V106.132H100.54V102.916Z" fill="#0E0A1B"/>
<path d="M110.274 102.916H107.031V106.132H110.274V102.916Z" fill="#0E0A1B"/>
<path d="M113.517 102.916H110.273V106.132H113.517V102.916Z" fill="#0E0A1B"/>
<path d="M48.6495 106.131H45.4062V109.347H48.6495V106.131Z" fill="#0E0A1B"/>
<path d="M51.8917 106.131H48.6484V109.347H51.8917V106.131Z" fill="#0E0A1B"/>
<path d="M55.1378 106.131H51.8945V109.347H55.1378V106.131Z" fill="#0E0A1B"/>
<path d="M61.6221 106.131H58.3789V109.347H61.6221V106.131Z" fill="#0E0A1B"/>
<path d="M71.3526 106.131H68.1094V109.347H71.3526V106.131Z" fill="#0E0A1B"/>
<path d="M74.5948 106.131H71.3516V109.347H74.5948V106.131Z" fill="#0E0A1B"/>
<path d="M77.8409 106.131H74.5977V109.347H77.8409V106.131Z" fill="#0E0A1B"/>
<path d="M84.3253 106.131H81.082V109.347H84.3253V106.131Z" fill="#0E0A1B"/>
<path d="M90.8136 106.131H87.5703V109.347H90.8136V106.131Z" fill="#0E0A1B"/>
<path d="M94.0557 106.131H90.8125V109.347H94.0557V106.131Z" fill="#0E0A1B"/>
<path d="M103.786 106.131H100.543V109.347H103.786V106.131Z" fill="#0E0A1B"/>
<path d="M107.028 106.131H103.785V109.347H107.028V106.131Z" fill="#0E0A1B"/>
<path d="M110.274 106.131H107.031V109.347H110.274V106.131Z" fill="#0E0A1B"/>
<path d="M113.517 106.131H110.273V109.347H113.517V106.131Z" fill="#0E0A1B"/>
<path d="M38.9229 109.346H35.6797V112.562H38.9229V109.346Z" fill="#0E0A1B"/>
<path d="M42.1651 109.346H38.9219V112.562H42.1651V109.346Z" fill="#0E0A1B"/>
<path d="M45.4073 109.346H42.1641V112.562H45.4073V109.346Z" fill="#0E0A1B"/>
<path d="M48.6495 109.346H45.4062V112.562H48.6495V109.346Z" fill="#0E0A1B"/>
<path d="M51.8917 109.346H48.6484V112.562H51.8917V109.346Z" fill="#0E0A1B"/>
<path d="M68.1104 109.346H64.8672V112.562H68.1104V109.346Z" fill="#0E0A1B"/>
<path d="M74.5948 109.346H71.3516V112.562H74.5948V109.346Z" fill="#0E0A1B"/>
<path d="M77.8409 109.346H74.5977V112.562H77.8409V109.346Z" fill="#0E0A1B"/>
<path d="M84.3253 109.346H81.082V112.562H84.3253V109.346Z" fill="#0E0A1B"/>
<path d="M87.5714 109.346H84.3281V112.562H87.5714V109.346Z" fill="#0E0A1B"/>
<path d="M100.54 109.346H97.2969V112.562H100.54V109.346Z" fill="#0E0A1B"/>
<path d="M21.4401 6.42969H14.2392C10.7298 6.42969 7.75668 8.72899 6.80612 11.8717C6.70782 12.1967 6.63108 12.5308 6.57773 12.8724C6.51893 13.2493 6.48828 13.6351 6.48828 14.028V21.3384C6.48828 25.5301 9.96634 28.9389 14.2392 28.9389L17.8396 28.9396L21.4401 28.9387C25.7127 28.9387 29.191 25.5299 29.191 21.3381V14.028C29.191 9.83823 25.7129 6.42969 21.4401 6.42969ZM25.7856 21.3384C25.7856 23.6672 23.8363 25.5619 21.4391 25.5619L17.8396 25.5626L14.2401 25.5617C11.8429 25.5617 9.89369 23.6669 9.89369 21.3384V14.028C9.89369 13.3006 10.0839 12.6157 10.4188 12.0173C10.7412 11.4416 11.1973 10.9466 11.7465 10.5717C12.4525 10.0897 13.3123 9.80671 14.239 9.80671H21.4401C23.8363 9.80671 25.7856 11.7003 25.7856 14.028V21.3384Z" fill="#0E0A1B"/>
<path d="M105.764 6.42969H98.5634C95.054 6.42969 92.0809 8.72899 91.1303 11.8717C91.032 12.1967 90.9553 12.5308 90.9019 12.8724C90.8431 13.2493 90.8125 13.6351 90.8125 14.028V21.3384C90.8125 25.5301 94.2906 28.9389 98.5634 28.9389L102.164 28.9396L105.764 28.9387C110.037 28.9387 113.515 25.5299 113.515 21.3381V14.028C113.515 9.83823 110.037 6.42969 105.764 6.42969ZM110.11 21.3384C110.11 23.6672 108.161 25.5619 105.763 25.5619L102.164 25.5626L98.5643 25.5617C96.1672 25.5617 94.2179 23.6669 94.2179 21.3384V14.028C94.2179 13.3006 94.4082 12.6157 94.743 12.0173C95.0654 11.4416 95.5215 10.9466 96.0707 10.5717C96.7767 10.0897 97.6365 9.80671 98.5632 9.80671H105.764C108.161 9.80671 110.11 11.7003 110.11 14.028V21.3384Z" fill="#0E0A1B"/>
<path d="M21.4401 90.0547H14.2392C10.7298 90.0547 7.75668 92.354 6.80612 95.4967C6.70782 95.8217 6.63108 96.1558 6.57773 96.4974C6.51893 96.8743 6.48828 97.2601 6.48828 97.653V104.963C6.48828 109.155 9.96634 112.564 14.2392 112.564L17.8396 112.565L21.4401 112.564C25.7127 112.564 29.191 109.155 29.191 104.963V97.653C29.191 93.4632 25.7129 90.0547 21.4401 90.0547ZM25.7856 104.963C25.7856 107.292 23.8363 109.187 21.4391 109.187L17.8396 109.188L14.2401 109.187C11.8429 109.187 9.89369 107.292 9.89369 104.963V97.653C9.89369 96.9256 10.0839 96.2407 10.4188 95.6423C10.7412 95.0666 11.1973 94.5716 11.7465 94.1967C12.4525 93.7147 13.3123 93.4317 14.239 93.4317H21.4401C23.8363 93.4317 25.7856 95.3253 25.7856 97.653V104.963Z" fill="#0E0A1B"/>
<path d="M15.6352 22.508C14.167 22.508 12.9727 21.3471 12.9727 19.9214V15.4446C12.9727 14.9993 13.0894 14.5801 13.2938 14.2134C13.4913 13.8604 13.7707 13.5571 14.1072 13.3282C14.5395 13.0331 15.0665 12.8594 15.6337 12.8594H20.0439C21.5108 12.8594 22.7051 14.0189 22.7051 15.4445V19.9213C22.7051 21.3469 21.5109 22.5079 20.0439 22.5079H17.8389L15.6352 22.508Z" fill="#0E0A1B"/>
<path d="M99.9594 22.508C98.4912 22.508 97.2969 21.3471 97.2969 19.9214V15.4446C97.2969 14.9993 97.4136 14.5801 97.6181 14.2134C97.8155 13.8604 98.0949 13.5571 98.4315 13.3282C98.8638 13.0331 99.3907 12.8594 99.958 12.8594H104.368C105.835 12.8594 107.029 14.0189 107.029 15.4445V19.9213C107.029 21.3469 105.835 22.5079 104.368 22.5079H102.163L99.9594 22.508Z" fill="#0E0A1B"/>
<path d="M15.6352 106.135C14.167 106.135 12.9727 104.974 12.9727 103.548V99.0716C12.9727 98.6262 13.0894 98.2071 13.2938 97.8403C13.4913 97.4874 13.7707 97.184 14.1072 96.9552C14.5395 96.6601 15.0665 96.4863 15.6337 96.4863H20.0439C21.5108 96.4863 22.7051 97.6459 22.7051 99.0715V103.548C22.7051 104.974 21.5109 106.135 20.0439 106.135H17.8389L15.6352 106.135Z" fill="#0E0A1B"/>
<path d="M70.0546 59.9133C70.0144 55.6576 73.7165 53.5872 73.8857 53.4908C71.7892 50.582 68.5395 50.1846 67.3976 50.1529C64.6682 49.8795 62.0208 51.707 60.6305 51.707C59.2124 51.707 57.0714 50.1793 54.7639 50.2242C51.7945 50.2677 49.0167 51.9037 47.4931 54.4441C44.349 59.6241 46.6939 67.2361 49.7063 71.4231C51.2132 73.4736 52.974 75.7633 55.2787 75.6828C57.5334 75.5943 58.3757 74.3148 61.0967 74.3148C63.7927 74.3148 64.5835 75.6828 66.9341 75.6313C69.354 75.5943 70.8776 73.5714 72.3317 71.5023C74.073 69.1521 74.7723 66.8374 74.8001 66.7186C74.7433 66.7001 70.1005 65.0139 70.0546 59.9133Z" fill="#0E0A1B"/>
<path d="M65.6152 47.3991C66.8279 45.9559 67.6577 43.9925 67.4274 42C65.672 42.0739 63.4769 43.1553 62.2129 44.5669C61.0945 45.8107 60.0955 47.8493 60.3536 49.7666C62.3253 49.9065 64.3498 48.8198 65.6152 47.3991Z" fill="#0E0A1B"/>
</g>
<defs>
<clipPath id="clip0_3809_34997">
<rect width="120" height="119" rx="12" fill="white"/>
</clipPath>
</defs>
</svg>
