<svg width="120" height="120" viewBox="0 0 120 120" fill="none" xmlns="http://www.w3.org/2000/svg">
<g clip-path="url(#clip0_8043_52811)">
<path d="M120 -0.369141H0V119.999H120V-0.369141Z" fill="white"/>
<path d="M28.3993 6H26.0215V8.37779H28.3993V6Z" fill="black"/>
<path d="M33.1551 6H30.7773V8.37779H33.1551V6Z" fill="black"/>
<path d="M35.534 6H33.1562V8.37779H35.534V6Z" fill="black"/>
<path d="M37.91 6H35.5322V8.37779H37.91V6Z" fill="black"/>
<path d="M40.2879 6H37.9102V8.37779H40.2879V6Z" fill="black"/>
<path d="M42.6669 6H40.2891V8.37779H42.6669V6Z" fill="black"/>
<path d="M45.0438 6H42.666V8.37779H45.0438V6Z" fill="black"/>
<path d="M47.4227 6H45.0449V8.37779H47.4227V6Z" fill="black"/>
<path d="M52.1776 6H49.7998V8.37779H52.1776V6Z" fill="black"/>
<path d="M54.5555 6H52.1777V8.37779H54.5555V6Z" fill="black"/>
<path d="M56.9335 6H54.5557V8.37779H56.9335V6Z" fill="black"/>
<path d="M61.6883 6H59.3105V8.37779H61.6883V6Z" fill="black"/>
<path d="M64.0663 6H61.6885V8.37779H64.0663V6Z" fill="black"/>
<path d="M73.577 6H71.1992V8.37779H73.577V6Z" fill="black"/>
<path d="M75.9569 6H73.5791V8.37779H75.9569V6Z" fill="black"/>
<path d="M78.3338 6H75.9561V8.37779H78.3338V6Z" fill="black"/>
<path d="M80.7118 6H78.334V8.37779H80.7118V6Z" fill="black"/>
<path d="M83.0917 6H80.7139V8.37779H83.0917V6Z" fill="black"/>
<path d="M85.4667 6H83.0889V8.37779H85.4667V6Z" fill="black"/>
<path d="M87.8456 6H85.4678V8.37779H87.8456V6Z" fill="black"/>
<path d="M94.9774 6H92.5996V8.37779H94.9774V6Z" fill="black"/>
<path d="M28.3993 8.37891H26.0215V10.7567H28.3993V8.37891Z" fill="black"/>
<path d="M37.912 8.37891H35.5342V10.7567H37.912V8.37891Z" fill="black"/>
<path d="M40.2879 8.37891H37.9102V10.7567H40.2879V8.37891Z" fill="black"/>
<path d="M42.6669 8.37793H40.2891V10.7557H42.6669V8.37793Z" fill="black"/>
<path d="M47.4227 8.37891H45.0449V10.7567H47.4227V8.37891Z" fill="black"/>
<path d="M52.1776 8.37793H49.7998V10.7557H52.1776V8.37793Z" fill="black"/>
<path d="M61.6883 8.37891H59.3105V10.7567H61.6883V8.37891Z" fill="black"/>
<path d="M64.0663 8.37793H61.6885V10.7557H64.0663V8.37793Z" fill="black"/>
<path d="M66.4442 8.37793H64.0664V10.7557H66.4442V8.37793Z" fill="black"/>
<path d="M71.2001 8.37891H68.8223V10.7567H71.2001V8.37891Z" fill="black"/>
<path d="M73.577 8.37891H71.1992V10.7567H73.577V8.37891Z" fill="black"/>
<path d="M75.9569 8.37793H73.5791V10.7557H75.9569V8.37793Z" fill="black"/>
<path d="M80.7118 8.37793H78.334V10.7557H80.7118V8.37793Z" fill="black"/>
<path d="M87.8446 8.37793H85.4668V10.7557H87.8446V8.37793Z" fill="black"/>
<path d="M92.6014 8.37793H90.2236V10.7557H92.6014V8.37793Z" fill="black"/>
<path d="M30.7782 10.7559H28.4004V13.1336H30.7782V10.7559Z" fill="black"/>
<path d="M35.534 10.7559H33.1562V13.1336H35.534V10.7559Z" fill="black"/>
<path d="M40.2879 10.7559H37.9102V13.1336H40.2879V10.7559Z" fill="black"/>
<path d="M47.4227 10.7559H45.0449V13.1336H47.4227V10.7559Z" fill="black"/>
<path d="M59.3114 10.7559H56.9336V13.1336H59.3114V10.7559Z" fill="black"/>
<path d="M66.4442 10.7559H64.0664V13.1336H66.4442V10.7559Z" fill="black"/>
<path d="M73.577 10.7559H71.1992V13.1336H73.577V10.7559Z" fill="black"/>
<path d="M75.9549 10.7559H73.5771V13.1336H75.9549V10.7559Z" fill="black"/>
<path d="M85.4667 10.7559H83.0889V13.1336H85.4667V10.7559Z" fill="black"/>
<path d="M92.6024 10.7559H90.2246V13.1336H92.6024V10.7559Z" fill="black"/>
<path d="M28.3993 13.1328H26.0215V15.5106H28.3993V13.1328Z" fill="black"/>
<path d="M30.7782 13.1328H28.4004V15.5106H30.7782V13.1328Z" fill="black"/>
<path d="M33.1551 13.1328H30.7773V15.5106H33.1551V13.1328Z" fill="black"/>
<path d="M35.534 13.1328H33.1562V15.5106H35.534V13.1328Z" fill="black"/>
<path d="M37.91 13.1328H35.5322V15.5106H37.91V13.1328Z" fill="black"/>
<path d="M47.4227 13.1328H45.0449V15.5106H47.4227V13.1328Z" fill="black"/>
<path d="M54.5555 13.1328H52.1777V15.5106H54.5555V13.1328Z" fill="black"/>
<path d="M56.9344 13.1328H54.5566V15.5106H56.9344V13.1328Z" fill="black"/>
<path d="M61.6883 13.1328H59.3105V15.5106H61.6883V13.1328Z" fill="black"/>
<path d="M66.4442 13.1328H64.0664V15.5106H66.4442V13.1328Z" fill="black"/>
<path d="M68.8221 13.1328H66.4443V15.5106H68.8221V13.1328Z" fill="black"/>
<path d="M75.9569 13.1328H73.5791V15.5106H75.9569V13.1328Z" fill="black"/>
<path d="M80.7127 13.1328H78.335V15.5106H80.7127V13.1328Z" fill="black"/>
<path d="M92.6014 13.1328H90.2236V15.5106H92.6014V13.1328Z" fill="black"/>
<path d="M94.9774 13.1328H92.5996V15.5106H94.9774V13.1328Z" fill="black"/>
<path d="M28.3993 15.5107H26.0215V17.8885H28.3993V15.5107Z" fill="black"/>
<path d="M33.1551 15.5107H30.7773V17.8885H33.1551V15.5107Z" fill="black"/>
<path d="M37.91 15.5107H35.5322V17.8885H37.91V15.5107Z" fill="black"/>
<path d="M40.2879 15.5107H37.9102V17.8885H40.2879V15.5107Z" fill="black"/>
<path d="M42.6669 15.5107H40.2891V17.8885H42.6669V15.5107Z" fill="black"/>
<path d="M45.0438 15.5107H42.666V17.8885H45.0438V15.5107Z" fill="black"/>
<path d="M47.4227 15.5107H45.0449V17.8885H47.4227V15.5107Z" fill="black"/>
<path d="M49.7987 15.5107H47.4209V17.8885H49.7987V15.5107Z" fill="black"/>
<path d="M56.9344 15.5107H54.5566V17.8885H56.9344V15.5107Z" fill="black"/>
<path d="M59.3114 15.5107H56.9336V17.8885H59.3114V15.5107Z" fill="black"/>
<path d="M61.6883 15.5107H59.3105V17.8885H61.6883V15.5107Z" fill="black"/>
<path d="M64.0663 15.5107H61.6885V17.8885H64.0663V15.5107Z" fill="black"/>
<path d="M66.4442 15.5107H64.0664V17.8885H66.4442V15.5107Z" fill="black"/>
<path d="M68.8221 15.5107H66.4443V17.8885H68.8221V15.5107Z" fill="black"/>
<path d="M73.577 15.5107H71.1992V17.8885H73.577V15.5107Z" fill="black"/>
<path d="M78.3338 15.5107H75.9561V17.8885H78.3338V15.5107Z" fill="black"/>
<path d="M80.7118 15.5107H78.334V17.8885H80.7118V15.5107Z" fill="black"/>
<path d="M83.0917 15.5107H80.7139V17.8885H83.0917V15.5107Z" fill="black"/>
<path d="M87.8456 15.5107H85.4678V17.8885H87.8456V15.5107Z" fill="black"/>
<path d="M90.2225 15.5107H87.8447V17.8885H90.2225V15.5107Z" fill="black"/>
<path d="M92.6014 15.5107H90.2236V17.8885H92.6014V15.5107Z" fill="black"/>
<path d="M94.9774 15.5107H92.5996V17.8885H94.9774V15.5107Z" fill="black"/>
<path d="M28.3993 17.8887H26.0215V20.2665H28.3993V17.8887Z" fill="black"/>
<path d="M30.7782 17.8887H28.4004V20.2665H30.7782V17.8887Z" fill="black"/>
<path d="M33.1551 17.8887H30.7773V20.2665H33.1551V17.8887Z" fill="black"/>
<path d="M37.9129 17.8887H35.5352V20.2665H37.9129V17.8887Z" fill="black"/>
<path d="M40.2879 17.8887H37.9102V20.2665H40.2879V17.8887Z" fill="black"/>
<path d="M42.6669 17.8887H40.2891V20.2665H42.6669V17.8887Z" fill="black"/>
<path d="M45.0438 17.8887H42.666V20.2665H45.0438V17.8887Z" fill="black"/>
<path d="M49.7987 17.8887H47.4209V20.2665H49.7987V17.8887Z" fill="black"/>
<path d="M56.9344 17.8887H54.5566V20.2665H56.9344V17.8887Z" fill="black"/>
<path d="M66.4442 17.8887H64.0664V20.2665H66.4442V17.8887Z" fill="black"/>
<path d="M68.8221 17.8887H66.4443V20.2665H68.8221V17.8887Z" fill="black"/>
<path d="M73.577 17.8887H71.1992V20.2665H73.577V17.8887Z" fill="black"/>
<path d="M78.3338 17.8887H75.9561V20.2665H78.3338V17.8887Z" fill="black"/>
<path d="M80.7118 17.8887H78.334V20.2665H80.7118V17.8887Z" fill="black"/>
<path d="M83.0917 17.8887H80.7139V20.2665H83.0917V17.8887Z" fill="black"/>
<path d="M85.4667 17.8887H83.0889V20.2665H85.4667V17.8887Z" fill="black"/>
<path d="M87.8446 17.8887H85.4668V20.2665H87.8446V17.8887Z" fill="black"/>
<path d="M28.3993 20.2676H26.0215V22.6454H28.3993V20.2676Z" fill="black"/>
<path d="M33.1551 20.2666H30.7773V22.6444H33.1551V20.2666Z" fill="black"/>
<path d="M37.9129 20.2676H35.5352V22.6454H37.9129V20.2676Z" fill="black"/>
<path d="M42.6669 20.2666H40.2891V22.6444H42.6669V20.2666Z" fill="black"/>
<path d="M47.4227 20.2676H45.0449V22.6454H47.4227V20.2676Z" fill="black"/>
<path d="M52.1776 20.2666H49.7998V22.6444H52.1776V20.2666Z" fill="black"/>
<path d="M56.9344 20.2666H54.5566V22.6444H56.9344V20.2666Z" fill="black"/>
<path d="M61.6883 20.2676H59.3105V22.6454H61.6883V20.2676Z" fill="black"/>
<path d="M66.4442 20.2666H64.0664V22.6444H66.4442V20.2666Z" fill="black"/>
<path d="M71.2001 20.2676H68.8223V22.6454H71.2001V20.2676Z" fill="black"/>
<path d="M75.9569 20.2676H73.5791V22.6454H75.9569V20.2676Z" fill="black"/>
<path d="M80.7118 20.2666H78.334V22.6444H80.7118V20.2666Z" fill="black"/>
<path d="M85.4667 20.2676H83.0889V22.6454H85.4667V20.2676Z" fill="black"/>
<path d="M90.2225 20.2666H87.8447V22.6444H90.2225V20.2666Z" fill="black"/>
<path d="M94.9774 20.2676H92.5996V22.6454H94.9774V20.2676Z" fill="black"/>
<path d="M33.1551 22.6436H30.7773V25.0213H33.1551V22.6436Z" fill="black"/>
<path d="M37.91 22.6436H35.5322V25.0213H37.91V22.6436Z" fill="black"/>
<path d="M52.1766 22.6436H49.7988V25.0213H52.1766V22.6436Z" fill="black"/>
<path d="M54.5555 22.6436H52.1777V25.0213H54.5555V22.6436Z" fill="black"/>
<path d="M56.9344 22.6436H54.5566V25.0213H56.9344V22.6436Z" fill="black"/>
<path d="M66.4442 22.6436H64.0664V25.0213H66.4442V22.6436Z" fill="black"/>
<path d="M73.577 22.6436H71.1992V25.0213H73.577V22.6436Z" fill="black"/>
<path d="M85.4667 22.6436H83.0889V25.0213H85.4667V22.6436Z" fill="black"/>
<path d="M94.9774 22.6436H92.5996V25.0213H94.9774V22.6436Z" fill="black"/>
<path d="M16.5106 25.0215H14.1328V27.3993H16.5106V25.0215Z" fill="black"/>
<path d="M23.6454 25.0215H21.2676V27.3993H23.6454V25.0215Z" fill="black"/>
<path d="M33.1551 25.0215H30.7773V27.3993H33.1551V25.0215Z" fill="black"/>
<path d="M37.91 25.0215H35.5322V27.3993H37.91V25.0215Z" fill="black"/>
<path d="M40.2879 25.0215H37.9102V27.3993H40.2879V25.0215Z" fill="black"/>
<path d="M42.6669 25.0215H40.2891V27.3993H42.6669V25.0215Z" fill="black"/>
<path d="M45.0448 25.0215H42.667V27.3993H45.0448V25.0215Z" fill="black"/>
<path d="M47.4227 25.0215H45.0449V27.3993H47.4227V25.0215Z" fill="black"/>
<path d="M52.1766 25.0215H49.7988V27.3993H52.1766V25.0215Z" fill="black"/>
<path d="M56.9335 25.0215H54.5557V27.3993H56.9335V25.0215Z" fill="black"/>
<path d="M59.3114 25.0215H56.9336V27.3993H59.3114V25.0215Z" fill="black"/>
<path d="M61.6883 25.0215H59.3105V27.3993H61.6883V25.0215Z" fill="black"/>
<path d="M64.0663 25.0215H61.6885V27.3993H64.0663V25.0215Z" fill="black"/>
<path d="M66.4442 25.0215H64.0664V27.3993H66.4442V25.0215Z" fill="black"/>
<path d="M68.8221 25.0215H66.4443V27.3993H68.8221V25.0215Z" fill="black"/>
<path d="M73.577 25.0215H71.1992V27.3993H73.577V25.0215Z" fill="black"/>
<path d="M75.9549 25.0215H73.5771V27.3993H75.9549V25.0215Z" fill="black"/>
<path d="M80.7127 25.0215H78.335V27.3993H80.7127V25.0215Z" fill="black"/>
<path d="M87.8456 25.0215H85.4678V27.3993H87.8456V25.0215Z" fill="black"/>
<path d="M102.113 25.0215H99.7354V27.3993H102.113V25.0215Z" fill="black"/>
<path d="M104.49 25.0215H102.112V27.3993H104.49V25.0215Z" fill="black"/>
<path d="M106.867 25.0215H104.489V27.3993H106.867V25.0215Z" fill="black"/>
<path d="M111.624 25.0215H109.247V27.3993H111.624V25.0215Z" fill="black"/>
<path d="M114.001 25.0215H111.623V27.3993H114.001V25.0215Z" fill="black"/>
<path d="M11.7557 27.4004H9.37793V29.7782H11.7557V27.4004Z" fill="black"/>
<path d="M18.8885 27.4004H16.5107V29.7782H18.8885V27.4004Z" fill="black"/>
<path d="M21.2665 27.4004H18.8887V29.7782H21.2665V27.4004Z" fill="black"/>
<path d="M26.0213 27.4004H23.6436V29.7782H26.0213V27.4004Z" fill="black"/>
<path d="M28.3993 27.4004H26.0215V29.7782H28.3993V27.4004Z" fill="black"/>
<path d="M45.0438 27.4004H42.666V29.7782H45.0438V27.4004Z" fill="black"/>
<path d="M49.7987 27.4004H47.4209V29.7782H49.7987V27.4004Z" fill="black"/>
<path d="M52.1776 27.4004H49.7998V29.7782H52.1776V27.4004Z" fill="black"/>
<path d="M54.5555 27.4004H52.1777V29.7782H54.5555V27.4004Z" fill="black"/>
<path d="M56.9335 27.4004H54.5557V29.7782H56.9335V27.4004Z" fill="black"/>
<path d="M61.6883 27.4004H59.3105V29.7782H61.6883V27.4004Z" fill="black"/>
<path d="M64.0663 27.4004H61.6885V29.7782H64.0663V27.4004Z" fill="black"/>
<path d="M66.4442 27.4004H64.0664V29.7782H66.4442V27.4004Z" fill="black"/>
<path d="M68.8221 27.4004H66.4443V29.7782H68.8221V27.4004Z" fill="black"/>
<path d="M73.577 27.4004H71.1992V29.7782H73.577V27.4004Z" fill="black"/>
<path d="M75.9569 27.4004H73.5791V29.7782H75.9569V27.4004Z" fill="black"/>
<path d="M87.8446 27.4004H85.4668V29.7782H87.8446V27.4004Z" fill="black"/>
<path d="M92.6014 27.4004H90.2236V29.7782H92.6014V27.4004Z" fill="black"/>
<path d="M104.49 27.4004H102.112V29.7782H104.49V27.4004Z" fill="black"/>
<path d="M109.246 27.4004H106.868V29.7782H109.246V27.4004Z" fill="black"/>
<path d="M111.624 27.4004H109.247V29.7782H111.624V27.4004Z" fill="black"/>
<path d="M114 27.4004H111.622V29.7782H114V27.4004Z" fill="black"/>
<path d="M9.37779 29.7773H7V32.1551H9.37779V29.7773Z" fill="black"/>
<path d="M14.1336 29.7773H11.7559V32.1551H14.1336V29.7773Z" fill="black"/>
<path d="M16.5106 29.7773H14.1328V32.1551H16.5106V29.7773Z" fill="black"/>
<path d="M23.6444 29.7773H21.2666V32.1551H23.6444V29.7773Z" fill="black"/>
<path d="M28.3993 29.7773H26.0215V32.1551H28.3993V29.7773Z" fill="black"/>
<path d="M30.7782 29.7773H28.4004V32.1551H30.7782V29.7773Z" fill="black"/>
<path d="M45.0438 29.7773H42.666V32.1551H45.0438V29.7773Z" fill="black"/>
<path d="M47.4227 29.7773H45.0449V32.1551H47.4227V29.7773Z" fill="black"/>
<path d="M49.7987 29.7773H47.4209V32.1551H49.7987V29.7773Z" fill="black"/>
<path d="M56.9335 29.7773H54.5557V32.1551H56.9335V29.7773Z" fill="black"/>
<path d="M61.6883 29.7773H59.3105V32.1551H61.6883V29.7773Z" fill="black"/>
<path d="M66.4442 29.7773H64.0664V32.1551H66.4442V29.7773Z" fill="black"/>
<path d="M68.8221 29.7773H66.4443V32.1551H68.8221V29.7773Z" fill="black"/>
<path d="M78.3338 29.7773H75.9561V32.1551H78.3338V29.7773Z" fill="black"/>
<path d="M90.2225 29.7773H87.8447V32.1551H90.2225V29.7773Z" fill="black"/>
<path d="M94.9774 29.7773H92.5996V32.1551H94.9774V29.7773Z" fill="black"/>
<path d="M102.113 29.7773H99.7354V32.1551H102.113V29.7773Z" fill="black"/>
<path d="M104.49 29.7773H102.112V32.1551H104.49V29.7773Z" fill="black"/>
<path d="M106.867 29.7773H104.489V32.1551H106.867V29.7773Z" fill="black"/>
<path d="M109.246 29.7773H106.868V32.1551H109.246V29.7773Z" fill="black"/>
<path d="M114 29.7773H111.622V32.1551H114V29.7773Z" fill="black"/>
<path d="M9.37779 32.1562H7V34.534H9.37779V32.1562Z" fill="black"/>
<path d="M11.7567 32.1562H9.37891V34.534H11.7567V32.1562Z" fill="black"/>
<path d="M18.8885 32.1562H16.5107V34.534H18.8885V32.1562Z" fill="black"/>
<path d="M26.0213 32.1562H23.6436V34.534H26.0213V32.1562Z" fill="black"/>
<path d="M42.6669 32.1562H40.2891V34.534H42.6669V32.1562Z" fill="black"/>
<path d="M47.4227 32.1562H45.0449V34.534H47.4227V32.1562Z" fill="black"/>
<path d="M52.1766 32.1562H49.7988V34.534H52.1766V32.1562Z" fill="black"/>
<path d="M71.2001 32.1562H68.8223V34.534H71.2001V32.1562Z" fill="black"/>
<path d="M73.577 32.1562H71.1992V34.534H73.577V32.1562Z" fill="black"/>
<path d="M75.9549 32.1562H73.5771V34.534H75.9549V32.1562Z" fill="black"/>
<path d="M78.3338 32.1562H75.9561V34.534H78.3338V32.1562Z" fill="black"/>
<path d="M80.7127 32.1562H78.335V34.534H80.7127V32.1562Z" fill="black"/>
<path d="M83.0917 32.1562H80.7139V34.534H83.0917V32.1562Z" fill="black"/>
<path d="M90.2225 32.1562H87.8447V34.534H90.2225V32.1562Z" fill="black"/>
<path d="M92.6024 32.1562H90.2246V34.534H92.6024V32.1562Z" fill="black"/>
<path d="M97.3553 32.1562H94.9775V34.534H97.3553V32.1562Z" fill="black"/>
<path d="M99.7342 32.1562H97.3564V34.534H99.7342V32.1562Z" fill="black"/>
<path d="M104.49 32.1562H102.112V34.534H104.49V32.1562Z" fill="black"/>
<path d="M106.867 32.1562H104.489V34.534H106.867V32.1562Z" fill="black"/>
<path d="M114.001 32.1562H111.623V34.534H114.001V32.1562Z" fill="black"/>
<path d="M11.7567 34.5342H9.37891V36.912H11.7567V34.5342Z" fill="black"/>
<path d="M14.1336 34.5342H11.7559V36.912H14.1336V34.5342Z" fill="black"/>
<path d="M21.2665 34.5352H18.8887V36.9129H21.2665V34.5352Z" fill="black"/>
<path d="M23.6454 34.5352H21.2676V36.9129H23.6454V34.5352Z" fill="black"/>
<path d="M28.3993 34.5322H26.0215V36.91H28.3993V34.5322Z" fill="black"/>
<path d="M33.1551 34.5342H30.7773V36.912H33.1551V34.5342Z" fill="black"/>
<path d="M35.534 34.5322H33.1562V36.91H35.534V34.5322Z" fill="black"/>
<path d="M40.2879 34.5352H37.9102V36.9129H40.2879V34.5352Z" fill="black"/>
<path d="M42.6669 34.5352H40.2891V36.9129H42.6669V34.5352Z" fill="black"/>
<path d="M47.4227 34.5352H45.0449V36.9129H47.4227V34.5352Z" fill="black"/>
<path d="M49.7987 34.5352H47.4209V36.9129H49.7987V34.5352Z" fill="black"/>
<path d="M52.1766 34.5322H49.7988V36.91H52.1766V34.5322Z" fill="black"/>
<path d="M54.5555 34.5322H52.1777V36.91H54.5555V34.5322Z" fill="black"/>
<path d="M59.3114 34.5342H56.9336V36.912H59.3114V34.5342Z" fill="black"/>
<path d="M64.0663 34.5322H61.6885V36.91H64.0663V34.5322Z" fill="black"/>
<path d="M66.4442 34.5352H64.0664V36.9129H66.4442V34.5352Z" fill="black"/>
<path d="M73.577 34.5322H71.1992V36.91H73.577V34.5322Z" fill="black"/>
<path d="M75.9549 34.5342H73.5771V36.912H75.9549V34.5342Z" fill="black"/>
<path d="M83.0917 34.5361H80.7139V36.9139H83.0917V34.5361Z" fill="black"/>
<path d="M85.4667 34.5342H83.0889V36.912H85.4667V34.5342Z" fill="black"/>
<path d="M92.6024 34.5342H90.2246V36.912H92.6024V34.5342Z" fill="black"/>
<path d="M99.7342 34.5322H97.3564V36.91H99.7342V34.5322Z" fill="black"/>
<path d="M104.49 34.5342H102.112V36.912H104.49V34.5342Z" fill="black"/>
<path d="M106.869 34.5322H104.492V36.91H106.869V34.5322Z" fill="black"/>
<path d="M114.001 34.5361H111.623V36.9139H114.001V34.5361Z" fill="black"/>
<path d="M9.37779 36.9102H7V39.2879H9.37779V36.9102Z" fill="black"/>
<path d="M14.1336 36.9102H11.7559V39.2879H14.1336V36.9102Z" fill="black"/>
<path d="M16.5106 36.9102H14.1328V39.2879H16.5106V36.9102Z" fill="black"/>
<path d="M21.2665 36.9102H18.8887V39.2879H21.2665V36.9102Z" fill="black"/>
<path d="M26.0213 36.9102H23.6436V39.2879H26.0213V36.9102Z" fill="black"/>
<path d="M30.7782 36.9102H28.4004V39.2879H30.7782V36.9102Z" fill="black"/>
<path d="M33.1551 36.9102H30.7773V39.2879H33.1551V36.9102Z" fill="black"/>
<path d="M37.9129 36.9102H35.5352V39.2879H37.9129V36.9102Z" fill="black"/>
<path d="M40.2879 36.9102H37.9102V39.2879H40.2879V36.9102Z" fill="black"/>
<path d="M45.0448 36.9102H42.667V39.2879H45.0448V36.9102Z" fill="black"/>
<path d="M49.7987 36.9102H47.4209V39.2879H49.7987V36.9102Z" fill="black"/>
<path d="M52.1766 36.9102H49.7988V39.2879H52.1766V36.9102Z" fill="black"/>
<path d="M71.2001 36.9102H68.8223V39.2879H71.2001V36.9102Z" fill="black"/>
<path d="M90.2225 36.9102H87.8447V39.2879H90.2225V36.9102Z" fill="black"/>
<path d="M97.3553 36.9102H94.9775V39.2879H97.3553V36.9102Z" fill="black"/>
<path d="M106.869 36.9102H104.492V39.2879H106.869V36.9102Z" fill="black"/>
<path d="M109.246 36.9102H106.868V39.2879H109.246V36.9102Z" fill="black"/>
<path d="M114.001 36.9102H111.623V39.2879H114.001V36.9102Z" fill="black"/>
<path d="M11.7557 39.2891H9.37793V41.6669H11.7557V39.2891Z" fill="black"/>
<path d="M16.5106 39.2891H14.1328V41.6669H16.5106V39.2891Z" fill="black"/>
<path d="M21.2665 39.2891H18.8887V41.6669H21.2665V39.2891Z" fill="black"/>
<path d="M23.6444 39.2891H21.2666V41.6669H23.6444V39.2891Z" fill="black"/>
<path d="M30.7782 39.2891H28.4004V41.6669H30.7782V39.2891Z" fill="black"/>
<path d="M33.1551 39.2891H30.7773V41.6669H33.1551V39.2891Z" fill="black"/>
<path d="M40.2879 39.2891H37.9102V41.6669H40.2879V39.2891Z" fill="black"/>
<path d="M42.6669 39.2891H40.2891V41.6669H42.6669V39.2891Z" fill="black"/>
<path d="M45.0438 39.2891H42.666V41.6669H45.0438V39.2891Z" fill="black"/>
<path d="M47.4227 39.2891H45.0449V41.6669H47.4227V39.2891Z" fill="black"/>
<path d="M49.7987 39.2891H47.4209V41.6669H49.7987V39.2891Z" fill="black"/>
<path d="M54.5555 39.2891H52.1777V41.6669H54.5555V39.2891Z" fill="black"/>
<path d="M59.3114 39.2891H56.9336V41.6669H59.3114V39.2891Z" fill="black"/>
<path d="M64.0663 39.2891H61.6885V41.6669H64.0663V39.2891Z" fill="black"/>
<path d="M68.8221 39.2891H66.4443V41.6669H68.8221V39.2891Z" fill="black"/>
<path d="M71.2001 39.2891H68.8223V41.6669H71.2001V39.2891Z" fill="black"/>
<path d="M73.577 39.2891H71.1992V41.6669H73.577V39.2891Z" fill="black"/>
<path d="M78.3338 39.2891H75.9561V41.6669H78.3338V39.2891Z" fill="black"/>
<path d="M83.0917 39.2891H80.7139V41.6669H83.0917V39.2891Z" fill="black"/>
<path d="M92.6014 39.2891H90.2236V41.6669H92.6014V39.2891Z" fill="black"/>
<path d="M94.9774 39.2891H92.5996V41.6669H94.9774V39.2891Z" fill="black"/>
<path d="M97.3553 39.2891H94.9775V41.6669H97.3553V39.2891Z" fill="black"/>
<path d="M99.7352 39.2891H97.3574V41.6669H99.7352V39.2891Z" fill="black"/>
<path d="M104.49 39.2891H102.112V41.6669H104.49V39.2891Z" fill="black"/>
<path d="M106.869 39.2891H104.492V41.6669H106.869V39.2891Z" fill="black"/>
<path d="M109.246 39.2891H106.868V41.6669H109.246V39.2891Z" fill="black"/>
<path d="M111.623 39.2891H109.245V41.6669H111.623V39.2891Z" fill="black"/>
<path d="M11.7557 41.666H9.37793V44.0438H11.7557V41.666Z" fill="black"/>
<path d="M14.1336 41.667H11.7559V44.0448H14.1336V41.667Z" fill="black"/>
<path d="M16.5106 41.667H14.1328V44.0448H16.5106V41.667Z" fill="black"/>
<path d="M21.2665 41.666H18.8887V44.0438H21.2665V41.666Z" fill="black"/>
<path d="M26.0213 41.667H23.6436V44.0448H26.0213V41.667Z" fill="black"/>
<path d="M28.3993 41.667H26.0215V44.0448H28.3993V41.667Z" fill="black"/>
<path d="M33.1551 41.666H30.7773V44.0438H33.1551V41.666Z" fill="black"/>
<path d="M40.2879 41.667H37.9102V44.0448H40.2879V41.667Z" fill="black"/>
<path d="M45.0438 41.666H42.666V44.0438H45.0438V41.666Z" fill="black"/>
<path d="M52.1776 41.666H49.7998V44.0438H52.1776V41.666Z" fill="black"/>
<path d="M54.5555 41.666H52.1777V44.0438H54.5555V41.666Z" fill="black"/>
<path d="M56.9344 41.666H54.5566V44.0438H56.9344V41.666Z" fill="black"/>
<path d="M59.3114 41.667H56.9336V44.0448H59.3114V41.667Z" fill="black"/>
<path d="M61.6883 41.667H59.3105V44.0448H61.6883V41.667Z" fill="black"/>
<path d="M64.0663 41.666H61.6885V44.0438H64.0663V41.666Z" fill="black"/>
<path d="M66.4442 41.666H64.0664V44.0438H66.4442V41.666Z" fill="black"/>
<path d="M73.577 41.667H71.1992V44.0448H73.577V41.667Z" fill="black"/>
<path d="M75.9569 41.667H73.5791V44.0448H75.9569V41.667Z" fill="black"/>
<path d="M78.3338 41.666H75.9561V44.0438H78.3338V41.666Z" fill="black"/>
<path d="M83.0917 41.667H80.7139V44.0448H83.0917V41.667Z" fill="black"/>
<path d="M85.4667 41.667H83.0889V44.0448H85.4667V41.667Z" fill="black"/>
<path d="M87.8456 41.667H85.4678V44.0448H87.8456V41.667Z" fill="black"/>
<path d="M92.6014 41.667H90.2236V44.0448H92.6014V41.667Z" fill="black"/>
<path d="M102.113 41.666H99.7354V44.0438H102.113V41.666Z" fill="black"/>
<path d="M104.49 41.667H102.112V44.0448H104.49V41.667Z" fill="black"/>
<path d="M111.623 41.666H109.245V44.0438H111.623V41.666Z" fill="black"/>
<path d="M16.5106 44.0449H14.1328V46.4227H16.5106V44.0449Z" fill="black"/>
<path d="M23.6454 44.0449H21.2676V46.4227H23.6454V44.0449Z" fill="black"/>
<path d="M26.0213 44.0449H23.6436V46.4227H26.0213V44.0449Z" fill="black"/>
<path d="M28.3993 44.0449H26.0215V46.4227H28.3993V44.0449Z" fill="black"/>
<path d="M30.7782 44.0449H28.4004V46.4227H30.7782V44.0449Z" fill="black"/>
<path d="M33.1551 44.0449H30.7773V46.4227H33.1551V44.0449Z" fill="black"/>
<path d="M35.534 44.0449H33.1562V46.4227H35.534V44.0449Z" fill="black"/>
<path d="M37.9129 44.0449H35.5352V46.4227H37.9129V44.0449Z" fill="black"/>
<path d="M45.0448 44.0449H42.667V46.4227H45.0448V44.0449Z" fill="black"/>
<path d="M78.3338 44.0459H75.9561V46.4237H78.3338V44.0459Z" fill="black"/>
<path d="M80.7127 44.0459H78.335V46.4237H80.7127V44.0459Z" fill="black"/>
<path d="M83.0917 44.0459H80.7139V46.4237H83.0917V44.0459Z" fill="black"/>
<path d="M85.4667 44.0459H83.0889V46.4237H85.4667V44.0459Z" fill="black"/>
<path d="M106.869 44.0459H104.492V46.4237H106.869V44.0459Z" fill="black"/>
<path d="M114.001 44.0459H111.623V46.4237H114.001V44.0459Z" fill="black"/>
<path d="M9.37779 46.4209H7V48.7987H9.37779V46.4209Z" fill="black"/>
<path d="M11.7567 46.4209H9.37891V48.7987H11.7567V46.4209Z" fill="black"/>
<path d="M16.5106 46.4209H14.1328V48.7987H16.5106V46.4209Z" fill="black"/>
<path d="M18.8885 46.4209H16.5107V48.7987H18.8885V46.4209Z" fill="black"/>
<path d="M21.2665 46.4209H18.8887V48.7987H21.2665V46.4209Z" fill="black"/>
<path d="M28.3993 46.4209H26.0215V48.7987H28.3993V46.4209Z" fill="black"/>
<path d="M33.1551 46.4209H30.7773V48.7987H33.1551V46.4209Z" fill="black"/>
<path d="M42.6669 46.4209H40.2891V48.7987H42.6669V46.4209Z" fill="black"/>
<path d="M85.4667 46.4209H83.0889V48.7987H85.4667V46.4209Z" fill="black"/>
<path d="M99.7342 46.4209H97.3564V48.7987H99.7342V46.4209Z" fill="black"/>
<path d="M106.869 46.4209H104.492V48.7987H106.869V46.4209Z" fill="black"/>
<path d="M111.623 46.4209H109.245V48.7987H111.623V46.4209Z" fill="black"/>
<path d="M9.37779 48.7998H7V51.1776H9.37779V48.7998Z" fill="black"/>
<path d="M11.7557 48.7998H9.37793V51.1776H11.7557V48.7998Z" fill="black"/>
<path d="M21.2665 48.7998H18.8887V51.1776H21.2665V48.7998Z" fill="black"/>
<path d="M23.6444 48.7998H21.2666V51.1776H23.6444V48.7998Z" fill="black"/>
<path d="M30.7782 48.7998H28.4004V51.1776H30.7782V48.7998Z" fill="black"/>
<path d="M35.534 48.7988H33.1562V51.1766H35.534V48.7988Z" fill="black"/>
<path d="M37.91 48.7988H35.5322V51.1766H37.91V48.7988Z" fill="black"/>
<path d="M42.6669 48.7998H40.2891V51.1776H42.6669V48.7998Z" fill="black"/>
<path d="M80.7118 48.7998H78.334V51.1776H80.7118V48.7998Z" fill="black"/>
<path d="M83.0917 48.7988H80.7139V51.1766H83.0917V48.7988Z" fill="black"/>
<path d="M87.8456 48.7988H85.4678V51.1766H87.8456V48.7988Z" fill="black"/>
<path d="M92.6014 48.7998H90.2236V51.1776H92.6014V48.7998Z" fill="black"/>
<path d="M94.9774 48.7988H92.5996V51.1766H94.9774V48.7988Z" fill="black"/>
<path d="M102.113 48.7998H99.7354V51.1776H102.113V48.7998Z" fill="black"/>
<path d="M104.49 48.7988H102.112V51.1766H104.49V48.7988Z" fill="black"/>
<path d="M106.869 48.7988H104.492V51.1766H106.869V48.7988Z" fill="black"/>
<path d="M111.624 48.7998H109.247V51.1776H111.624V48.7998Z" fill="black"/>
<path d="M114 48.7998H111.622V51.1776H114V48.7998Z" fill="black"/>
<path d="M14.1336 51.1777H11.7559V53.5555H14.1336V51.1777Z" fill="black"/>
<path d="M16.5106 51.1777H14.1328V53.5555H16.5106V51.1777Z" fill="black"/>
<path d="M26.0213 51.1777H23.6436V53.5555H26.0213V51.1777Z" fill="black"/>
<path d="M28.3993 51.1777H26.0215V53.5555H28.3993V51.1777Z" fill="black"/>
<path d="M30.7782 51.1777H28.4004V53.5555H30.7782V51.1777Z" fill="black"/>
<path d="M33.1551 51.1777H30.7773V53.5555H33.1551V51.1777Z" fill="black"/>
<path d="M37.91 51.1777H35.5322V53.5555H37.91V51.1777Z" fill="black"/>
<path d="M45.0438 51.1777H42.666V53.5555H45.0438V51.1777Z" fill="black"/>
<path d="M80.7118 51.1787H78.334V53.5565H80.7118V51.1787Z" fill="black"/>
<path d="M85.4667 51.1787H83.0889V53.5565H85.4667V51.1787Z" fill="black"/>
<path d="M97.3553 51.1787H94.9775V53.5565H97.3553V51.1787Z" fill="black"/>
<path d="M99.7342 51.1787H97.3564V53.5565H99.7342V51.1787Z" fill="black"/>
<path d="M102.113 51.1787H99.7354V53.5565H102.113V51.1787Z" fill="black"/>
<path d="M114 51.1787H111.622V53.5565H114V51.1787Z" fill="black"/>
<path d="M9.37779 53.5557H7V55.9335H9.37779V53.5557Z" fill="black"/>
<path d="M11.7557 53.5557H9.37793V55.9335H11.7557V53.5557Z" fill="black"/>
<path d="M16.5106 53.5566H14.1328V55.9344H16.5106V53.5566Z" fill="black"/>
<path d="M18.8885 53.5566H16.5107V55.9344H18.8885V53.5566Z" fill="black"/>
<path d="M21.2665 53.5566H18.8887V55.9344H21.2665V53.5566Z" fill="black"/>
<path d="M23.6444 53.5566H21.2666V55.9344H23.6444V53.5566Z" fill="black"/>
<path d="M26.0213 53.5566H23.6436V55.9344H26.0213V53.5566Z" fill="black"/>
<path d="M28.3993 53.5557H26.0215V55.9335H28.3993V53.5557Z" fill="black"/>
<path d="M30.7782 53.5557H28.4004V55.9335H30.7782V53.5557Z" fill="black"/>
<path d="M33.1551 53.5557H30.7773V55.9335H33.1551V53.5557Z" fill="black"/>
<path d="M37.912 53.5557H35.5342V55.9335H37.912V53.5557Z" fill="black"/>
<path d="M40.2879 53.5566H37.9102V55.9344H40.2879V53.5566Z" fill="black"/>
<path d="M45.0438 53.5566H42.666V55.9344H45.0438V53.5566Z" fill="black"/>
<path d="M78.3338 53.5566H75.9561V55.9344H78.3338V53.5566Z" fill="black"/>
<path d="M83.0917 53.5576H80.7139V55.9354H83.0917V53.5576Z" fill="black"/>
<path d="M87.8446 53.5576H85.4668V55.9354H87.8446V53.5576Z" fill="black"/>
<path d="M90.2225 53.5576H87.8447V55.9354H90.2225V53.5576Z" fill="black"/>
<path d="M92.6014 53.5566H90.2236V55.9344H92.6014V53.5566Z" fill="black"/>
<path d="M94.9774 53.5576H92.5996V55.9354H94.9774V53.5576Z" fill="black"/>
<path d="M97.3553 53.5576H94.9775V55.9354H97.3553V53.5576Z" fill="black"/>
<path d="M99.7342 53.5566H97.3564V55.9344H99.7342V53.5566Z" fill="black"/>
<path d="M102.113 53.5576H99.7354V55.9354H102.113V53.5576Z" fill="black"/>
<path d="M104.49 53.5566H102.112V55.9344H104.49V53.5566Z" fill="black"/>
<path d="M106.867 53.5566H104.489V55.9344H106.867V53.5566Z" fill="black"/>
<path d="M111.624 53.5566H109.247V55.9344H111.624V53.5566Z" fill="black"/>
<path d="M114 53.5576H111.622V55.9354H114V53.5576Z" fill="black"/>
<path d="M16.5106 55.9336H14.1328V58.3114H16.5106V55.9336Z" fill="black"/>
<path d="M18.8885 55.9336H16.5107V58.3114H18.8885V55.9336Z" fill="black"/>
<path d="M28.3993 55.9336H26.0215V58.3114H28.3993V55.9336Z" fill="black"/>
<path d="M35.534 55.9336H33.1562V58.3114H35.534V55.9336Z" fill="black"/>
<path d="M40.2879 55.9336H37.9102V58.3114H40.2879V55.9336Z" fill="black"/>
<path d="M80.7127 55.9346H78.335V58.3124H80.7127V55.9346Z" fill="black"/>
<path d="M83.0917 55.9346H80.7139V58.3124H83.0917V55.9346Z" fill="black"/>
<path d="M94.9774 55.9346H92.5996V58.3124H94.9774V55.9346Z" fill="black"/>
<path d="M104.49 55.9346H102.112V58.3124H104.49V55.9346Z" fill="black"/>
<path d="M109.246 55.9346H106.868V58.3124H109.246V55.9346Z" fill="black"/>
<path d="M111.624 55.9346H109.247V58.3124H111.624V55.9346Z" fill="black"/>
<path d="M114.001 55.9346H111.623V58.3124H114.001V55.9346Z" fill="black"/>
<path d="M9.37779 58.3105H7V60.6883H9.37779V58.3105Z" fill="black"/>
<path d="M11.7567 58.3105H9.37891V60.6883H11.7567V58.3105Z" fill="black"/>
<path d="M18.8885 58.3105H16.5107V60.6883H18.8885V58.3105Z" fill="black"/>
<path d="M23.6454 58.3105H21.2676V60.6883H23.6454V58.3105Z" fill="black"/>
<path d="M28.3993 58.3105H26.0215V60.6883H28.3993V58.3105Z" fill="black"/>
<path d="M30.7782 58.3105H28.4004V60.6883H30.7782V58.3105Z" fill="black"/>
<path d="M35.534 58.3105H33.1562V60.6883H35.534V58.3105Z" fill="black"/>
<path d="M37.91 58.3105H35.5322V60.6883H37.91V58.3105Z" fill="black"/>
<path d="M45.0448 58.3105H42.667V60.6883H45.0448V58.3105Z" fill="black"/>
<path d="M80.7127 58.3115H78.335V60.6893H80.7127V58.3115Z" fill="black"/>
<path d="M90.2225 58.3115H87.8447V60.6893H90.2225V58.3115Z" fill="black"/>
<path d="M94.9774 58.3115H92.5996V60.6893H94.9774V58.3115Z" fill="black"/>
<path d="M99.7342 58.3115H97.3564V60.6893H99.7342V58.3115Z" fill="black"/>
<path d="M104.49 58.3115H102.112V60.6893H104.49V58.3115Z" fill="black"/>
<path d="M106.867 58.3115H104.489V60.6893H106.867V58.3115Z" fill="black"/>
<path d="M114.001 58.3115H111.623V60.6893H114.001V58.3115Z" fill="black"/>
<path d="M9.37779 60.6885H7V63.0663H9.37779V60.6885Z" fill="black"/>
<path d="M14.1336 60.6885H11.7559V63.0663H14.1336V60.6885Z" fill="black"/>
<path d="M18.8885 60.6885H16.5107V63.0663H18.8885V60.6885Z" fill="black"/>
<path d="M28.3993 60.6885H26.0215V63.0663H28.3993V60.6885Z" fill="black"/>
<path d="M30.7782 60.6885H28.4004V63.0663H30.7782V60.6885Z" fill="black"/>
<path d="M45.0438 60.6885H42.666V63.0663H45.0438V60.6885Z" fill="black"/>
<path d="M78.3338 60.6895H75.9561V63.0672H78.3338V60.6895Z" fill="black"/>
<path d="M80.7118 60.6895H78.334V63.0672H80.7118V60.6895Z" fill="black"/>
<path d="M87.8456 60.6895H85.4678V63.0672H87.8456V60.6895Z" fill="black"/>
<path d="M90.2225 60.6895H87.8447V63.0672H90.2225V60.6895Z" fill="black"/>
<path d="M94.9774 60.6895H92.5996V63.0672H94.9774V60.6895Z" fill="black"/>
<path d="M104.49 60.6895H102.112V63.0672H104.49V60.6895Z" fill="black"/>
<path d="M106.869 60.6895H104.492V63.0672H106.869V60.6895Z" fill="black"/>
<path d="M9.37779 63.0664H7V65.4442H9.37779V63.0664Z" fill="black"/>
<path d="M14.1336 63.0664H11.7559V65.4442H14.1336V63.0664Z" fill="black"/>
<path d="M18.8885 63.0664H16.5107V65.4442H18.8885V63.0664Z" fill="black"/>
<path d="M21.2665 63.0664H18.8887V65.4442H21.2665V63.0664Z" fill="black"/>
<path d="M23.6444 63.0664H21.2666V65.4442H23.6444V63.0664Z" fill="black"/>
<path d="M26.0213 63.0664H23.6436V65.4442H26.0213V63.0664Z" fill="black"/>
<path d="M28.3993 63.0664H26.0215V65.4442H28.3993V63.0664Z" fill="black"/>
<path d="M42.6669 63.0664H40.2891V65.4442H42.6669V63.0664Z" fill="black"/>
<path d="M45.0438 63.0664H42.666V65.4442H45.0438V63.0664Z" fill="black"/>
<path d="M80.7118 63.0674H78.334V65.4452H80.7118V63.0674Z" fill="black"/>
<path d="M83.0917 63.0674H80.7139V65.4452H83.0917V63.0674Z" fill="black"/>
<path d="M85.4667 63.0674H83.0889V65.4452H85.4667V63.0674Z" fill="black"/>
<path d="M87.8446 63.0674H85.4668V65.4452H87.8446V63.0674Z" fill="black"/>
<path d="M90.2225 63.0674H87.8447V65.4452H90.2225V63.0674Z" fill="black"/>
<path d="M94.9774 63.0674H92.5996V65.4452H94.9774V63.0674Z" fill="black"/>
<path d="M97.3553 63.0674H94.9775V65.4452H97.3553V63.0674Z" fill="black"/>
<path d="M99.7352 63.0674H97.3574V65.4452H99.7352V63.0674Z" fill="black"/>
<path d="M102.113 63.0674H99.7354V65.4452H102.113V63.0674Z" fill="black"/>
<path d="M104.49 63.0674H102.112V65.4452H104.49V63.0674Z" fill="black"/>
<path d="M106.869 63.0674H104.492V65.4452H106.869V63.0674Z" fill="black"/>
<path d="M111.623 63.0674H109.245V65.4452H111.623V63.0674Z" fill="black"/>
<path d="M9.37779 65.4443H7V67.8221H9.37779V65.4443Z" fill="black"/>
<path d="M16.5106 65.4443H14.1328V67.8221H16.5106V65.4443Z" fill="black"/>
<path d="M18.8885 65.4443H16.5107V67.8221H18.8885V65.4443Z" fill="black"/>
<path d="M28.3993 65.4443H26.0215V67.8221H28.3993V65.4443Z" fill="black"/>
<path d="M30.7782 65.4443H28.4004V67.8221H30.7782V65.4443Z" fill="black"/>
<path d="M33.1551 65.4443H30.7773V67.8221H33.1551V65.4443Z" fill="black"/>
<path d="M40.2879 65.4443H37.9102V67.8221H40.2879V65.4443Z" fill="black"/>
<path d="M42.6669 65.4443H40.2891V67.8221H42.6669V65.4443Z" fill="black"/>
<path d="M45.0448 65.4443H42.667V67.8221H45.0448V65.4443Z" fill="black"/>
<path d="M78.3338 65.4453H75.9561V67.8231H78.3338V65.4453Z" fill="black"/>
<path d="M83.0917 65.4453H80.7139V67.8231H83.0917V65.4453Z" fill="black"/>
<path d="M90.2225 65.4453H87.8447V67.8231H90.2225V65.4453Z" fill="black"/>
<path d="M97.3553 65.4453H94.9775V67.8231H97.3553V65.4453Z" fill="black"/>
<path d="M99.7342 65.4453H97.3564V67.8231H99.7342V65.4453Z" fill="black"/>
<path d="M104.49 65.4453H102.112V67.8231H104.49V65.4453Z" fill="black"/>
<path d="M106.869 65.4453H104.492V67.8231H106.869V65.4453Z" fill="black"/>
<path d="M109.246 65.4453H106.868V67.8231H109.246V65.4453Z" fill="black"/>
<path d="M114.001 65.4453H111.623V67.8231H114.001V65.4453Z" fill="black"/>
<path d="M16.5106 67.8223H14.1328V70.2001H16.5106V67.8223Z" fill="black"/>
<path d="M21.2665 67.8223H18.8887V70.2001H21.2665V67.8223Z" fill="black"/>
<path d="M23.6454 67.8223H21.2676V70.2001H23.6454V67.8223Z" fill="black"/>
<path d="M28.3993 67.8223H26.0215V70.2001H28.3993V67.8223Z" fill="black"/>
<path d="M30.7782 67.8223H28.4004V70.2001H30.7782V67.8223Z" fill="black"/>
<path d="M35.534 67.8223H33.1562V70.2001H35.534V67.8223Z" fill="black"/>
<path d="M40.2879 67.8223H37.9102V70.2001H40.2879V67.8223Z" fill="black"/>
<path d="M42.6669 67.8223H40.2891V70.2001H42.6669V67.8223Z" fill="black"/>
<path d="M45.0448 67.8223H42.667V70.2001H45.0448V67.8223Z" fill="black"/>
<path d="M83.0917 67.8232H80.7139V70.201H83.0917V67.8232Z" fill="black"/>
<path d="M94.9774 67.8232H92.5996V70.201H94.9774V67.8232Z" fill="black"/>
<path d="M97.3553 67.8232H94.9775V70.201H97.3553V67.8232Z" fill="black"/>
<path d="M102.113 67.8232H99.7354V70.201H102.113V67.8232Z" fill="black"/>
<path d="M109.244 67.8232H106.866V70.201H109.244V67.8232Z" fill="black"/>
<path d="M111.623 67.8232H109.245V70.201H111.623V67.8232Z" fill="black"/>
<path d="M9.37779 70.1992H7V72.577H9.37779V70.1992Z" fill="black"/>
<path d="M16.5106 70.1992H14.1328V72.577H16.5106V70.1992Z" fill="black"/>
<path d="M18.8885 70.1992H16.5107V72.577H18.8885V70.1992Z" fill="black"/>
<path d="M21.2665 70.1992H18.8887V72.577H21.2665V70.1992Z" fill="black"/>
<path d="M26.0213 70.1992H23.6436V72.577H26.0213V70.1992Z" fill="black"/>
<path d="M30.7782 70.1992H28.4004V72.577H30.7782V70.1992Z" fill="black"/>
<path d="M35.534 70.1992H33.1562V72.577H35.534V70.1992Z" fill="black"/>
<path d="M42.6669 70.1992H40.2891V72.577H42.6669V70.1992Z" fill="black"/>
<path d="M78.3338 70.2002H75.9561V72.578H78.3338V70.2002Z" fill="black"/>
<path d="M80.7127 70.2002H78.335V72.578H80.7127V70.2002Z" fill="black"/>
<path d="M83.0917 70.2002H80.7139V72.578H83.0917V70.2002Z" fill="black"/>
<path d="M85.4667 70.2002H83.0889V72.578H85.4667V70.2002Z" fill="black"/>
<path d="M90.2225 70.2002H87.8447V72.578H90.2225V70.2002Z" fill="black"/>
<path d="M97.3553 70.2002H94.9775V72.578H97.3553V70.2002Z" fill="black"/>
<path d="M99.7342 70.2002H97.3564V72.578H99.7342V70.2002Z" fill="black"/>
<path d="M104.49 70.2002H102.112V72.578H104.49V70.2002Z" fill="black"/>
<path d="M9.37779 72.5791H7V74.9569H9.37779V72.5791Z" fill="black"/>
<path d="M11.7557 72.5791H9.37793V74.9569H11.7557V72.5791Z" fill="black"/>
<path d="M16.5106 72.5791H14.1328V74.9569H16.5106V72.5791Z" fill="black"/>
<path d="M18.8885 72.5791H16.5107V74.9569H18.8885V72.5791Z" fill="black"/>
<path d="M23.6454 72.5791H21.2676V74.9569H23.6454V72.5791Z" fill="black"/>
<path d="M30.7782 72.5791H28.4004V74.9569H30.7782V72.5791Z" fill="black"/>
<path d="M35.534 72.5771H33.1562V74.9549H35.534V72.5771Z" fill="black"/>
<path d="M42.6669 72.5791H40.2891V74.9569H42.6669V72.5791Z" fill="black"/>
<path d="M45.0448 72.5791H42.667V74.9569H45.0448V72.5791Z" fill="black"/>
<path d="M80.7118 72.5791H78.334V74.9569H80.7118V72.5791Z" fill="black"/>
<path d="M85.4667 72.5781H83.0889V74.9559H85.4667V72.5781Z" fill="black"/>
<path d="M87.8446 72.5791H85.4668V74.9569H87.8446V72.5791Z" fill="black"/>
<path d="M90.2225 72.5791H87.8447V74.9569H90.2225V72.5791Z" fill="black"/>
<path d="M102.113 72.5791H99.7354V74.9569H102.113V72.5791Z" fill="black"/>
<path d="M104.49 72.5781H102.112V74.9559H104.49V72.5781Z" fill="black"/>
<path d="M111.624 72.5791H109.247V74.9569H111.624V72.5791Z" fill="black"/>
<path d="M14.1336 74.9561H11.7559V77.3338H14.1336V74.9561Z" fill="black"/>
<path d="M21.2665 74.9561H18.8887V77.3338H21.2665V74.9561Z" fill="black"/>
<path d="M26.0213 74.9561H23.6436V77.3338H26.0213V74.9561Z" fill="black"/>
<path d="M35.534 74.9561H33.1562V77.3338H35.534V74.9561Z" fill="black"/>
<path d="M40.2879 74.9561H37.9102V77.3338H40.2879V74.9561Z" fill="black"/>
<path d="M42.6669 74.9561H40.2891V77.3338H42.6669V74.9561Z" fill="black"/>
<path d="M45.0438 74.9561H42.666V77.3338H45.0438V74.9561Z" fill="black"/>
<path d="M47.4237 74.9561H45.0459V77.3338H47.4237V74.9561Z" fill="black"/>
<path d="M56.9344 74.9561H54.5566V77.3338H56.9344V74.9561Z" fill="black"/>
<path d="M59.3124 74.9561H56.9346V77.3338H59.3124V74.9561Z" fill="black"/>
<path d="M64.0672 74.9561H61.6895V77.3338H64.0672V74.9561Z" fill="black"/>
<path d="M66.4452 74.9561H64.0674V77.3338H66.4452V74.9561Z" fill="black"/>
<path d="M73.578 74.9561H71.2002V77.3338H73.578V74.9561Z" fill="black"/>
<path d="M80.7118 74.9561H78.334V77.3338H80.7118V74.9561Z" fill="black"/>
<path d="M92.6014 74.9561H90.2236V77.3338H92.6014V74.9561Z" fill="black"/>
<path d="M111.624 74.9561H109.247V77.3338H111.624V74.9561Z" fill="black"/>
<path d="M9.37779 77.334H7V79.7118H9.37779V77.334Z" fill="black"/>
<path d="M16.5106 77.335H14.1328V79.7127H16.5106V77.335Z" fill="black"/>
<path d="M18.8885 77.334H16.5107V79.7118H18.8885V77.334Z" fill="black"/>
<path d="M21.2665 77.334H18.8887V79.7118H21.2665V77.334Z" fill="black"/>
<path d="M23.6444 77.334H21.2666V79.7118H23.6444V77.334Z" fill="black"/>
<path d="M28.3993 77.335H26.0215V79.7127H28.3993V77.335Z" fill="black"/>
<path d="M40.2879 77.335H37.9102V79.7127H40.2879V77.335Z" fill="black"/>
<path d="M42.6669 77.334H40.2891V79.7118H42.6669V77.334Z" fill="black"/>
<path d="M45.0438 77.334H42.666V79.7118H45.0438V77.334Z" fill="black"/>
<path d="M52.1776 77.334H49.7998V79.7118H52.1776V77.334Z" fill="black"/>
<path d="M56.9344 77.334H54.5566V79.7118H56.9344V77.334Z" fill="black"/>
<path d="M61.6893 77.335H59.3115V79.7127H61.6893V77.335Z" fill="black"/>
<path d="M64.0672 77.334H61.6895V79.7118H64.0672V77.334Z" fill="black"/>
<path d="M68.8231 77.335H66.4453V79.7127H68.8231V77.335Z" fill="black"/>
<path d="M83.0917 77.335H80.7139V79.7127H83.0917V77.335Z" fill="black"/>
<path d="M87.8456 77.334H85.4678V79.7118H87.8456V77.334Z" fill="black"/>
<path d="M94.9774 77.335H92.5996V79.7127H94.9774V77.335Z" fill="black"/>
<path d="M97.3553 77.335H94.9775V79.7127H97.3553V77.335Z" fill="black"/>
<path d="M99.7342 77.334H97.3564V79.7118H99.7342V77.334Z" fill="black"/>
<path d="M104.49 77.335H102.112V79.7127H104.49V77.335Z" fill="black"/>
<path d="M109.245 77.334H106.867V79.7118H109.245V77.334Z" fill="black"/>
<path d="M111.624 77.334H109.247V79.7118H111.624V77.334Z" fill="black"/>
<path d="M114 77.334H111.622V79.7118H114V77.334Z" fill="black"/>
<path d="M11.7567 79.7139H9.37891V82.0917H11.7567V79.7139Z" fill="black"/>
<path d="M16.5106 79.7139H14.1328V82.0917H16.5106V79.7139Z" fill="black"/>
<path d="M21.2665 79.7139H18.8887V82.0917H21.2665V79.7139Z" fill="black"/>
<path d="M33.1551 79.7139H30.7773V82.0917H33.1551V79.7139Z" fill="black"/>
<path d="M42.6669 79.7139H40.2891V82.0917H42.6669V79.7139Z" fill="black"/>
<path d="M45.0448 79.7139H42.667V82.0917H45.0448V79.7139Z" fill="black"/>
<path d="M49.7987 79.7139H47.4209V82.0917H49.7987V79.7139Z" fill="black"/>
<path d="M54.5565 79.7139H52.1787V82.0917H54.5565V79.7139Z" fill="black"/>
<path d="M59.3124 79.7139H56.9346V82.0917H59.3124V79.7139Z" fill="black"/>
<path d="M61.6893 79.7139H59.3115V82.0917H61.6893V79.7139Z" fill="black"/>
<path d="M66.4452 79.7139H64.0674V82.0917H66.4452V79.7139Z" fill="black"/>
<path d="M68.8231 79.7139H66.4453V82.0917H68.8231V79.7139Z" fill="black"/>
<path d="M71.201 79.7139H68.8232V82.0917H71.201V79.7139Z" fill="black"/>
<path d="M75.9569 79.7139H73.5791V82.0917H75.9569V79.7139Z" fill="black"/>
<path d="M85.4667 79.7139H83.0889V82.0917H85.4667V79.7139Z" fill="black"/>
<path d="M87.8446 79.7139H85.4668V82.0917H87.8446V79.7139Z" fill="black"/>
<path d="M90.2225 79.7139H87.8447V82.0917H90.2225V79.7139Z" fill="black"/>
<path d="M94.9774 79.7139H92.5996V82.0917H94.9774V79.7139Z" fill="black"/>
<path d="M99.7342 79.7139H97.3564V82.0917H99.7342V79.7139Z" fill="black"/>
<path d="M104.49 79.7139H102.112V82.0917H104.49V79.7139Z" fill="black"/>
<path d="M9.37779 82.0889H7V84.4667H9.37779V82.0889Z" fill="black"/>
<path d="M11.7567 82.0889H9.37891V84.4667H11.7567V82.0889Z" fill="black"/>
<path d="M23.6454 82.0889H21.2676V84.4667H23.6454V82.0889Z" fill="black"/>
<path d="M26.0213 82.0889H23.6436V84.4667H26.0213V82.0889Z" fill="black"/>
<path d="M33.1551 82.0889H30.7773V84.4667H33.1551V82.0889Z" fill="black"/>
<path d="M37.912 82.0889H35.5342V84.4667H37.912V82.0889Z" fill="black"/>
<path d="M42.6669 82.0889H40.2891V84.4667H42.6669V82.0889Z" fill="black"/>
<path d="M45.0448 82.0889H42.667V84.4667H45.0448V82.0889Z" fill="black"/>
<path d="M52.1766 82.0889H49.7988V84.4667H52.1766V82.0889Z" fill="black"/>
<path d="M56.9344 82.0889H54.5566V84.4667H56.9344V82.0889Z" fill="black"/>
<path d="M64.0672 82.0889H61.6895V84.4667H64.0672V82.0889Z" fill="black"/>
<path d="M68.8231 82.0889H66.4453V84.4667H68.8231V82.0889Z" fill="black"/>
<path d="M73.578 82.0889H71.2002V84.4667H73.578V82.0889Z" fill="black"/>
<path d="M78.3338 82.0889H75.9561V84.4667H78.3338V82.0889Z" fill="black"/>
<path d="M80.7127 82.0889H78.335V84.4667H80.7127V82.0889Z" fill="black"/>
<path d="M83.0917 82.0889H80.7139V84.4667H83.0917V82.0889Z" fill="black"/>
<path d="M87.8446 82.0889H85.4668V84.4667H87.8446V82.0889Z" fill="black"/>
<path d="M92.6024 82.0889H90.2246V84.4667H92.6024V82.0889Z" fill="black"/>
<path d="M97.3553 82.0889H94.9775V84.4667H97.3553V82.0889Z" fill="black"/>
<path d="M111.624 82.0889H109.247V84.4667H111.624V82.0889Z" fill="black"/>
<path d="M11.7557 84.4668H9.37793V86.8446H11.7557V84.4668Z" fill="black"/>
<path d="M14.1336 84.4668H11.7559V86.8446H14.1336V84.4668Z" fill="black"/>
<path d="M16.5106 84.4678H14.1328V86.8456H16.5106V84.4678Z" fill="black"/>
<path d="M21.2665 84.4668H18.8887V86.8446H21.2665V84.4668Z" fill="black"/>
<path d="M30.7782 84.4668H28.4004V86.8446H30.7782V84.4668Z" fill="black"/>
<path d="M35.534 84.4678H33.1562V86.8456H35.534V84.4678Z" fill="black"/>
<path d="M37.91 84.4678H35.5322V86.8456H37.91V84.4678Z" fill="black"/>
<path d="M47.4237 84.4668H45.0459V86.8446H47.4237V84.4668Z" fill="black"/>
<path d="M52.1766 84.4678H49.7988V86.8456H52.1766V84.4678Z" fill="black"/>
<path d="M54.5565 84.4678H52.1787V86.8456H54.5565V84.4678Z" fill="black"/>
<path d="M59.3124 84.4668H56.9346V86.8446H59.3124V84.4668Z" fill="black"/>
<path d="M66.4452 84.4668H64.0674V86.8446H66.4452V84.4668Z" fill="black"/>
<path d="M75.9569 84.4668H73.5791V86.8446H75.9569V84.4668Z" fill="black"/>
<path d="M85.4667 84.4668H83.0889V86.8446H85.4667V84.4668Z" fill="black"/>
<path d="M92.6014 84.4668H90.2236V86.8446H92.6014V84.4668Z" fill="black"/>
<path d="M97.3553 84.4678H94.9775V86.8456H97.3553V84.4678Z" fill="black"/>
<path d="M99.7342 84.4678H97.3564V86.8456H99.7342V84.4678Z" fill="black"/>
<path d="M114 84.4668H111.622V86.8446H114V84.4668Z" fill="black"/>
<path d="M18.8885 86.8447H16.5107V89.2225H18.8885V86.8447Z" fill="black"/>
<path d="M23.6444 86.8447H21.2666V89.2225H23.6444V86.8447Z" fill="black"/>
<path d="M26.0213 86.8447H23.6436V89.2225H26.0213V86.8447Z" fill="black"/>
<path d="M28.3993 86.8447H26.0215V89.2225H28.3993V86.8447Z" fill="black"/>
<path d="M30.7782 86.8447H28.4004V89.2225H30.7782V86.8447Z" fill="black"/>
<path d="M33.1551 86.8447H30.7773V89.2225H33.1551V86.8447Z" fill="black"/>
<path d="M35.534 86.8447H33.1562V89.2225H35.534V86.8447Z" fill="black"/>
<path d="M37.91 86.8447H35.5322V89.2225H37.91V86.8447Z" fill="black"/>
<path d="M40.2879 86.8447H37.9102V89.2225H40.2879V86.8447Z" fill="black"/>
<path d="M42.6669 86.8447H40.2891V89.2225H42.6669V86.8447Z" fill="black"/>
<path d="M49.7987 86.8447H47.4209V89.2225H49.7987V86.8447Z" fill="black"/>
<path d="M56.9354 86.8447H54.5576V89.2225H56.9354V86.8447Z" fill="black"/>
<path d="M61.6893 86.8447H59.3115V89.2225H61.6893V86.8447Z" fill="black"/>
<path d="M68.8231 86.8447H66.4453V89.2225H68.8231V86.8447Z" fill="black"/>
<path d="M71.201 86.8447H68.8232V89.2225H71.201V86.8447Z" fill="black"/>
<path d="M73.578 86.8447H71.2002V89.2225H73.578V86.8447Z" fill="black"/>
<path d="M75.9569 86.8447H73.5791V89.2225H75.9569V86.8447Z" fill="black"/>
<path d="M78.3338 86.8447H75.9561V89.2225H78.3338V86.8447Z" fill="black"/>
<path d="M90.2225 86.8447H87.8447V89.2225H90.2225V86.8447Z" fill="black"/>
<path d="M92.6014 86.8447H90.2236V89.2225H92.6014V86.8447Z" fill="black"/>
<path d="M99.7352 86.8447H97.3574V89.2225H99.7352V86.8447Z" fill="black"/>
<path d="M104.49 86.8447H102.112V89.2225H104.49V86.8447Z" fill="black"/>
<path d="M109.245 86.8447H106.867V89.2225H109.245V86.8447Z" fill="black"/>
<path d="M114 86.8447H111.622V89.2225H114V86.8447Z" fill="black"/>
<path d="M11.7557 89.2236H9.37793V91.6014H11.7557V89.2236Z" fill="black"/>
<path d="M14.1336 89.2246H11.7559V91.6024H14.1336V89.2246Z" fill="black"/>
<path d="M16.5106 89.2236H14.1328V91.6014H16.5106V89.2236Z" fill="black"/>
<path d="M18.8885 89.2236H16.5107V91.6014H18.8885V89.2236Z" fill="black"/>
<path d="M28.3993 89.2246H26.0215V91.6024H28.3993V89.2246Z" fill="black"/>
<path d="M30.7782 89.2236H28.4004V91.6014H30.7782V89.2236Z" fill="black"/>
<path d="M35.534 89.2246H33.1562V91.6024H35.534V89.2246Z" fill="black"/>
<path d="M40.2879 89.2236H37.9102V91.6014H40.2879V89.2236Z" fill="black"/>
<path d="M47.4237 89.2236H45.0459V91.6014H47.4237V89.2236Z" fill="black"/>
<path d="M49.7987 89.2236H47.4209V91.6014H49.7987V89.2236Z" fill="black"/>
<path d="M52.1776 89.2236H49.7998V91.6014H52.1776V89.2236Z" fill="black"/>
<path d="M59.3124 89.2246H56.9346V91.6024H59.3124V89.2246Z" fill="black"/>
<path d="M61.6893 89.2246H59.3115V91.6024H61.6893V89.2246Z" fill="black"/>
<path d="M66.4452 89.2236H64.0674V91.6014H66.4452V89.2236Z" fill="black"/>
<path d="M78.3338 89.2236H75.9561V91.6014H78.3338V89.2236Z" fill="black"/>
<path d="M80.7118 89.2236H78.334V91.6014H80.7118V89.2236Z" fill="black"/>
<path d="M83.0917 89.2236H80.7139V91.6014H83.0917V89.2236Z" fill="black"/>
<path d="M87.8446 89.2236H85.4668V91.6014H87.8446V89.2236Z" fill="black"/>
<path d="M92.6014 89.2236H90.2236V91.6014H92.6014V89.2236Z" fill="black"/>
<path d="M94.9774 89.2236H92.5996V91.6014H94.9774V89.2236Z" fill="black"/>
<path d="M102.113 89.2236H99.7354V91.6014H102.113V89.2236Z" fill="black"/>
<path d="M106.867 89.2246H104.489V91.6024H106.867V89.2246Z" fill="black"/>
<path d="M9.37779 91.5996H7V93.9774H9.37779V91.5996Z" fill="black"/>
<path d="M16.5106 91.5996H14.1328V93.9774H16.5106V91.5996Z" fill="black"/>
<path d="M18.8885 91.5996H16.5107V93.9774H18.8885V91.5996Z" fill="black"/>
<path d="M23.6454 91.5996H21.2676V93.9774H23.6454V91.5996Z" fill="black"/>
<path d="M35.534 91.5996H33.1562V93.9774H35.534V91.5996Z" fill="black"/>
<path d="M45.0448 91.5996H42.667V93.9774H45.0448V91.5996Z" fill="black"/>
<path d="M49.7987 91.5996H47.4209V93.9774H49.7987V91.5996Z" fill="black"/>
<path d="M52.1766 91.5996H49.7988V93.9774H52.1766V91.5996Z" fill="black"/>
<path d="M56.9354 91.5996H54.5576V93.9774H56.9354V91.5996Z" fill="black"/>
<path d="M59.3124 91.5996H56.9346V93.9774H59.3124V91.5996Z" fill="black"/>
<path d="M61.6893 91.5996H59.3115V93.9774H61.6893V91.5996Z" fill="black"/>
<path d="M64.0672 91.5996H61.6895V93.9774H64.0672V91.5996Z" fill="black"/>
<path d="M66.4452 91.5996H64.0674V93.9774H66.4452V91.5996Z" fill="black"/>
<path d="M68.8231 91.5996H66.4453V93.9774H68.8231V91.5996Z" fill="black"/>
<path d="M71.201 91.5996H68.8232V93.9774H71.201V91.5996Z" fill="black"/>
<path d="M73.578 91.5996H71.2002V93.9774H73.578V91.5996Z" fill="black"/>
<path d="M75.9569 91.5996H73.5791V93.9774H75.9569V91.5996Z" fill="black"/>
<path d="M80.7127 91.5996H78.335V93.9774H80.7127V91.5996Z" fill="black"/>
<path d="M83.0917 91.5996H80.7139V93.9774H83.0917V91.5996Z" fill="black"/>
<path d="M85.4667 91.5996H83.0889V93.9774H85.4667V91.5996Z" fill="black"/>
<path d="M87.8446 91.5996H85.4668V93.9774H87.8446V91.5996Z" fill="black"/>
<path d="M94.9774 91.5996H92.5996V93.9774H94.9774V91.5996Z" fill="black"/>
<path d="M97.3553 91.5996H94.9775V93.9774H97.3553V91.5996Z" fill="black"/>
<path d="M99.7342 91.5996H97.3564V93.9774H99.7342V91.5996Z" fill="black"/>
<path d="M102.113 91.5996H99.7354V93.9774H102.113V91.5996Z" fill="black"/>
<path d="M104.49 91.5996H102.112V93.9774H104.49V91.5996Z" fill="black"/>
<path d="M106.869 91.5996H104.492V93.9774H106.869V91.5996Z" fill="black"/>
<path d="M114.001 91.5996H111.623V93.9774H114.001V91.5996Z" fill="black"/>
<path d="M28.3993 93.9775H26.0215V96.3553H28.3993V93.9775Z" fill="black"/>
<path d="M35.534 93.9775H33.1562V96.3553H35.534V93.9775Z" fill="black"/>
<path d="M40.2879 93.9775H37.9102V96.3553H40.2879V93.9775Z" fill="black"/>
<path d="M42.6669 93.9775H40.2891V96.3553H42.6669V93.9775Z" fill="black"/>
<path d="M45.0448 93.9775H42.667V96.3553H45.0448V93.9775Z" fill="black"/>
<path d="M54.5565 93.9775H52.1787V96.3553H54.5565V93.9775Z" fill="black"/>
<path d="M56.9354 93.9775H54.5576V96.3553H56.9354V93.9775Z" fill="black"/>
<path d="M66.4452 93.9775H64.0674V96.3553H66.4452V93.9775Z" fill="black"/>
<path d="M68.8231 93.9775H66.4453V96.3553H68.8231V93.9775Z" fill="black"/>
<path d="M73.578 93.9775H71.2002V96.3553H73.578V93.9775Z" fill="black"/>
<path d="M80.7127 93.9775H78.335V96.3553H80.7127V93.9775Z" fill="black"/>
<path d="M83.0917 93.9775H80.7139V96.3553H83.0917V93.9775Z" fill="black"/>
<path d="M85.4667 93.9775H83.0889V96.3553H85.4667V93.9775Z" fill="black"/>
<path d="M87.8456 93.9775H85.4678V96.3553H87.8456V93.9775Z" fill="black"/>
<path d="M90.2225 93.9775H87.8447V96.3553H90.2225V93.9775Z" fill="black"/>
<path d="M94.9774 93.9775H92.5996V96.3553H94.9774V93.9775Z" fill="black"/>
<path d="M104.49 93.9775H102.112V96.3553H104.49V93.9775Z" fill="black"/>
<path d="M109.244 93.9775H106.866V96.3553H109.244V93.9775Z" fill="black"/>
<path d="M114.001 93.9775H111.623V96.3553H114.001V93.9775Z" fill="black"/>
<path d="M33.1551 96.3564H30.7773V98.7342H33.1551V96.3564Z" fill="black"/>
<path d="M40.2879 96.3564H37.9102V98.7342H40.2879V96.3564Z" fill="black"/>
<path d="M45.0438 96.3574H42.666V98.7352H45.0438V96.3574Z" fill="black"/>
<path d="M54.5565 96.3564H52.1787V98.7342H54.5565V96.3564Z" fill="black"/>
<path d="M56.9344 96.3564H54.5566V98.7342H56.9344V96.3564Z" fill="black"/>
<path d="M61.6893 96.3564H59.3115V98.7342H61.6893V96.3564Z" fill="black"/>
<path d="M66.4452 96.3574H64.0674V98.7352H66.4452V96.3574Z" fill="black"/>
<path d="M73.578 96.3564H71.2002V98.7342H73.578V96.3564Z" fill="black"/>
<path d="M78.3338 96.3564H75.9561V98.7342H78.3338V96.3564Z" fill="black"/>
<path d="M80.7118 96.3564H78.334V98.7342H80.7118V96.3564Z" fill="black"/>
<path d="M83.0917 96.3564H80.7139V98.7342H83.0917V96.3564Z" fill="black"/>
<path d="M85.4667 96.3564H83.0889V98.7342H85.4667V96.3564Z" fill="black"/>
<path d="M92.6014 96.3564H90.2236V98.7342H92.6014V96.3564Z" fill="black"/>
<path d="M94.9774 96.3564H92.5996V98.7342H94.9774V96.3564Z" fill="black"/>
<path d="M99.7342 96.3564H97.3564V98.7342H99.7342V96.3564Z" fill="black"/>
<path d="M104.49 96.3564H102.112V98.7342H104.49V96.3564Z" fill="black"/>
<path d="M33.1551 98.7354H30.7773V101.113H33.1551V98.7354Z" fill="black"/>
<path d="M35.534 98.7354H33.1562V101.113H35.534V98.7354Z" fill="black"/>
<path d="M37.9139 98.7354H35.5361V101.113H37.9139V98.7354Z" fill="black"/>
<path d="M40.2879 98.7354H37.9102V101.113H40.2879V98.7354Z" fill="black"/>
<path d="M47.4237 98.7354H45.0459V101.113H47.4237V98.7354Z" fill="black"/>
<path d="M49.7987 98.7354H47.4209V101.113H49.7987V98.7354Z" fill="black"/>
<path d="M52.1776 98.7354H49.7998V101.113H52.1776V98.7354Z" fill="black"/>
<path d="M54.5565 98.7354H52.1787V101.113H54.5565V98.7354Z" fill="black"/>
<path d="M56.9354 98.7354H54.5576V101.113H56.9354V98.7354Z" fill="black"/>
<path d="M66.4452 98.7354H64.0674V101.113H66.4452V98.7354Z" fill="black"/>
<path d="M68.8231 98.7354H66.4453V101.113H68.8231V98.7354Z" fill="black"/>
<path d="M73.578 98.7354H71.2002V101.113H73.578V98.7354Z" fill="black"/>
<path d="M75.9569 98.7354H73.5791V101.113H75.9569V98.7354Z" fill="black"/>
<path d="M78.3338 98.7354H75.9561V101.113H78.3338V98.7354Z" fill="black"/>
<path d="M83.0917 98.7354H80.7139V101.113H83.0917V98.7354Z" fill="black"/>
<path d="M85.4667 98.7354H83.0889V101.113H85.4667V98.7354Z" fill="black"/>
<path d="M87.8446 98.7354H85.4668V101.113H87.8446V98.7354Z" fill="black"/>
<path d="M92.6014 98.7354H90.2236V101.113H92.6014V98.7354Z" fill="black"/>
<path d="M94.9774 98.7354H92.5996V101.113H94.9774V98.7354Z" fill="black"/>
<path d="M104.49 98.7354H102.112V101.113H104.49V98.7354Z" fill="black"/>
<path d="M30.7782 101.112H28.4004V103.49H30.7782V101.112Z" fill="black"/>
<path d="M35.534 101.112H33.1562V103.49H35.534V101.112Z" fill="black"/>
<path d="M40.2879 101.112H37.9102V103.49H40.2879V101.112Z" fill="black"/>
<path d="M42.6669 101.112H40.2891V103.49H42.6669V101.112Z" fill="black"/>
<path d="M47.4237 101.112H45.0459V103.49H47.4237V101.112Z" fill="black"/>
<path d="M52.1766 101.112H49.7988V103.49H52.1766V101.112Z" fill="black"/>
<path d="M56.9344 101.112H54.5566V103.49H56.9344V101.112Z" fill="black"/>
<path d="M59.3124 101.112H56.9346V103.49H59.3124V101.112Z" fill="black"/>
<path d="M61.6893 101.112H59.3115V103.49H61.6893V101.112Z" fill="black"/>
<path d="M64.0672 101.112H61.6895V103.49H64.0672V101.112Z" fill="black"/>
<path d="M66.4452 101.112H64.0674V103.49H66.4452V101.112Z" fill="black"/>
<path d="M68.8231 101.112H66.4453V103.49H68.8231V101.112Z" fill="black"/>
<path d="M73.578 101.112H71.2002V103.49H73.578V101.112Z" fill="black"/>
<path d="M75.9559 101.112H73.5781V103.49H75.9559V101.112Z" fill="black"/>
<path d="M78.3338 101.112H75.9561V103.49H78.3338V101.112Z" fill="black"/>
<path d="M85.4667 101.112H83.0889V103.49H85.4667V101.112Z" fill="black"/>
<path d="M87.8446 101.112H85.4668V103.49H87.8446V101.112Z" fill="black"/>
<path d="M90.2225 101.112H87.8447V103.49H90.2225V101.112Z" fill="black"/>
<path d="M94.9774 101.112H92.5996V103.49H94.9774V101.112Z" fill="black"/>
<path d="M97.3553 101.112H94.9775V103.49H97.3553V101.112Z" fill="black"/>
<path d="M99.7342 101.112H97.3564V103.49H99.7342V101.112Z" fill="black"/>
<path d="M102.113 101.112H99.7354V103.49H102.113V101.112Z" fill="black"/>
<path d="M104.49 101.112H102.112V103.49H104.49V101.112Z" fill="black"/>
<path d="M111.624 101.112H109.247V103.49H111.624V101.112Z" fill="black"/>
<path d="M28.3993 103.489H26.0215V105.867H28.3993V103.489Z" fill="black"/>
<path d="M30.7782 103.489H28.4004V105.867H30.7782V103.489Z" fill="black"/>
<path d="M37.91 103.491H35.5322V105.869H37.91V103.491Z" fill="black"/>
<path d="M40.2879 103.491H37.9102V105.869H40.2879V103.491Z" fill="black"/>
<path d="M45.0448 103.491H42.667V105.869H45.0448V103.491Z" fill="black"/>
<path d="M52.1766 103.491H49.7988V105.869H52.1766V103.491Z" fill="black"/>
<path d="M54.5565 103.489H52.1787V105.867H54.5565V103.489Z" fill="black"/>
<path d="M56.9344 103.489H54.5566V105.867H56.9344V103.489Z" fill="black"/>
<path d="M64.0672 103.491H61.6895V105.869H64.0672V103.491Z" fill="black"/>
<path d="M66.4452 103.491H64.0674V105.869H66.4452V103.491Z" fill="black"/>
<path d="M75.9559 103.489H73.5781V105.867H75.9559V103.489Z" fill="black"/>
<path d="M78.3338 103.489H75.9561V105.867H78.3338V103.489Z" fill="black"/>
<path d="M83.0917 103.491H80.7139V105.869H83.0917V103.491Z" fill="black"/>
<path d="M85.4667 103.489H83.0889V105.867H85.4667V103.489Z" fill="black"/>
<path d="M94.9774 103.491H92.5996V105.869H94.9774V103.491Z" fill="black"/>
<path d="M97.3553 103.491H94.9775V105.869H97.3553V103.491Z" fill="black"/>
<path d="M99.7342 103.489H97.3564V105.867H99.7342V103.489Z" fill="black"/>
<path d="M104.49 103.489H102.112V105.867H104.49V103.489Z" fill="black"/>
<path d="M33.1551 105.868H30.7773V108.246H33.1551V105.868Z" fill="black"/>
<path d="M40.2879 105.868H37.9102V108.246H40.2879V105.868Z" fill="black"/>
<path d="M47.4237 105.868H45.0459V108.246H47.4237V105.868Z" fill="black"/>
<path d="M52.1776 105.867H49.7998V108.245H52.1776V105.867Z" fill="black"/>
<path d="M56.9354 105.868H54.5576V108.246H56.9354V105.868Z" fill="black"/>
<path d="M64.0672 105.867H61.6895V108.245H64.0672V105.867Z" fill="black"/>
<path d="M66.4452 105.868H64.0674V108.246H66.4452V105.868Z" fill="black"/>
<path d="M68.8231 105.868H66.4453V108.246H68.8231V105.868Z" fill="black"/>
<path d="M71.201 105.866H68.8232V108.244H71.201V105.866Z" fill="black"/>
<path d="M85.4667 105.868H83.0889V108.246H85.4667V105.868Z" fill="black"/>
<path d="M92.6014 105.868H90.2236V108.246H92.6014V105.868Z" fill="black"/>
<path d="M94.9774 105.868H92.5996V108.246H94.9774V105.868Z" fill="black"/>
<path d="M97.3553 105.866H94.9775V108.244H97.3553V105.866Z" fill="black"/>
<path d="M102.113 105.868H99.7354V108.246H102.113V105.868Z" fill="black"/>
<path d="M104.49 105.868H102.112V108.246H104.49V105.868Z" fill="black"/>
<path d="M114.001 105.868H111.623V108.246H114.001V105.868Z" fill="black"/>
<path d="M33.1551 108.246H30.7773V110.624H33.1551V108.246Z" fill="black"/>
<path d="M35.534 108.246H33.1562V110.624H35.534V108.246Z" fill="black"/>
<path d="M37.912 108.246H35.5342V110.624H37.912V108.246Z" fill="black"/>
<path d="M40.2879 108.245H37.9102V110.623H40.2879V108.245Z" fill="black"/>
<path d="M42.6669 108.245H40.2891V110.623H42.6669V108.245Z" fill="black"/>
<path d="M45.0438 108.245H42.666V110.623H45.0438V108.245Z" fill="black"/>
<path d="M49.7987 108.245H47.4209V110.623H49.7987V108.245Z" fill="black"/>
<path d="M54.5565 108.246H52.1787V110.624H54.5565V108.246Z" fill="black"/>
<path d="M61.6893 108.246H59.3115V110.624H61.6893V108.246Z" fill="black"/>
<path d="M68.8231 108.245H66.4453V110.623H68.8231V108.245Z" fill="black"/>
<path d="M71.201 108.245H68.8232V110.623H71.201V108.245Z" fill="black"/>
<path d="M73.578 108.245H71.2002V110.623H73.578V108.245Z" fill="black"/>
<path d="M75.9569 108.246H73.5791V110.624H75.9569V108.246Z" fill="black"/>
<path d="M80.7118 108.246H78.334V110.624H80.7118V108.246Z" fill="black"/>
<path d="M83.0917 108.245H80.7139V110.623H83.0917V108.245Z" fill="black"/>
<path d="M85.4667 108.246H83.0889V110.624H85.4667V108.246Z" fill="black"/>
<path d="M92.6014 108.246H90.2236V110.624H92.6014V108.246Z" fill="black"/>
<path d="M102.113 108.245H99.7354V110.623H102.113V108.245Z" fill="black"/>
<path d="M104.49 108.246H102.112V110.624H104.49V108.246Z" fill="black"/>
<path d="M30.7782 110.622H28.4004V113H30.7782V110.622Z" fill="black"/>
<path d="M33.1551 110.622H30.7773V113H33.1551V110.622Z" fill="black"/>
<path d="M35.534 110.623H33.1562V113.001H35.534V110.623Z" fill="black"/>
<path d="M37.9139 110.623H35.5361V113.001H37.9139V110.623Z" fill="black"/>
<path d="M40.2879 110.623H37.9102V113.001H40.2879V110.623Z" fill="black"/>
<path d="M45.0438 110.622H42.666V113H45.0438V110.622Z" fill="black"/>
<path d="M52.1776 110.622H49.7998V113H52.1776V110.622Z" fill="black"/>
<path d="M56.9354 110.622H54.5576V113H56.9354V110.622Z" fill="black"/>
<path d="M59.3124 110.623H56.9346V113.001H59.3124V110.623Z" fill="black"/>
<path d="M61.6893 110.623H59.3115V113.001H61.6893V110.623Z" fill="black"/>
<path d="M66.4452 110.622H64.0674V113H66.4452V110.622Z" fill="black"/>
<path d="M68.8231 110.623H66.4453V113.001H68.8231V110.623Z" fill="black"/>
<path d="M71.201 110.623H68.8232V113.001H71.201V110.623Z" fill="black"/>
<path d="M78.3338 110.622H75.9561V113H78.3338V110.622Z" fill="black"/>
<path d="M80.7118 110.622H78.334V113H80.7118V110.622Z" fill="black"/>
<path d="M83.0917 110.623H80.7139V113.001H83.0917V110.623Z" fill="black"/>
<path d="M97.3553 110.623H94.9775V113.001H97.3553V110.623Z" fill="black"/>
<path d="M99.7352 110.622H97.3574V113H99.7352V110.622Z" fill="black"/>
<path d="M102.113 110.622H99.7354V113H102.113V110.622Z" fill="black"/>
<path d="M106.869 110.623H104.492V113.001H106.869V110.623Z" fill="black"/>
<path d="M111.623 110.622H109.245V113H111.623V110.622Z" fill="black"/>
<path d="M17.9619 6.00195H12.6826C10.1097 6.00195 7.92993 7.70186 7.23302 10.0253C7.16095 10.2656 7.10469 10.5126 7.06558 10.7651C7.02247 11.0437 7 11.329 7 11.6195V17.0241C7 20.1232 9.54994 22.6433 12.6826 22.6433L15.3223 22.6438L17.9619 22.6431C21.0944 22.6431 23.6445 20.123 23.6445 17.024V11.6195C23.6445 8.52193 21.0946 6.00195 17.9619 6.00195ZM21.1478 17.0241C21.1478 18.7458 19.7187 20.1466 17.9612 20.1466L15.3223 20.1471L12.6833 20.1465C10.9258 20.1465 9.49668 18.7457 9.49668 17.0241V11.6195C9.49668 11.0817 9.63616 10.5754 9.88167 10.133C10.118 9.70736 10.4524 9.34134 10.855 9.06421C11.3727 8.70785 12.003 8.49863 12.6824 8.49863H17.9619C19.7187 8.49863 21.1478 9.8986 21.1478 11.6195V17.0241Z" fill="black"/>
<path d="M108.32 6.00195H103.041C100.468 6.00195 98.2878 7.70186 97.5909 10.0253C97.5189 10.2656 97.4626 10.5126 97.4235 10.7651C97.3804 11.0437 97.3579 11.329 97.3579 11.6195V17.0241C97.3579 20.1232 99.9079 22.6433 103.041 22.6433L105.68 22.6438L108.32 22.6431C111.452 22.6431 114.002 20.123 114.002 17.024V11.6195C114.002 8.52193 111.452 6.00195 108.32 6.00195ZM111.506 17.0241C111.506 18.7458 110.077 20.1466 108.319 20.1466L105.68 20.1471L103.041 20.1465C101.284 20.1465 99.8546 18.7457 99.8546 17.0241V11.6195C99.8546 11.0817 99.9941 10.5754 100.24 10.133C100.476 9.70736 100.81 9.34134 101.213 9.06421C101.731 8.70785 102.361 8.49863 103.04 8.49863H108.32C110.077 8.49863 111.506 9.8986 111.506 11.6195V17.0241Z" fill="black"/>
<path d="M17.9619 96.3584H12.6826C10.1097 96.3584 7.92993 98.0583 7.23302 100.382C7.16095 100.622 7.10469 100.869 7.06558 101.122C7.02247 101.4 7 101.685 7 101.976V107.381C7 110.48 9.54994 113 12.6826 113L15.3223 113L17.9619 113C21.0944 113 23.6445 110.479 23.6445 107.38V101.976C23.6445 98.8784 21.0946 96.3584 17.9619 96.3584ZM21.1478 107.381C21.1478 109.102 19.7187 110.503 17.9612 110.503L15.3223 110.504L12.6833 110.503C10.9258 110.503 9.49668 109.102 9.49668 107.381V101.976C9.49668 101.438 9.63616 100.932 9.88167 100.489C10.118 100.064 10.4524 99.6978 10.855 99.4207C11.3727 99.0643 12.003 98.8551 12.6824 98.8551H17.9619C19.7187 98.8551 21.1478 100.255 21.1478 101.976V107.381Z" fill="black"/>
<path d="M13.705 17.8863C12.6286 17.8863 11.7529 17.028 11.7529 15.974V12.6642C11.7529 12.335 11.8385 12.0251 11.9884 11.754C12.1331 11.493 12.338 11.2687 12.5848 11.0995C12.9017 10.8814 13.288 10.7529 13.7039 10.7529H16.9372C18.0127 10.7529 18.8883 11.6102 18.8883 12.6642V15.9739C18.8883 17.0279 18.0127 17.8862 16.9372 17.8862H15.3206L13.705 17.8863Z" fill="black"/>
<path d="M104.058 17.8853C102.982 17.8853 102.106 17.027 102.106 15.973V12.6633C102.106 12.334 102.192 12.0241 102.342 11.753C102.487 11.492 102.692 11.2678 102.938 11.0986C103.255 10.8804 103.642 10.752 104.057 10.752H107.291C108.366 10.752 109.242 11.6092 109.242 12.6632V15.9729C109.242 17.0269 108.366 17.8852 107.291 17.8852H105.674L104.058 17.8853Z" fill="black"/>
<path d="M13.704 108.249C12.6276 108.249 11.752 107.39 11.752 106.336V103.027C11.752 102.697 11.8376 102.387 11.9874 102.116C12.1322 101.855 12.337 101.631 12.5838 101.462C12.9007 101.244 13.2871 101.115 13.7029 101.115H16.9363C18.0117 101.115 18.8873 101.973 18.8873 103.026V106.336C18.8873 107.39 18.0118 108.249 16.9363 108.249H15.3196L13.704 108.249Z" fill="black"/>
<path d="M50.439 49.0517C50.1609 49.329 50 49.7608 50 50.32V70.2656C50 70.8248 50.1609 71.2566 50.439 71.5338L50.5076 71.5948L62.2383 60.4224V60.1586L50.5076 48.9863L50.439 49.0517Z" fill="#0E0A1B"/>
<path d="M67.5729 64.1503L63.667 60.4244V60.1606L67.5777 56.4346L67.6652 56.4831L72.2965 58.9937C73.6182 59.7062 73.6182 60.8787 72.2965 61.5957L67.6652 64.1019L67.5729 64.1503Z" fill="#0E0A1B"/>
<path d="M66.9489 64.7928L62.9507 60.9834L51.1514 72.2268C51.5904 72.6664 52.3062 72.7194 53.1203 72.2797L66.9489 64.7928Z" fill="#0E0A1B"/>
<path d="M66.9489 55.7875L53.1203 48.3006C52.3062 47.8655 51.5904 47.9184 51.1514 48.3581L62.9507 59.597L66.9489 55.7875Z" fill="#0E0A1B"/>
</g>
<defs>
<clipPath id="clip0_8043_52811">
<rect width="120" height="120" rx="12" fill="white"/>
</clipPath>
</defs>
</svg>
