<svg width="120" height="120" viewBox="0 0 120 120" fill="none" xmlns="http://www.w3.org/2000/svg">
<g clip-path="url(#clip0_3809_35422)">
<path d="M120 -0.369141H0V119.999H120V-0.369141Z" fill="white"/>
<path d="M38.9229 6.07422H35.6797V9.30031H38.9229V6.07422Z" fill="#0E0A1B"/>
<path d="M45.4073 6.07422H42.1641V9.30031H45.4073V6.07422Z" fill="#0E0A1B"/>
<path d="M64.8682 6.07422H61.625V9.30031H64.8682V6.07422Z" fill="#0E0A1B"/>
<path d="M68.1104 6.07422H64.8672V9.30031H68.1104V6.07422Z" fill="#0E0A1B"/>
<path d="M71.3526 6.07422H68.1094V9.30031H71.3526V6.07422Z" fill="#0E0A1B"/>
<path d="M77.8409 6.07422H74.5977V9.30031H77.8409V6.07422Z" fill="#0E0A1B"/>
<path d="M81.0831 6.07422H77.8398V9.30031H81.0831V6.07422Z" fill="#0E0A1B"/>
<path d="M87.5714 6.07422H84.3281V9.30031H87.5714V6.07422Z" fill="#0E0A1B"/>
<path d="M38.9229 9.30273H35.6797V12.5288H38.9229V9.30273Z" fill="#0E0A1B"/>
<path d="M42.1651 9.30273H38.9219V12.5288H42.1651V9.30273Z" fill="#0E0A1B"/>
<path d="M51.8917 9.30273H48.6484V12.5288H51.8917V9.30273Z" fill="#0E0A1B"/>
<path d="M55.1378 9.30273H51.8945V12.5288H55.1378V9.30273Z" fill="#0E0A1B"/>
<path d="M58.38 9.30273H55.1367V12.5288H58.38V9.30273Z" fill="#0E0A1B"/>
<path d="M74.5948 9.30273H71.3516V12.5288H74.5948V9.30273Z" fill="#0E0A1B"/>
<path d="M77.8409 9.30273H74.5977V12.5288H77.8409V9.30273Z" fill="#0E0A1B"/>
<path d="M87.5714 9.30273H84.3281V12.5288H87.5714V9.30273Z" fill="#0E0A1B"/>
<path d="M35.6768 12.5234H32.4336V15.7495H35.6768V12.5234Z" fill="#0E0A1B"/>
<path d="M38.9229 12.5234H35.6797V15.7495H38.9229V12.5234Z" fill="#0E0A1B"/>
<path d="M42.1651 12.5234H38.9219V15.7495H42.1651V12.5234Z" fill="#0E0A1B"/>
<path d="M45.4073 12.5234H42.1641V15.7495H45.4073V12.5234Z" fill="#0E0A1B"/>
<path d="M58.38 12.5234H55.1367V15.7495H58.38V12.5234Z" fill="#0E0A1B"/>
<path d="M68.1104 12.5234H64.8672V15.7495H68.1104V12.5234Z" fill="#0E0A1B"/>
<path d="M71.3526 12.5234H68.1094V15.7495H71.3526V12.5234Z" fill="#0E0A1B"/>
<path d="M77.8409 12.5234H74.5977V15.7495H77.8409V12.5234Z" fill="#0E0A1B"/>
<path d="M84.3253 12.5234H81.082V15.7495H84.3253V12.5234Z" fill="#0E0A1B"/>
<path d="M87.5714 12.5234H84.3281V15.7495H87.5714V12.5234Z" fill="#0E0A1B"/>
<path d="M35.6768 15.752H32.4336V18.978H35.6768V15.752Z" fill="#0E0A1B"/>
<path d="M38.9229 15.752H35.6797V18.978H38.9229V15.752Z" fill="#0E0A1B"/>
<path d="M51.8917 15.752H48.6484V18.978H51.8917V15.752Z" fill="#0E0A1B"/>
<path d="M55.1378 15.752H51.8945V18.978H55.1378V15.752Z" fill="#0E0A1B"/>
<path d="M61.6221 15.752H58.3789V18.978H61.6221V15.752Z" fill="#0E0A1B"/>
<path d="M64.8682 15.752H61.625V18.978H64.8682V15.752Z" fill="#0E0A1B"/>
<path d="M68.1104 15.752H64.8672V18.978H68.1104V15.752Z" fill="#0E0A1B"/>
<path d="M71.3526 15.752H68.1094V18.978H71.3526V15.752Z" fill="#0E0A1B"/>
<path d="M74.5948 15.752H71.3516V18.978H74.5948V15.752Z" fill="#0E0A1B"/>
<path d="M77.8409 15.752H74.5977V18.978H77.8409V15.752Z" fill="#0E0A1B"/>
<path d="M84.3253 15.752H81.082V18.978H84.3253V15.752Z" fill="#0E0A1B"/>
<path d="M87.5714 15.752H84.3281V18.978H87.5714V15.752Z" fill="#0E0A1B"/>
<path d="M48.6495 18.9805H45.4062V22.2066H48.6495V18.9805Z" fill="#0E0A1B"/>
<path d="M51.8917 18.9805H48.6484V22.2066H51.8917V18.9805Z" fill="#0E0A1B"/>
<path d="M55.1378 18.9805H51.8945V22.2066H55.1378V18.9805Z" fill="#0E0A1B"/>
<path d="M61.6221 18.9805H58.3789V22.2066H61.6221V18.9805Z" fill="#0E0A1B"/>
<path d="M68.1104 18.9805H64.8672V22.2066H68.1104V18.9805Z" fill="#0E0A1B"/>
<path d="M74.5948 18.9805H71.3516V22.2066H74.5948V18.9805Z" fill="#0E0A1B"/>
<path d="M77.8409 18.9805H74.5977V22.2066H77.8409V18.9805Z" fill="#0E0A1B"/>
<path d="M84.3253 18.9805H81.082V22.2066H84.3253V18.9805Z" fill="#0E0A1B"/>
<path d="M45.4073 22.209H42.1641V25.4351H45.4073V22.209Z" fill="#0E0A1B"/>
<path d="M51.8917 22.209H48.6484V25.4351H51.8917V22.209Z" fill="#0E0A1B"/>
<path d="M55.1378 22.209H51.8945V25.4351H55.1378V22.209Z" fill="#0E0A1B"/>
<path d="M61.6221 22.209H58.3789V25.4351H61.6221V22.209Z" fill="#0E0A1B"/>
<path d="M74.5948 22.209H71.3516V25.4351H74.5948V22.209Z" fill="#0E0A1B"/>
<path d="M87.5714 22.209H84.3281V25.4351H87.5714V22.209Z" fill="#0E0A1B"/>
<path d="M35.6768 25.4297H32.4336V28.6558H35.6768V25.4297Z" fill="#0E0A1B"/>
<path d="M42.1651 25.4297H38.9219V28.6558H42.1651V25.4297Z" fill="#0E0A1B"/>
<path d="M48.6495 25.4297H45.4062V28.6558H48.6495V25.4297Z" fill="#0E0A1B"/>
<path d="M55.1378 25.4297H51.8945V28.6558H55.1378V25.4297Z" fill="#0E0A1B"/>
<path d="M61.6221 25.4297H58.3789V28.6558H61.6221V25.4297Z" fill="#0E0A1B"/>
<path d="M68.1104 25.4297H64.8672V28.6558H68.1104V25.4297Z" fill="#0E0A1B"/>
<path d="M74.5948 25.4297H71.3516V28.6558H74.5948V25.4297Z" fill="#0E0A1B"/>
<path d="M81.0831 25.4297H77.8398V28.6558H81.0831V25.4297Z" fill="#0E0A1B"/>
<path d="M87.5714 25.4297H84.3281V28.6558H87.5714V25.4297Z" fill="#0E0A1B"/>
<path d="M42.1651 28.6582H38.9219V31.8843H42.1651V28.6582Z" fill="#0E0A1B"/>
<path d="M58.38 28.6582H55.1367V31.8843H58.38V28.6582Z" fill="#0E0A1B"/>
<path d="M61.6221 28.6582H58.3789V31.8843H61.6221V28.6582Z" fill="#0E0A1B"/>
<path d="M81.0831 28.6582H77.8398V31.8843H81.0831V28.6582Z" fill="#0E0A1B"/>
<path d="M84.3253 28.6582H81.082V31.8843H84.3253V28.6582Z" fill="#0E0A1B"/>
<path d="M19.462 31.8789H16.2188V35.105H19.462V31.8789Z" fill="#0E0A1B"/>
<path d="M22.7042 31.8789H19.4609V35.105H22.7042V31.8789Z" fill="#0E0A1B"/>
<path d="M29.1886 31.8789H25.9453V35.105H29.1886V31.8789Z" fill="#0E0A1B"/>
<path d="M32.4346 31.8789H29.1914V35.105H32.4346V31.8789Z" fill="#0E0A1B"/>
<path d="M45.4073 31.8789H42.1641V35.105H45.4073V31.8789Z" fill="#0E0A1B"/>
<path d="M48.6495 31.8789H45.4062V35.105H48.6495V31.8789Z" fill="#0E0A1B"/>
<path d="M51.8917 31.8789H48.6484V35.105H51.8917V31.8789Z" fill="#0E0A1B"/>
<path d="M55.1378 31.8789H51.8945V35.105H55.1378V31.8789Z" fill="#0E0A1B"/>
<path d="M58.38 31.8789H55.1367V35.105H58.38V31.8789Z" fill="#0E0A1B"/>
<path d="M61.6221 31.8789H58.3789V35.105H61.6221V31.8789Z" fill="#0E0A1B"/>
<path d="M68.1104 31.8789H64.8672V35.105H68.1104V31.8789Z" fill="#0E0A1B"/>
<path d="M74.5948 31.8789H71.3516V35.105H74.5948V31.8789Z" fill="#0E0A1B"/>
<path d="M84.3253 31.8789H81.082V35.105H84.3253V31.8789Z" fill="#0E0A1B"/>
<path d="M87.5714 31.8789H84.3281V35.105H87.5714V31.8789Z" fill="#0E0A1B"/>
<path d="M103.786 31.8789H100.543V35.105H103.786V31.8789Z" fill="#0E0A1B"/>
<path d="M107.028 31.8789H103.785V35.105H107.028V31.8789Z" fill="#0E0A1B"/>
<path d="M12.9737 35.1074H9.73047V38.3335H12.9737V35.1074Z" fill="#0E0A1B"/>
<path d="M22.7042 35.1074H19.4609V38.3335H22.7042V35.1074Z" fill="#0E0A1B"/>
<path d="M25.9464 35.1074H22.7031V38.3335H25.9464V35.1074Z" fill="#0E0A1B"/>
<path d="M35.6768 35.1074H32.4336V38.3335H35.6768V35.1074Z" fill="#0E0A1B"/>
<path d="M48.6495 35.1074H45.4062V38.3335H48.6495V35.1074Z" fill="#0E0A1B"/>
<path d="M51.8917 35.1074H48.6484V38.3335H51.8917V35.1074Z" fill="#0E0A1B"/>
<path d="M55.1378 35.1074H51.8945V38.3335H55.1378V35.1074Z" fill="#0E0A1B"/>
<path d="M61.6221 35.1074H58.3789V38.3335H61.6221V35.1074Z" fill="#0E0A1B"/>
<path d="M68.1104 35.1074H64.8672V38.3335H68.1104V35.1074Z" fill="#0E0A1B"/>
<path d="M84.3253 35.1074H81.082V38.3335H84.3253V35.1074Z" fill="#0E0A1B"/>
<path d="M90.8136 35.1074H87.5703V38.3335H90.8136V35.1074Z" fill="#0E0A1B"/>
<path d="M97.2979 35.1074H94.0547V38.3335H97.2979V35.1074Z" fill="#0E0A1B"/>
<path d="M100.54 35.1074H97.2969V38.3335H100.54V35.1074Z" fill="#0E0A1B"/>
<path d="M103.786 35.1074H100.543V38.3335H103.786V35.1074Z" fill="#0E0A1B"/>
<path d="M107.028 35.1074H103.785V38.3335H107.028V35.1074Z" fill="#0E0A1B"/>
<path d="M110.274 35.1074H107.031V38.3335H110.274V35.1074Z" fill="#0E0A1B"/>
<path d="M9.73152 38.3301H6.48828V41.5562H9.73152V38.3301Z" fill="#0E0A1B"/>
<path d="M22.7042 38.3301H19.4609V41.5562H22.7042V38.3301Z" fill="#0E0A1B"/>
<path d="M29.1886 38.3301H25.9453V41.5562H29.1886V38.3301Z" fill="#0E0A1B"/>
<path d="M45.4073 38.3301H42.1641V41.5562H45.4073V38.3301Z" fill="#0E0A1B"/>
<path d="M48.6495 38.3301H45.4062V41.5562H48.6495V38.3301Z" fill="#0E0A1B"/>
<path d="M58.38 38.3301H55.1367V41.5562H58.38V38.3301Z" fill="#0E0A1B"/>
<path d="M68.1104 38.3301H64.8672V41.5562H68.1104V38.3301Z" fill="#0E0A1B"/>
<path d="M77.8409 38.3301H74.5977V41.5562H77.8409V38.3301Z" fill="#0E0A1B"/>
<path d="M84.3253 38.3301H81.082V41.5562H84.3253V38.3301Z" fill="#0E0A1B"/>
<path d="M90.8136 38.3301H87.5703V41.5562H90.8136V38.3301Z" fill="#0E0A1B"/>
<path d="M97.2979 38.3301H94.0547V41.5562H97.2979V38.3301Z" fill="#0E0A1B"/>
<path d="M107.028 38.3301H103.785V41.5562H107.028V38.3301Z" fill="#0E0A1B"/>
<path d="M110.274 38.3301H107.031V41.5562H110.274V38.3301Z" fill="#0E0A1B"/>
<path d="M113.517 38.3301H110.273V41.5562H113.517V38.3301Z" fill="#0E0A1B"/>
<path d="M12.9737 41.5664H9.73047V44.7925H12.9737V41.5664Z" fill="#0E0A1B"/>
<path d="M16.2198 41.5664H12.9766V44.7925H16.2198V41.5664Z" fill="#0E0A1B"/>
<path d="M22.7042 41.5664H19.4609V44.7925H22.7042V41.5664Z" fill="#0E0A1B"/>
<path d="M38.9229 41.5664H35.6797V44.7925H38.9229V41.5664Z" fill="#0E0A1B"/>
<path d="M42.1651 41.5664H38.9219V44.7925H42.1651V41.5664Z" fill="#0E0A1B"/>
<path d="M87.5714 41.5664H84.3281V44.7925H87.5714V41.5664Z" fill="#0E0A1B"/>
<path d="M94.0557 41.5664H90.8125V44.7925H94.0557V41.5664Z" fill="#0E0A1B"/>
<path d="M97.2979 41.5664H94.0547V44.7925H97.2979V41.5664Z" fill="#0E0A1B"/>
<path d="M100.54 41.5664H97.2969V44.7925H100.54V41.5664Z" fill="#0E0A1B"/>
<path d="M103.786 41.5664H100.543V44.7925H103.786V41.5664Z" fill="#0E0A1B"/>
<path d="M107.028 41.5664H103.785V44.7925H107.028V41.5664Z" fill="#0E0A1B"/>
<path d="M110.274 41.5664H107.031V44.7925H110.274V41.5664Z" fill="#0E0A1B"/>
<path d="M113.517 41.5664H110.273V44.7925H113.517V41.5664Z" fill="#0E0A1B"/>
<path d="M19.462 44.7793H16.2188V48.0054H19.462V44.7793Z" fill="#0E0A1B"/>
<path d="M22.7042 44.7793H19.4609V48.0054H22.7042V44.7793Z" fill="#0E0A1B"/>
<path d="M29.1886 44.7793H25.9453V48.0054H29.1886V44.7793Z" fill="#0E0A1B"/>
<path d="M32.4346 44.7793H29.1914V48.0054H32.4346V44.7793Z" fill="#0E0A1B"/>
<path d="M35.6768 44.7793H32.4336V48.0054H35.6768V44.7793Z" fill="#0E0A1B"/>
<path d="M81.0831 44.7793H77.8398V48.0054H81.0831V44.7793Z" fill="#0E0A1B"/>
<path d="M87.5714 44.7793H84.3281V48.0054H87.5714V44.7793Z" fill="#0E0A1B"/>
<path d="M94.0557 44.7793H90.8125V48.0054H94.0557V44.7793Z" fill="#0E0A1B"/>
<path d="M97.2979 44.7793H94.0547V48.0054H97.2979V44.7793Z" fill="#0E0A1B"/>
<path d="M100.54 44.7793H97.2969V48.0054H100.54V44.7793Z" fill="#0E0A1B"/>
<path d="M103.786 44.7793H100.543V48.0054H103.786V44.7793Z" fill="#0E0A1B"/>
<path d="M113.517 44.7793H110.273V48.0054H113.517V44.7793Z" fill="#0E0A1B"/>
<path d="M9.73152 48.0156H6.48828V51.2417H9.73152V48.0156Z" fill="#0E0A1B"/>
<path d="M12.9737 48.0156H9.73047V51.2417H12.9737V48.0156Z" fill="#0E0A1B"/>
<path d="M19.462 48.0156H16.2188V51.2417H19.462V48.0156Z" fill="#0E0A1B"/>
<path d="M81.0831 48.0156H77.8398V51.2417H81.0831V48.0156Z" fill="#0E0A1B"/>
<path d="M84.3253 48.0156H81.082V51.2417H84.3253V48.0156Z" fill="#0E0A1B"/>
<path d="M107.028 48.0156H103.785V51.2417H107.028V48.0156Z" fill="#0E0A1B"/>
<path d="M110.274 48.0156H107.031V51.2417H110.274V48.0156Z" fill="#0E0A1B"/>
<path d="M12.9737 51.2441H9.73047V54.4702H12.9737V51.2441Z" fill="#0E0A1B"/>
<path d="M16.2198 51.2441H12.9766V54.4702H16.2198V51.2441Z" fill="#0E0A1B"/>
<path d="M19.462 51.2441H16.2188V54.4702H19.462V51.2441Z" fill="#0E0A1B"/>
<path d="M22.7042 51.2441H19.4609V54.4702H22.7042V51.2441Z" fill="#0E0A1B"/>
<path d="M29.1886 51.2441H25.9453V54.4702H29.1886V51.2441Z" fill="#0E0A1B"/>
<path d="M32.4346 51.2441H29.1914V54.4702H32.4346V51.2441Z" fill="#0E0A1B"/>
<path d="M87.5714 51.2441H84.3281V54.4702H87.5714V51.2441Z" fill="#0E0A1B"/>
<path d="M94.0557 51.2441H90.8125V54.4702H94.0557V51.2441Z" fill="#0E0A1B"/>
<path d="M100.54 51.2441H97.2969V54.4702H100.54V51.2441Z" fill="#0E0A1B"/>
<path d="M103.786 51.2441H100.543V54.4702H103.786V51.2441Z" fill="#0E0A1B"/>
<path d="M12.9737 54.4648H9.73047V57.6909H12.9737V54.4648Z" fill="#0E0A1B"/>
<path d="M16.2198 54.4648H12.9766V57.6909H16.2198V54.4648Z" fill="#0E0A1B"/>
<path d="M19.462 54.4648H16.2188V57.6909H19.462V54.4648Z" fill="#0E0A1B"/>
<path d="M25.9464 54.4648H22.7031V57.6909H25.9464V54.4648Z" fill="#0E0A1B"/>
<path d="M84.3253 54.4648H81.082V57.6909H84.3253V54.4648Z" fill="#0E0A1B"/>
<path d="M87.5714 54.4648H84.3281V57.6909H87.5714V54.4648Z" fill="#0E0A1B"/>
<path d="M90.8136 54.4648H87.5703V57.6909H90.8136V54.4648Z" fill="#0E0A1B"/>
<path d="M97.2979 54.4648H94.0547V57.6909H97.2979V54.4648Z" fill="#0E0A1B"/>
<path d="M103.786 54.4648H100.543V57.6909H103.786V54.4648Z" fill="#0E0A1B"/>
<path d="M107.028 54.4648H103.785V57.6909H107.028V54.4648Z" fill="#0E0A1B"/>
<path d="M110.274 54.4648H107.031V57.6909H110.274V54.4648Z" fill="#0E0A1B"/>
<path d="M113.517 54.4648H110.273V57.6909H113.517V54.4648Z" fill="#0E0A1B"/>
<path d="M9.73152 57.6934H6.48828V60.9194H9.73152V57.6934Z" fill="#0E0A1B"/>
<path d="M12.9737 57.6934H9.73047V60.9194H12.9737V57.6934Z" fill="#0E0A1B"/>
<path d="M22.7042 57.6934H19.4609V60.9194H22.7042V57.6934Z" fill="#0E0A1B"/>
<path d="M29.1886 57.6934H25.9453V60.9194H29.1886V57.6934Z" fill="#0E0A1B"/>
<path d="M32.4346 57.6934H29.1914V60.9194H32.4346V57.6934Z" fill="#0E0A1B"/>
<path d="M38.9229 57.6934H35.6797V60.9194H38.9229V57.6934Z" fill="#0E0A1B"/>
<path d="M42.1651 57.6934H38.9219V60.9194H42.1651V57.6934Z" fill="#0E0A1B"/>
<path d="M84.3253 57.6934H81.082V60.9194H84.3253V57.6934Z" fill="#0E0A1B"/>
<path d="M90.8136 57.6934H87.5703V60.9194H90.8136V57.6934Z" fill="#0E0A1B"/>
<path d="M94.0557 57.6934H90.8125V60.9194H94.0557V57.6934Z" fill="#0E0A1B"/>
<path d="M97.2979 57.6934H94.0547V60.9194H97.2979V57.6934Z" fill="#0E0A1B"/>
<path d="M100.54 57.6934H97.2969V60.9194H100.54V57.6934Z" fill="#0E0A1B"/>
<path d="M103.786 57.6934H100.543V60.9194H103.786V57.6934Z" fill="#0E0A1B"/>
<path d="M110.274 57.6934H107.031V60.9194H110.274V57.6934Z" fill="#0E0A1B"/>
<path d="M9.73152 60.9141H6.48828V64.1401H9.73152V60.9141Z" fill="#0E0A1B"/>
<path d="M19.462 60.9141H16.2188V64.1401H19.462V60.9141Z" fill="#0E0A1B"/>
<path d="M25.9464 60.9141H22.7031V64.1401H25.9464V60.9141Z" fill="#0E0A1B"/>
<path d="M35.6768 60.9141H32.4336V64.1401H35.6768V60.9141Z" fill="#0E0A1B"/>
<path d="M38.9229 60.9141H35.6797V64.1401H38.9229V60.9141Z" fill="#0E0A1B"/>
<path d="M81.0831 60.9141H77.8398V64.1401H81.0831V60.9141Z" fill="#0E0A1B"/>
<path d="M87.5714 60.9141H84.3281V64.1401H87.5714V60.9141Z" fill="#0E0A1B"/>
<path d="M94.0557 60.9141H90.8125V64.1401H94.0557V60.9141Z" fill="#0E0A1B"/>
<path d="M97.2979 60.9141H94.0547V64.1401H97.2979V60.9141Z" fill="#0E0A1B"/>
<path d="M100.54 60.9141H97.2969V64.1401H100.54V60.9141Z" fill="#0E0A1B"/>
<path d="M103.786 60.9141H100.543V64.1401H103.786V60.9141Z" fill="#0E0A1B"/>
<path d="M113.517 60.9141H110.273V64.1401H113.517V60.9141Z" fill="#0E0A1B"/>
<path d="M12.9737 64.1504H9.73047V67.3765H12.9737V64.1504Z" fill="#0E0A1B"/>
<path d="M19.462 64.1504H16.2188V67.3765H19.462V64.1504Z" fill="#0E0A1B"/>
<path d="M22.7042 64.1504H19.4609V67.3765H22.7042V64.1504Z" fill="#0E0A1B"/>
<path d="M25.9464 64.1504H22.7031V67.3765H25.9464V64.1504Z" fill="#0E0A1B"/>
<path d="M29.1886 64.1504H25.9453V67.3765H29.1886V64.1504Z" fill="#0E0A1B"/>
<path d="M32.4346 64.1504H29.1914V67.3765H32.4346V64.1504Z" fill="#0E0A1B"/>
<path d="M38.9229 64.1504H35.6797V67.3765H38.9229V64.1504Z" fill="#0E0A1B"/>
<path d="M84.3253 64.1504H81.082V67.3765H84.3253V64.1504Z" fill="#0E0A1B"/>
<path d="M100.54 64.1504H97.2969V67.3765H100.54V64.1504Z" fill="#0E0A1B"/>
<path d="M103.786 64.1504H100.543V67.3765H103.786V64.1504Z" fill="#0E0A1B"/>
<path d="M107.028 64.1504H103.785V67.3765H107.028V64.1504Z" fill="#0E0A1B"/>
<path d="M113.517 64.1504H110.273V67.3765H113.517V64.1504Z" fill="#0E0A1B"/>
<path d="M9.73152 67.3633H6.48828V70.5894H9.73152V67.3633Z" fill="#0E0A1B"/>
<path d="M12.9737 67.3633H9.73047V70.5894H12.9737V67.3633Z" fill="#0E0A1B"/>
<path d="M19.462 67.3633H16.2188V70.5894H19.462V67.3633Z" fill="#0E0A1B"/>
<path d="M25.9464 67.3633H22.7031V70.5894H25.9464V67.3633Z" fill="#0E0A1B"/>
<path d="M32.4346 67.3633H29.1914V70.5894H32.4346V67.3633Z" fill="#0E0A1B"/>
<path d="M38.9229 67.3633H35.6797V70.5894H38.9229V67.3633Z" fill="#0E0A1B"/>
<path d="M81.0831 67.3633H77.8398V70.5894H81.0831V67.3633Z" fill="#0E0A1B"/>
<path d="M84.3253 67.3633H81.082V70.5894H84.3253V67.3633Z" fill="#0E0A1B"/>
<path d="M87.5714 67.3633H84.3281V70.5894H87.5714V67.3633Z" fill="#0E0A1B"/>
<path d="M90.8136 67.3633H87.5703V70.5894H90.8136V67.3633Z" fill="#0E0A1B"/>
<path d="M97.2979 67.3633H94.0547V70.5894H97.2979V67.3633Z" fill="#0E0A1B"/>
<path d="M100.54 67.3633H97.2969V70.5894H100.54V67.3633Z" fill="#0E0A1B"/>
<path d="M103.786 67.3633H100.543V70.5894H103.786V67.3633Z" fill="#0E0A1B"/>
<path d="M107.028 67.3633H103.785V70.5894H107.028V67.3633Z" fill="#0E0A1B"/>
<path d="M110.274 67.3633H107.031V70.5894H110.274V67.3633Z" fill="#0E0A1B"/>
<path d="M12.9737 70.5996H9.73047V73.8257H12.9737V70.5996Z" fill="#0E0A1B"/>
<path d="M19.462 70.5996H16.2188V73.8257H19.462V70.5996Z" fill="#0E0A1B"/>
<path d="M29.1886 70.5996H25.9453V73.8257H29.1886V70.5996Z" fill="#0E0A1B"/>
<path d="M32.4346 70.5996H29.1914V73.8257H32.4346V70.5996Z" fill="#0E0A1B"/>
<path d="M38.9229 70.5996H35.6797V73.8257H38.9229V70.5996Z" fill="#0E0A1B"/>
<path d="M42.1651 70.5996H38.9219V73.8257H42.1651V70.5996Z" fill="#0E0A1B"/>
<path d="M94.0557 70.5996H90.8125V73.8257H94.0557V70.5996Z" fill="#0E0A1B"/>
<path d="M97.2979 70.5996H94.0547V73.8257H97.2979V70.5996Z" fill="#0E0A1B"/>
<path d="M103.786 70.5996H100.543V73.8257H103.786V70.5996Z" fill="#0E0A1B"/>
<path d="M113.517 70.5996H110.273V73.8257H113.517V70.5996Z" fill="#0E0A1B"/>
<path d="M9.73152 73.8203H6.48828V77.0464H9.73152V73.8203Z" fill="#0E0A1B"/>
<path d="M12.9737 73.8203H9.73047V77.0464H12.9737V73.8203Z" fill="#0E0A1B"/>
<path d="M22.7042 73.8203H19.4609V77.0464H22.7042V73.8203Z" fill="#0E0A1B"/>
<path d="M32.4346 73.8203H29.1914V77.0464H32.4346V73.8203Z" fill="#0E0A1B"/>
<path d="M81.0831 73.8203H77.8398V77.0464H81.0831V73.8203Z" fill="#0E0A1B"/>
<path d="M87.5714 73.8203H84.3281V77.0464H87.5714V73.8203Z" fill="#0E0A1B"/>
<path d="M94.0557 73.8203H90.8125V77.0464H94.0557V73.8203Z" fill="#0E0A1B"/>
<path d="M100.54 73.8203H97.2969V77.0464H100.54V73.8203Z" fill="#0E0A1B"/>
<path d="M103.786 73.8203H100.543V77.0464H103.786V73.8203Z" fill="#0E0A1B"/>
<path d="M107.028 73.8203H103.785V77.0464H107.028V73.8203Z" fill="#0E0A1B"/>
<path d="M9.73152 77.0488H6.48828V80.2749H9.73152V77.0488Z" fill="#0E0A1B"/>
<path d="M19.462 77.0488H16.2188V80.2749H19.462V77.0488Z" fill="#0E0A1B"/>
<path d="M22.7042 77.0488H19.4609V80.2749H22.7042V77.0488Z" fill="#0E0A1B"/>
<path d="M25.9464 77.0488H22.7031V80.2749H25.9464V77.0488Z" fill="#0E0A1B"/>
<path d="M29.1886 77.0488H25.9453V80.2749H29.1886V77.0488Z" fill="#0E0A1B"/>
<path d="M32.4346 77.0488H29.1914V80.2749H32.4346V77.0488Z" fill="#0E0A1B"/>
<path d="M38.9229 77.0488H35.6797V80.2749H38.9229V77.0488Z" fill="#0E0A1B"/>
<path d="M42.1651 77.0488H38.9219V80.2749H42.1651V77.0488Z" fill="#0E0A1B"/>
<path d="M45.4073 77.0488H42.1641V80.2749H45.4073V77.0488Z" fill="#0E0A1B"/>
<path d="M48.6495 77.0488H45.4062V80.2749H48.6495V77.0488Z" fill="#0E0A1B"/>
<path d="M55.1378 77.0488H51.8945V80.2749H55.1378V77.0488Z" fill="#0E0A1B"/>
<path d="M58.38 77.0488H55.1367V80.2749H58.38V77.0488Z" fill="#0E0A1B"/>
<path d="M64.8682 77.0488H61.625V80.2749H64.8682V77.0488Z" fill="#0E0A1B"/>
<path d="M68.1104 77.0488H64.8672V80.2749H68.1104V77.0488Z" fill="#0E0A1B"/>
<path d="M71.3526 77.0488H68.1094V80.2749H71.3526V77.0488Z" fill="#0E0A1B"/>
<path d="M77.8409 77.0488H74.5977V80.2749H77.8409V77.0488Z" fill="#0E0A1B"/>
<path d="M84.3253 77.0488H81.082V80.2749H84.3253V77.0488Z" fill="#0E0A1B"/>
<path d="M94.0557 77.0488H90.8125V80.2749H94.0557V77.0488Z" fill="#0E0A1B"/>
<path d="M100.54 77.0488H97.2969V80.2749H100.54V77.0488Z" fill="#0E0A1B"/>
<path d="M110.274 77.0488H107.031V80.2749H110.274V77.0488Z" fill="#0E0A1B"/>
<path d="M113.517 77.0488H110.273V80.2749H113.517V77.0488Z" fill="#0E0A1B"/>
<path d="M9.73152 80.2695H6.48828V83.4956H9.73152V80.2695Z" fill="#0E0A1B"/>
<path d="M16.2198 80.2695H12.9766V83.4956H16.2198V80.2695Z" fill="#0E0A1B"/>
<path d="M19.462 80.2695H16.2188V83.4956H19.462V80.2695Z" fill="#0E0A1B"/>
<path d="M38.9229 80.2695H35.6797V83.4956H38.9229V80.2695Z" fill="#0E0A1B"/>
<path d="M45.4073 80.2695H42.1641V83.4956H45.4073V80.2695Z" fill="#0E0A1B"/>
<path d="M58.38 80.2695H55.1367V83.4956H58.38V80.2695Z" fill="#0E0A1B"/>
<path d="M61.6221 80.2695H58.3789V83.4956H61.6221V80.2695Z" fill="#0E0A1B"/>
<path d="M64.8682 80.2695H61.625V83.4956H64.8682V80.2695Z" fill="#0E0A1B"/>
<path d="M71.3526 80.2695H68.1094V83.4956H71.3526V80.2695Z" fill="#0E0A1B"/>
<path d="M74.5948 80.2695H71.3516V83.4956H74.5948V80.2695Z" fill="#0E0A1B"/>
<path d="M84.3253 80.2695H81.082V83.4956H84.3253V80.2695Z" fill="#0E0A1B"/>
<path d="M87.5714 80.2695H84.3281V83.4956H87.5714V80.2695Z" fill="#0E0A1B"/>
<path d="M97.2979 80.2695H94.0547V83.4956H97.2979V80.2695Z" fill="#0E0A1B"/>
<path d="M100.54 80.2695H97.2969V83.4956H100.54V80.2695Z" fill="#0E0A1B"/>
<path d="M107.028 80.2695H103.785V83.4956H107.028V80.2695Z" fill="#0E0A1B"/>
<path d="M9.73152 83.498H6.48828V86.7241H9.73152V83.498Z" fill="#0E0A1B"/>
<path d="M12.9737 83.498H9.73047V86.7241H12.9737V83.498Z" fill="#0E0A1B"/>
<path d="M16.2198 83.498H12.9766V86.7241H16.2198V83.498Z" fill="#0E0A1B"/>
<path d="M19.462 83.498H16.2188V86.7241H19.462V83.498Z" fill="#0E0A1B"/>
<path d="M22.7042 83.498H19.4609V86.7241H22.7042V83.498Z" fill="#0E0A1B"/>
<path d="M29.1886 83.498H25.9453V86.7241H29.1886V83.498Z" fill="#0E0A1B"/>
<path d="M32.4346 83.498H29.1914V86.7241H32.4346V83.498Z" fill="#0E0A1B"/>
<path d="M48.6495 83.498H45.4062V86.7241H48.6495V83.498Z" fill="#0E0A1B"/>
<path d="M55.1378 83.498H51.8945V86.7241H55.1378V83.498Z" fill="#0E0A1B"/>
<path d="M58.38 83.498H55.1367V86.7241H58.38V83.498Z" fill="#0E0A1B"/>
<path d="M81.0831 83.498H77.8398V86.7241H81.0831V83.498Z" fill="#0E0A1B"/>
<path d="M84.3253 83.498H81.082V86.7241H84.3253V83.498Z" fill="#0E0A1B"/>
<path d="M87.5714 83.498H84.3281V86.7241H87.5714V83.498Z" fill="#0E0A1B"/>
<path d="M90.8136 83.498H87.5703V86.7241H90.8136V83.498Z" fill="#0E0A1B"/>
<path d="M94.0557 83.498H90.8125V86.7241H94.0557V83.498Z" fill="#0E0A1B"/>
<path d="M97.2979 83.498H94.0547V86.7241H97.2979V83.498Z" fill="#0E0A1B"/>
<path d="M100.54 83.498H97.2969V86.7241H100.54V83.498Z" fill="#0E0A1B"/>
<path d="M113.517 83.498H110.273V86.7241H113.517V83.498Z" fill="#0E0A1B"/>
<path d="M35.6768 86.7344H32.4336V89.9605H35.6768V86.7344Z" fill="#0E0A1B"/>
<path d="M45.4073 86.7344H42.1641V89.9605H45.4073V86.7344Z" fill="#0E0A1B"/>
<path d="M51.8917 86.7344H48.6484V89.9605H51.8917V86.7344Z" fill="#0E0A1B"/>
<path d="M55.1378 86.7344H51.8945V89.9605H55.1378V86.7344Z" fill="#0E0A1B"/>
<path d="M58.38 86.7344H55.1367V89.9605H58.38V86.7344Z" fill="#0E0A1B"/>
<path d="M61.6221 86.7344H58.3789V89.9605H61.6221V86.7344Z" fill="#0E0A1B"/>
<path d="M71.3526 86.7344H68.1094V89.9605H71.3526V86.7344Z" fill="#0E0A1B"/>
<path d="M74.5948 86.7344H71.3516V89.9605H74.5948V86.7344Z" fill="#0E0A1B"/>
<path d="M77.8409 86.7344H74.5977V89.9605H77.8409V86.7344Z" fill="#0E0A1B"/>
<path d="M87.5714 86.7344H84.3281V89.9605H87.5714V86.7344Z" fill="#0E0A1B"/>
<path d="M100.54 86.7344H97.2969V89.9605H100.54V86.7344Z" fill="#0E0A1B"/>
<path d="M103.786 86.7344H100.543V89.9605H103.786V86.7344Z" fill="#0E0A1B"/>
<path d="M35.6768 89.9473H32.4336V93.1734H35.6768V89.9473Z" fill="#0E0A1B"/>
<path d="M38.9229 89.9473H35.6797V93.1734H38.9229V89.9473Z" fill="#0E0A1B"/>
<path d="M51.8917 89.9473H48.6484V93.1734H51.8917V89.9473Z" fill="#0E0A1B"/>
<path d="M58.38 89.9473H55.1367V93.1734H58.38V89.9473Z" fill="#0E0A1B"/>
<path d="M61.6221 89.9473H58.3789V93.1734H61.6221V89.9473Z" fill="#0E0A1B"/>
<path d="M64.8682 89.9473H61.625V93.1734H64.8682V89.9473Z" fill="#0E0A1B"/>
<path d="M74.5948 89.9473H71.3516V93.1734H74.5948V89.9473Z" fill="#0E0A1B"/>
<path d="M84.3253 89.9473H81.082V93.1734H84.3253V89.9473Z" fill="#0E0A1B"/>
<path d="M87.5714 89.9473H84.3281V93.1734H87.5714V89.9473Z" fill="#0E0A1B"/>
<path d="M94.0557 89.9473H90.8125V93.1734H94.0557V89.9473Z" fill="#0E0A1B"/>
<path d="M100.54 89.9473H97.2969V93.1734H100.54V89.9473Z" fill="#0E0A1B"/>
<path d="M103.786 89.9473H100.543V93.1734H103.786V89.9473Z" fill="#0E0A1B"/>
<path d="M107.028 89.9473H103.785V93.1734H107.028V89.9473Z" fill="#0E0A1B"/>
<path d="M42.1651 93.1836H38.9219V96.4097H42.1651V93.1836Z" fill="#0E0A1B"/>
<path d="M51.8917 93.1836H48.6484V96.4097H51.8917V93.1836Z" fill="#0E0A1B"/>
<path d="M58.38 93.1836H55.1367V96.4097H58.38V93.1836Z" fill="#0E0A1B"/>
<path d="M61.6221 93.1836H58.3789V96.4097H61.6221V93.1836Z" fill="#0E0A1B"/>
<path d="M77.8409 93.1836H74.5977V96.4097H77.8409V93.1836Z" fill="#0E0A1B"/>
<path d="M81.0831 93.1836H77.8398V96.4097H81.0831V93.1836Z" fill="#0E0A1B"/>
<path d="M84.3253 93.1836H81.082V96.4097H84.3253V93.1836Z" fill="#0E0A1B"/>
<path d="M87.5714 93.1836H84.3281V96.4097H87.5714V93.1836Z" fill="#0E0A1B"/>
<path d="M100.54 93.1836H97.2969V96.4097H100.54V93.1836Z" fill="#0E0A1B"/>
<path d="M103.786 93.1836H100.543V96.4097H103.786V93.1836Z" fill="#0E0A1B"/>
<path d="M107.028 93.1836H103.785V96.4097H107.028V93.1836Z" fill="#0E0A1B"/>
<path d="M110.274 93.1836H107.031V96.4097H110.274V93.1836Z" fill="#0E0A1B"/>
<path d="M35.6768 96.4062H32.4336V99.6323H35.6768V96.4062Z" fill="#0E0A1B"/>
<path d="M38.9229 96.4062H35.6797V99.6323H38.9229V96.4062Z" fill="#0E0A1B"/>
<path d="M48.6495 96.4062H45.4062V99.6323H48.6495V96.4062Z" fill="#0E0A1B"/>
<path d="M51.8917 96.4062H48.6484V99.6323H51.8917V96.4062Z" fill="#0E0A1B"/>
<path d="M55.1378 96.4062H51.8945V99.6323H55.1378V96.4062Z" fill="#0E0A1B"/>
<path d="M74.5948 96.4062H71.3516V99.6323H74.5948V96.4062Z" fill="#0E0A1B"/>
<path d="M77.8409 96.4062H74.5977V99.6323H77.8409V96.4062Z" fill="#0E0A1B"/>
<path d="M81.0831 96.4062H77.8398V99.6323H81.0831V96.4062Z" fill="#0E0A1B"/>
<path d="M84.3253 96.4062H81.082V99.6323H84.3253V96.4062Z" fill="#0E0A1B"/>
<path d="M87.5714 96.4062H84.3281V99.6323H87.5714V96.4062Z" fill="#0E0A1B"/>
<path d="M90.8136 96.4062H87.5703V99.6323H90.8136V96.4062Z" fill="#0E0A1B"/>
<path d="M94.0557 96.4062H90.8125V99.6323H94.0557V96.4062Z" fill="#0E0A1B"/>
<path d="M97.2979 96.4062H94.0547V99.6323H97.2979V96.4062Z" fill="#0E0A1B"/>
<path d="M100.54 96.4062H97.2969V99.6323H100.54V96.4062Z" fill="#0E0A1B"/>
<path d="M103.786 96.4062H100.543V99.6323H103.786V96.4062Z" fill="#0E0A1B"/>
<path d="M110.274 96.4062H107.031V99.6323H110.274V96.4062Z" fill="#0E0A1B"/>
<path d="M35.6768 99.6348H32.4336V102.861H35.6768V99.6348Z" fill="#0E0A1B"/>
<path d="M38.9229 99.6348H35.6797V102.861H38.9229V99.6348Z" fill="#0E0A1B"/>
<path d="M45.4073 99.6348H42.1641V102.861H45.4073V99.6348Z" fill="#0E0A1B"/>
<path d="M48.6495 99.6348H45.4062V102.861H48.6495V99.6348Z" fill="#0E0A1B"/>
<path d="M51.8917 99.6348H48.6484V102.861H51.8917V99.6348Z" fill="#0E0A1B"/>
<path d="M55.1378 99.6348H51.8945V102.861H55.1378V99.6348Z" fill="#0E0A1B"/>
<path d="M58.38 99.6348H55.1367V102.861H58.38V99.6348Z" fill="#0E0A1B"/>
<path d="M61.6221 99.6348H58.3789V102.861H61.6221V99.6348Z" fill="#0E0A1B"/>
<path d="M68.1104 99.6348H64.8672V102.861H68.1104V99.6348Z" fill="#0E0A1B"/>
<path d="M74.5948 99.6348H71.3516V102.861H74.5948V99.6348Z" fill="#0E0A1B"/>
<path d="M77.8409 99.6348H74.5977V102.861H77.8409V99.6348Z" fill="#0E0A1B"/>
<path d="M81.0831 99.6348H77.8398V102.861H81.0831V99.6348Z" fill="#0E0A1B"/>
<path d="M84.3253 99.6348H81.082V102.861H84.3253V99.6348Z" fill="#0E0A1B"/>
<path d="M90.8136 99.6348H87.5703V102.861H90.8136V99.6348Z" fill="#0E0A1B"/>
<path d="M97.2979 99.6348H94.0547V102.861H97.2979V99.6348Z" fill="#0E0A1B"/>
<path d="M110.274 99.6348H107.031V102.861H110.274V99.6348Z" fill="#0E0A1B"/>
<path d="M38.9229 102.855H35.6797V106.082H38.9229V102.855Z" fill="#0E0A1B"/>
<path d="M45.4073 102.855H42.1641V106.082H45.4073V102.855Z" fill="#0E0A1B"/>
<path d="M48.6495 102.855H45.4062V106.082H48.6495V102.855Z" fill="#0E0A1B"/>
<path d="M55.1378 102.855H51.8945V106.082H55.1378V102.855Z" fill="#0E0A1B"/>
<path d="M58.38 102.855H55.1367V106.082H58.38V102.855Z" fill="#0E0A1B"/>
<path d="M64.8682 102.855H61.625V106.082H64.8682V102.855Z" fill="#0E0A1B"/>
<path d="M68.1104 102.855H64.8672V106.082H68.1104V102.855Z" fill="#0E0A1B"/>
<path d="M81.0831 102.855H77.8398V106.082H81.0831V102.855Z" fill="#0E0A1B"/>
<path d="M100.54 102.855H97.2969V106.082H100.54V102.855Z" fill="#0E0A1B"/>
<path d="M110.274 102.855H107.031V106.082H110.274V102.855Z" fill="#0E0A1B"/>
<path d="M113.517 102.855H110.273V106.082H113.517V102.855Z" fill="#0E0A1B"/>
<path d="M48.6495 106.084H45.4062V109.31H48.6495V106.084Z" fill="#0E0A1B"/>
<path d="M51.8917 106.084H48.6484V109.31H51.8917V106.084Z" fill="#0E0A1B"/>
<path d="M55.1378 106.084H51.8945V109.31H55.1378V106.084Z" fill="#0E0A1B"/>
<path d="M61.6221 106.084H58.3789V109.31H61.6221V106.084Z" fill="#0E0A1B"/>
<path d="M71.3526 106.084H68.1094V109.31H71.3526V106.084Z" fill="#0E0A1B"/>
<path d="M74.5948 106.084H71.3516V109.31H74.5948V106.084Z" fill="#0E0A1B"/>
<path d="M77.8409 106.084H74.5977V109.31H77.8409V106.084Z" fill="#0E0A1B"/>
<path d="M84.3253 106.084H81.082V109.31H84.3253V106.084Z" fill="#0E0A1B"/>
<path d="M90.8136 106.084H87.5703V109.31H90.8136V106.084Z" fill="#0E0A1B"/>
<path d="M94.0557 106.084H90.8125V109.31H94.0557V106.084Z" fill="#0E0A1B"/>
<path d="M103.786 106.084H100.543V109.31H103.786V106.084Z" fill="#0E0A1B"/>
<path d="M107.028 106.084H103.785V109.31H107.028V106.084Z" fill="#0E0A1B"/>
<path d="M110.274 106.084H107.031V109.31H110.274V106.084Z" fill="#0E0A1B"/>
<path d="M113.517 106.084H110.273V109.31H113.517V106.084Z" fill="#0E0A1B"/>
<path d="M38.9229 109.305H35.6797V112.531H38.9229V109.305Z" fill="#0E0A1B"/>
<path d="M42.1651 109.305H38.9219V112.531H42.1651V109.305Z" fill="#0E0A1B"/>
<path d="M45.4073 109.305H42.1641V112.531H45.4073V109.305Z" fill="#0E0A1B"/>
<path d="M48.6495 109.305H45.4062V112.531H48.6495V109.305Z" fill="#0E0A1B"/>
<path d="M51.8917 109.305H48.6484V112.531H51.8917V109.305Z" fill="#0E0A1B"/>
<path d="M68.1104 109.305H64.8672V112.531H68.1104V109.305Z" fill="#0E0A1B"/>
<path d="M74.5948 109.305H71.3516V112.531H74.5948V109.305Z" fill="#0E0A1B"/>
<path d="M77.8409 109.305H74.5977V112.531H77.8409V109.305Z" fill="#0E0A1B"/>
<path d="M84.3253 109.305H81.082V112.531H84.3253V109.305Z" fill="#0E0A1B"/>
<path d="M87.5714 109.305H84.3281V112.531H87.5714V109.305Z" fill="#0E0A1B"/>
<path d="M100.54 109.305H97.2969V112.531H100.54V109.305Z" fill="#0E0A1B"/>
<path d="M21.4401 6.07422H14.2392C10.7298 6.07422 7.75668 8.38058 6.80612 11.5329C6.70782 11.859 6.63108 12.1941 6.57773 12.5367C6.51893 12.9147 6.48828 13.3018 6.48828 13.6958V21.0286C6.48828 25.2333 9.96634 28.6525 14.2392 28.6525L17.8396 28.6532L21.4401 28.6523C25.7127 28.6523 29.191 25.2331 29.191 21.0284V13.6958C29.191 9.49322 25.7129 6.07422 21.4401 6.07422ZM25.7856 21.0286C25.7856 23.3646 23.8363 25.2651 21.4391 25.2651L17.8396 25.2658L14.2401 25.2649C11.8429 25.2649 9.89369 23.3644 9.89369 21.0286V13.6958C9.89369 12.9662 10.0839 12.2792 10.4188 11.679C10.7412 11.1016 11.1973 10.605 11.7465 10.229C12.4525 9.74547 13.3123 9.46161 14.239 9.46161H21.4401C23.8363 9.46161 25.7856 11.361 25.7856 13.6958V21.0286Z" fill="#0E0A1B"/>
<path d="M105.764 6.07422H98.5634C95.054 6.07422 92.0809 8.38058 91.1303 11.5329C91.032 11.859 90.9553 12.1941 90.9019 12.5367C90.8431 12.9147 90.8125 13.3018 90.8125 13.6958V21.0286C90.8125 25.2333 94.2906 28.6525 98.5634 28.6525L102.164 28.6532L105.764 28.6523C110.037 28.6523 113.515 25.2331 113.515 21.0284V13.6958C113.515 9.49322 110.037 6.07422 105.764 6.07422ZM110.11 21.0286C110.11 23.3646 108.161 25.2651 105.763 25.2651L102.164 25.2658L98.5643 25.2649C96.1672 25.2649 94.2179 23.3644 94.2179 21.0286V13.6958C94.2179 12.9662 94.4082 12.2792 94.743 11.679C95.0654 11.1016 95.5215 10.605 96.0707 10.229C96.7767 9.74547 97.6365 9.46161 98.5632 9.46161H105.764C108.161 9.46161 110.11 11.361 110.11 13.6958V21.0286Z" fill="#0E0A1B"/>
<path d="M21.4401 89.9551H14.2392C10.7298 89.9551 7.75668 92.2614 6.80612 95.4137C6.70782 95.7398 6.63108 96.075 6.57773 96.4175C6.51893 96.7956 6.48828 97.1826 6.48828 97.5767V104.91C6.48828 109.114 9.96634 112.533 14.2392 112.533L17.8396 112.534L21.4401 112.533C25.7127 112.533 29.191 109.114 29.191 104.909V97.5767C29.191 93.3741 25.7129 89.9551 21.4401 89.9551ZM25.7856 104.91C25.7856 107.245 23.8363 109.146 21.4391 109.146L17.8396 109.147L14.2401 109.146C11.8429 109.146 9.89369 107.245 9.89369 104.91V97.5767C9.89369 96.8471 10.0839 96.1601 10.4188 95.5599C10.7412 94.9824 11.1973 94.4858 11.7465 94.1098C12.4525 93.6263 13.3123 93.3425 14.239 93.3425H21.4401C23.8363 93.3425 25.7856 95.2419 25.7856 97.5767V104.91Z" fill="#0E0A1B"/>
<path d="M15.6352 22.2017C14.167 22.2017 12.9727 21.0372 12.9727 19.6071V15.1166C12.9727 14.6699 13.0894 14.2495 13.2938 13.8816C13.4913 13.5276 13.7707 13.2233 14.1072 12.9937C14.5395 12.6977 15.0665 12.5234 15.6337 12.5234H20.0439C21.5108 12.5234 22.7051 13.6866 22.7051 15.1165V19.6071C22.7051 21.037 21.5109 22.2016 20.0439 22.2016H17.8389L15.6352 22.2017Z" fill="#0E0A1B"/>
<path d="M99.9594 22.2017C98.4912 22.2017 97.2969 21.0372 97.2969 19.6071V15.1166C97.2969 14.6699 97.4136 14.2495 97.6181 13.8816C97.8155 13.5276 98.0949 13.2233 98.4315 12.9937C98.8638 12.6977 99.3907 12.5234 99.958 12.5234H104.368C105.835 12.5234 107.029 13.6866 107.029 15.1165V19.6071C107.029 21.037 105.835 22.2016 104.368 22.2016H102.163L99.9594 22.2017Z" fill="#0E0A1B"/>
<path d="M15.6352 106.085C14.167 106.085 12.9727 104.92 12.9727 103.49V98.9994C12.9727 98.5527 13.0894 98.1323 13.2938 97.7644C13.4913 97.4104 13.7707 97.1061 14.1072 96.8765C14.5395 96.5806 15.0665 96.4062 15.6337 96.4062H20.0439C21.5108 96.4062 22.7051 97.5694 22.7051 98.9993V103.49C22.7051 104.92 21.5109 106.084 20.0439 106.084H17.8389L15.6352 106.085Z" fill="#0E0A1B"/>
<g clip-path="url(#clip1_3809_35422)">
<path d="M43.6158 42.6015C43.2257 42.9905 43 43.5963 43 44.3807V72.3614C43 73.1459 43.2257 73.7516 43.6158 74.1406L43.7121 74.2261L60.1685 58.553V58.1829L43.7121 42.5098L43.6158 42.6015Z" fill="#0E0A1B"/>
<path d="M67.6514 63.7811L62.1719 58.5541V58.184L67.658 52.957L67.7807 53.025L74.2778 56.5471C76.1319 57.5467 76.1319 59.1915 74.2778 60.1974L67.7807 63.7131L67.6514 63.7811Z" fill="#0E0A1B"/>
<path d="M66.7749 64.6839L61.166 59.3398L44.6133 75.1126C45.2291 75.7294 46.2334 75.8037 47.3754 75.1869L66.7749 64.6839Z" fill="#0E0A1B"/>
<path d="M66.7749 52.0517L47.3754 41.5487C46.2334 40.9382 45.2291 41.0125 44.6133 41.6293L61.166 57.3958L66.7749 52.0517Z" fill="#0E0A1B"/>
</g>
</g>
<defs>
<clipPath id="clip0_3809_35422">
<rect width="120" height="120" rx="12" fill="white"/>
</clipPath>
<clipPath id="clip1_3809_35422">
<rect width="34" height="35.1074" fill="white" transform="translate(43 41.127)"/>
</clipPath>
</defs>
</svg>
