<svg width="149" height="43" viewBox="0 0 149 43" fill="none" xmlns="http://www.w3.org/2000/svg">
<path d="M143.481 43H5.51852C2.48471 43 0 40.6024 0 37.675V5.725C0 2.79758 2.48471 0.400002 5.51852 0.400002H143.481C146.515 0.400002 149 2.79758 149 5.725V37.675C149 40.6024 146.515 43 143.481 43Z" fill="#121112"/>
<path d="M143.481 43H5.51852C2.48471 43 0 40.6024 0 37.675V5.725C0 2.79758 2.48471 0.400002 5.51852 0.400002H143.481C146.515 0.400002 149 2.79758 149 5.725V37.675C149 40.6024 146.515 43 143.481 43Z" fill="black" fill-opacity="0.2"/>
<path d="M10.6876 8.42329C10.3634 8.75078 10.1758 9.26065 10.1758 9.92095V33.4734C10.1758 34.1337 10.3634 34.6436 10.6876 34.9711L10.7676 35.043L24.4453 21.8503V21.5388L10.7676 8.34608L10.6876 8.42329Z" fill="white"/>
<path d="M30.6557 26.25L26.1016 21.8502V21.5387L30.6612 17.1389L30.7633 17.1962L36.1632 20.1609C37.7042 21.0022 37.7042 22.3867 36.1632 23.2334L30.7633 26.1928L30.6557 26.25Z" fill="white"/>
<path d="M29.9351 27.0125L25.2733 22.5143L11.5156 35.7908C12.0275 36.31 12.8621 36.3726 13.8113 35.8534L29.9351 27.0125Z" fill="white"/>
<path d="M29.9351 16.3767L13.8113 7.53588C12.8621 7.02201 12.0275 7.08458 11.5156 7.60377L25.2733 20.875L29.9351 16.3767Z" fill="white"/>
<path d="M52.3346 11.3054C52.3346 12.1947 52.0587 12.9069 51.5151 13.4381C50.8901 14.0677 50.0761 14.3846 49.0787 14.3846C48.1253 14.3846 47.3114 14.0624 46.6436 13.4274C45.9745 12.7831 45.6406 11.9923 45.6406 11.0458C45.6406 10.0993 45.9745 9.30852 46.6436 8.66953C47.3114 8.02919 48.1253 7.70703 49.0787 7.70703C49.5533 7.70703 50.0058 7.80155 50.4376 7.97727C50.868 8.15433 51.2185 8.39396 51.4723 8.68949L50.8956 9.25128C50.4528 8.74674 49.8499 8.49779 49.0787 8.49779C48.3833 8.49779 47.7804 8.73209 47.2686 9.20469C46.7623 9.67861 46.5084 10.2923 46.5084 11.0458C46.5084 11.7993 46.7623 12.4183 47.2686 12.8922C47.7804 13.3595 48.3833 13.5991 49.0787 13.5991C49.8168 13.5991 50.4376 13.3595 50.9274 12.8869C51.2502 12.5741 51.4337 12.1428 51.482 11.5916H49.0787V10.8222H52.2849C52.3235 10.9886 52.3346 11.1496 52.3346 11.3054Z" fill="white"/>
<path d="M52.3346 11.3054C52.3346 12.1947 52.0587 12.9069 51.5151 13.4381C50.8901 14.0677 50.0761 14.3846 49.0787 14.3846C48.1253 14.3846 47.3114 14.0624 46.6436 13.4274C45.9745 12.7831 45.6406 11.9923 45.6406 11.0458C45.6406 10.0993 45.9745 9.30852 46.6436 8.66953C47.3114 8.02919 48.1253 7.70703 49.0787 7.70703C49.5533 7.70703 50.0058 7.80155 50.4376 7.97727C50.868 8.15433 51.2185 8.39396 51.4723 8.68949L50.8956 9.25128C50.4528 8.74674 49.8499 8.49779 49.0787 8.49779C48.3833 8.49779 47.7804 8.73209 47.2686 9.20469C46.7623 9.67861 46.5084 10.2923 46.5084 11.0458C46.5084 11.7993 46.7623 12.4183 47.2686 12.8922C47.7804 13.3595 48.3833 13.5991 49.0787 13.5991C49.8168 13.5991 50.4376 13.3595 50.9274 12.8869C51.2502 12.5741 51.4337 12.1428 51.482 11.5916H49.0787V10.8222H52.2849C52.3235 10.9886 52.3346 11.1496 52.3346 11.3054Z" stroke="#121112" stroke-width="0.0441481" stroke-miterlimit="10"/>
<path d="M52.3346 11.3054C52.3346 12.1947 52.0587 12.9069 51.5151 13.4381C50.8901 14.0677 50.0761 14.3846 49.0787 14.3846C48.1253 14.3846 47.3114 14.0624 46.6436 13.4274C45.9745 12.7831 45.6406 11.9923 45.6406 11.0458C45.6406 10.0993 45.9745 9.30852 46.6436 8.66953C47.3114 8.02919 48.1253 7.70703 49.0787 7.70703C49.5533 7.70703 50.0058 7.80155 50.4376 7.97727C50.868 8.15433 51.2185 8.39396 51.4723 8.68949L50.8956 9.25128C50.4528 8.74674 49.8499 8.49779 49.0787 8.49779C48.3833 8.49779 47.7804 8.73209 47.2686 9.20469C46.7623 9.67861 46.5084 10.2923 46.5084 11.0458C46.5084 11.7993 46.7623 12.4183 47.2686 12.8922C47.7804 13.3595 48.3833 13.5991 49.0787 13.5991C49.8168 13.5991 50.4376 13.3595 50.9274 12.8869C51.2502 12.5741 51.4337 12.1428 51.482 11.5916H49.0787V10.8222H52.2849C52.3235 10.9886 52.3346 11.1496 52.3346 11.3054Z" stroke="black" stroke-opacity="0.2" stroke-width="0.0441481" stroke-miterlimit="10"/>
<path d="M57.4229 8.63957H54.4112V10.6631H57.1263V11.4325H54.4112V13.456H57.4229V14.2401H53.5586V7.85547H57.4229V8.63957Z" fill="white"/>
<path d="M57.4229 8.63957H54.4112V10.6631H57.1263V11.4325H54.4112V13.456H57.4229V14.2401H53.5586V7.85547H57.4229V8.63957Z" stroke="#121112" stroke-width="0.0441481" stroke-miterlimit="10"/>
<path d="M57.4229 8.63957H54.4112V10.6631H57.1263V11.4325H54.4112V13.456H57.4229V14.2401H53.5586V7.85547H57.4229V8.63957Z" stroke="black" stroke-opacity="0.2" stroke-width="0.0441481" stroke-miterlimit="10"/>
<path d="M61.0085 14.2401H60.1559V8.63957H58.3086V7.85547H62.8572V8.63957H61.0085V14.2401Z" fill="white"/>
<path d="M61.0085 14.2401H60.1559V8.63957H58.3086V7.85547H62.8572V8.63957H61.0085V14.2401Z" stroke="#121112" stroke-width="0.0441481" stroke-miterlimit="10"/>
<path d="M61.0085 14.2401H60.1559V8.63957H58.3086V7.85547H62.8572V8.63957H61.0085V14.2401Z" stroke="black" stroke-opacity="0.2" stroke-width="0.0441481" stroke-miterlimit="10"/>
<path d="M66.1523 14.2401V7.85547H67.0024V14.2401H66.1523Z" fill="white"/>
<path d="M66.1523 14.2401V7.85547H67.0024V14.2401H66.1523Z" stroke="#121112" stroke-width="0.0441481" stroke-miterlimit="10"/>
<path d="M66.1523 14.2401V7.85547H67.0024V14.2401H66.1523Z" stroke="black" stroke-opacity="0.2" stroke-width="0.0441481" stroke-miterlimit="10"/>
<path d="M70.7741 14.2401H69.9284V8.63957H68.0742V7.85547H72.6284V8.63957H70.7741V14.2401Z" fill="white"/>
<path d="M70.7741 14.2401H69.9284V8.63957H68.0742V7.85547H72.6284V8.63957H70.7741V14.2401Z" stroke="#121112" stroke-width="0.0441481" stroke-miterlimit="10"/>
<path d="M70.7741 14.2401H69.9284V8.63957H68.0742V7.85547H72.6284V8.63957H70.7741V14.2401Z" stroke="black" stroke-opacity="0.2" stroke-width="0.0441481" stroke-miterlimit="10"/>
<path d="M81.2419 13.4168C80.5893 14.0624 79.7808 14.3846 78.8165 14.3846C77.8466 14.3846 77.0381 14.0624 76.3856 13.4168C75.7344 12.7724 75.4102 11.9817 75.4102 11.0458C75.4102 10.1099 75.7344 9.31917 76.3856 8.67485C77.0381 8.02919 77.8466 7.70703 78.8165 7.70703C79.7753 7.70703 80.5838 8.02919 81.2363 8.68017C81.893 9.32982 82.2173 10.1153 82.2173 11.0458C82.2173 11.9817 81.893 12.7724 81.2419 13.4168ZM77.016 12.8816C77.5072 13.3595 78.1046 13.5991 78.8165 13.5991C79.5228 13.5991 80.1257 13.3595 80.6114 12.8816C81.1011 12.4037 81.3495 11.79 81.3495 11.0458C81.3495 10.3016 81.1011 9.68793 80.6114 9.21001C80.1257 8.73209 79.5228 8.49247 78.8165 8.49247C78.1046 8.49247 77.5072 8.73209 77.016 9.21001C76.5263 9.68793 76.2779 10.3016 76.2779 11.0458C76.2779 11.79 76.5263 12.4037 77.016 12.8816Z" fill="white"/>
<path d="M81.2419 13.4168C80.5893 14.0624 79.7808 14.3846 78.8165 14.3846C77.8466 14.3846 77.0381 14.0624 76.3856 13.4168C75.7344 12.7724 75.4102 11.9817 75.4102 11.0458C75.4102 10.1099 75.7344 9.31917 76.3856 8.67485C77.0381 8.02919 77.8466 7.70703 78.8165 7.70703C79.7753 7.70703 80.5838 8.02919 81.2363 8.68017C81.893 9.32982 82.2173 10.1153 82.2173 11.0458C82.2173 11.9817 81.893 12.7724 81.2419 13.4168ZM77.016 12.8816C77.5072 13.3595 78.1046 13.5991 78.8165 13.5991C79.5228 13.5991 80.1257 13.3595 80.6114 12.8816C81.1011 12.4037 81.3495 11.79 81.3495 11.0458C81.3495 10.3016 81.1011 9.68793 80.6114 9.21001C80.1257 8.73209 79.5228 8.49247 78.8165 8.49247C78.1046 8.49247 77.5072 8.73209 77.016 9.21001C76.5263 9.68793 76.2779 10.3016 76.2779 11.0458C76.2779 11.79 76.5263 12.4037 77.016 12.8816Z" stroke="#121112" stroke-width="0.0441481" stroke-miterlimit="10"/>
<path d="M81.2419 13.4168C80.5893 14.0624 79.7808 14.3846 78.8165 14.3846C77.8466 14.3846 77.0381 14.0624 76.3856 13.4168C75.7344 12.7724 75.4102 11.9817 75.4102 11.0458C75.4102 10.1099 75.7344 9.31917 76.3856 8.67485C77.0381 8.02919 77.8466 7.70703 78.8165 7.70703C79.7753 7.70703 80.5838 8.02919 81.2363 8.68017C81.893 9.32982 82.2173 10.1153 82.2173 11.0458C82.2173 11.9817 81.893 12.7724 81.2419 13.4168ZM77.016 12.8816C77.5072 13.3595 78.1046 13.5991 78.8165 13.5991C79.5228 13.5991 80.1257 13.3595 80.6114 12.8816C81.1011 12.4037 81.3495 11.79 81.3495 11.0458C81.3495 10.3016 81.1011 9.68793 80.6114 9.21001C80.1257 8.73209 79.5228 8.49247 78.8165 8.49247C78.1046 8.49247 77.5072 8.73209 77.016 9.21001C76.5263 9.68793 76.2779 10.3016 76.2779 11.0458C76.2779 11.79 76.5263 12.4037 77.016 12.8816Z" stroke="black" stroke-opacity="0.2" stroke-width="0.0441481" stroke-miterlimit="10"/>
<path d="M83.4141 14.2401V7.85547H84.4488L87.6661 12.821H87.7033L87.6661 11.5936V7.85547H88.5173V14.2401H87.6288L84.2598 9.02963H84.2225L84.2598 10.2624V14.2401H83.4141Z" fill="white"/>
<path d="M83.4141 14.2401V7.85547H84.4488L87.6661 12.821H87.7033L87.6661 11.5936V7.85547H88.5173V14.2401H87.6288L84.2598 9.02963H84.2225L84.2598 10.2624V14.2401H83.4141Z" stroke="#121112" stroke-width="0.0441481" stroke-miterlimit="10"/>
<path d="M83.4141 14.2401V7.85547H84.4488L87.6661 12.821H87.7033L87.6661 11.5936V7.85547H88.5173V14.2401H87.6288L84.2598 9.02963H84.2225L84.2598 10.2624V14.2401H83.4141Z" stroke="black" stroke-opacity="0.2" stroke-width="0.0441481" stroke-miterlimit="10"/>
<path d="M75.2017 23.5653C72.6094 23.5653 70.4917 25.469 70.4917 28.0955C70.4917 30.7008 72.6094 32.6244 75.2017 32.6244C77.7996 32.6244 79.9173 30.7008 79.9173 28.0955C79.9173 25.469 77.7996 23.5653 75.2017 23.5653ZM75.2017 30.8406C73.7793 30.8406 72.5556 29.7077 72.5556 28.0955C72.5556 26.4621 73.7793 25.3492 75.2017 25.3492C76.6241 25.3492 77.8534 26.4621 77.8534 28.0955C77.8534 29.7077 76.6241 30.8406 75.2017 30.8406ZM64.9249 23.5653C62.327 23.5653 60.2148 25.469 60.2148 28.0955C60.2148 30.7008 62.327 32.6244 64.9249 32.6244C67.5213 32.6244 69.6349 30.7008 69.6349 28.0955C69.6349 25.469 67.5213 23.5653 64.9249 23.5653ZM64.9249 30.8406C63.5011 30.8406 62.2732 29.7077 62.2732 28.0955C62.2732 26.4621 63.5011 25.3492 64.9249 25.3492C66.3473 25.3492 67.571 26.4621 67.571 28.0955C67.571 29.7077 66.3473 30.8406 64.9249 30.8406ZM52.6958 24.9538V26.8788H57.4597C57.3203 27.9544 56.9478 28.7452 56.3767 29.2963C55.6813 29.9619 54.5983 30.7008 52.6958 30.7008C49.7641 30.7008 47.4684 28.4177 47.4684 25.5888C47.4684 22.7599 49.7641 20.4768 52.6958 20.4768C54.281 20.4768 55.4344 21.0745 56.2856 21.8493L57.6915 20.4928C56.5008 19.3958 54.917 18.5531 52.6958 18.5531C48.6756 18.5531 45.2969 21.7095 45.2969 25.5888C45.2969 29.468 48.6756 32.6244 52.6958 32.6244C54.8687 32.6244 56.5008 31.9375 57.7839 30.6489C59.0987 29.3802 59.5084 27.5963 59.5084 26.1559C59.5084 25.7086 59.4698 25.2972 59.4008 24.9538H52.6958ZM102.702 26.4461C102.314 25.433 101.118 23.5653 98.6816 23.5653C96.2673 23.5653 94.2572 25.4011 94.2572 28.0955C94.2572 30.6329 96.2466 32.6244 98.9134 32.6244C101.07 32.6244 102.314 31.3558 102.826 30.6169L101.226 29.5879C100.692 30.3413 99.9647 30.8406 98.9134 30.8406C97.869 30.8406 97.1199 30.3786 96.6398 29.468L102.918 26.9613L102.702 26.4461ZM96.3004 27.9544C96.2466 26.2078 97.7062 25.3132 98.752 25.3132C99.5715 25.3132 100.267 25.7086 100.499 26.2744L96.3004 27.9544ZM91.1971 32.3489H93.2611V19.0364H91.1971V32.3489ZM87.817 24.5744H87.7481C87.2845 24.0445 86.4002 23.5653 85.2799 23.5653C82.929 23.5653 80.7796 25.5568 80.7796 28.1102C80.7796 30.6489 82.929 32.6244 85.2799 32.6244C86.4002 32.6244 87.2845 32.1412 87.7481 31.5954H87.817V32.245C87.817 33.977 86.8582 34.9075 85.3116 34.9075C84.0507 34.9075 83.2684 34.0289 82.9456 33.2901L81.1507 34.0129C81.668 35.2137 83.038 36.6914 85.3116 36.6914C87.7315 36.6914 89.7734 35.3176 89.7734 31.9748V23.8409H87.817V24.5744ZM85.4565 30.8406C84.0341 30.8406 82.8435 29.6917 82.8435 28.1102C82.8435 26.514 84.0341 25.3492 85.4565 25.3492C86.8582 25.3492 87.9633 26.514 87.9633 28.1102C87.9633 29.6917 86.8582 30.8406 85.4565 30.8406ZM112.365 19.0364H107.428V32.3489H109.487V27.3048H112.365C114.651 27.3048 116.893 25.7086 116.893 23.1699C116.893 20.6325 114.645 19.0364 112.365 19.0364ZM112.419 25.453H109.487V20.8881H112.419C113.956 20.8881 114.833 22.1195 114.833 23.1699C114.833 24.2003 113.956 25.453 112.419 25.453ZM125.143 23.54C123.656 23.54 122.109 24.1737 121.473 25.5781L123.3 26.317C123.693 25.5781 124.416 25.3385 125.18 25.3385C126.248 25.3385 127.331 25.9575 127.348 27.0505V27.1903C126.975 26.9826 126.178 26.6751 125.197 26.6751C123.229 26.6751 121.225 27.7201 121.225 29.6704C121.225 31.4543 122.836 32.6031 124.648 32.6031C126.033 32.6031 126.797 32.0001 127.277 31.2985H127.348V32.3276H129.336V27.2209C129.336 24.8606 127.509 23.54 125.143 23.54ZM124.895 30.8352C124.221 30.8352 123.283 30.5131 123.283 29.7077C123.283 28.6773 124.453 28.2819 125.466 28.2819C126.372 28.2819 126.797 28.4749 127.348 28.7292C127.186 29.9619 126.087 30.8352 124.895 30.8352ZM136.579 23.8315L134.213 29.6025H134.142L131.696 23.8315H129.476L133.152 31.8962L131.055 36.3839H133.205L138.869 23.8315H136.579ZM118.024 32.3489H120.088V19.0364H118.024V32.3489Z" fill="white"/>
</svg>
